<svg xmlns="http://www.w3.org/2000/svg" xmlns:xlink="http://www.w3.org/1999/xlink" width="22" height="25" viewBox="0 0 22 25"><defs><path id="y8u0a" d="M114.216 765c-.124 0-.216.068-.216.182v1.636c0 .114.09.182.216.182h1.568c.124 0 .216-.068.216-.182v-1.636c0-.114-.092-.182-.216-.182zm0-11c-.124 0-.216.08-.216.19v8.636c0 .109.09.174.216.174h1.568c.124 0 .216-.065.216-.174v-8.637c0-.108-.092-.189-.216-.189zm.784-5c.825 0 1.781.558 3.354 1.373 1.495.774 3.597 1.723 6.646 2.447-.184 13.698-9.371 18.837-10.016 19.18-.311-.152-2.482-1.245-4.874-4.089-2.522-2.997-5.018-7.817-5.11-15.09 3.049-.725 5.15-1.674 6.646-2.448 1.573-.815 2.53-1.373 3.354-1.373zm0-1c-1.227 0-2.262.68-3.797 1.474-1.535.794-3.596 1.753-6.812 2.463l-.391.094v.392c0 7.689 2.686 12.827 5.375 16.013 2.69 3.186 5.422 4.454 5.422 4.454l.219.11.218-.11S126 767.307 126 752.423v-.392l-.39-.094c-3.217-.71-5.278-1.669-6.813-2.463-1.535-.794-2.57-1.474-3.797-1.474z"/></defs><g><g transform="translate(-104 -748)"><use fill="#fff" xlink:href="#y8u0a"/></g></g></svg>