<svg xmlns="http://www.w3.org/2000/svg" xmlns:xlink="http://www.w3.org/1999/xlink" width="34" height="46" viewBox="0 0 34 46"><defs><path id="vb1ia" d="M483 718h14v.406c-3.582 1.524-6 4.965-6 8.907V728h-2v-.688c0-3.94-2.418-7.382-6-8.906zm12-7c-.55 0-1 .45-1 1s.45 1 1 1 1-.45 1-1-.45-1-1-1zm-4-1c-.55 0-1 .45-1 1s.45 1 1 1 1-.45 1-1-.45-1-1-1zm7-2c-.55 0-1 .45-1 1s.45 1 1 1 1-.45 1-1-.45-1-1-1zm-4-1c-.55 0-1 .45-1 1s.45 1 1 1 1-.45 1-1-.45-1-1-1zm7-2c-.55 0-1 .45-1 1s.45 1 1 1 1-.45 1-1-.45-1-1-1zm-4-1c-.55 0-1 .45-1 1s.45 1 1 1 1-.45 1-1-.45-1-1-1zm3-3c-.55 0-1 .45-1 1s.45 1 1 1 1-.45 1-1-.45-1-1-1zm-10-15c8.297 0 15 6.703 15 15s-6.703 15-15 15-15-6.703-15-15 6.703-15 15-15zm0-2c-9.379 0-17 7.621-17 17 0 6.488 3.648 12.137 9 15h-.188a1 1 0 0 0-.812 1v2a.999.999 0 0 0 .688.938 7.76 7.76 0 0 1 5.312 7.375V728H474.312c-.55.05-.957.543-.906 1.094.051.55.543.957 1.094.906h31c.36.004.695-.184.879-.496a1.01 1.01 0 0 0 0-1.008c-.184-.312-.52-.5-.879-.496H493v-.688a7.76 7.76 0 0 1 5.313-7.375A.999.999 0 0 0 499 719v-2c0-.55-.45-1-1-1 5.352-2.863 9-8.512 9-15 0-9.379-7.621-17-17-17z"/></defs><g><g transform="translate(-473 -684)"><use fill="#1a428a" xlink:href="#vb1ia"/></g></g></svg>