<svg xmlns="http://www.w3.org/2000/svg" xmlns:xlink="http://www.w3.org/1999/xlink" width="17" height="23" viewBox="0 0 17 23"><defs><path id="jyhya" d="M137 553.998h7v.204c-1.791.761-3 2.482-3 4.452v.344h-1v-.344c0-1.97-1.209-3.69-3-4.452zm6-3.5a.5.5 0 0 0 0 1 .5.5 0 0 0 0-1zm-2-.5a.5.5 0 0 0 0 1 .5.5 0 0 0 0-1zm3.5-1a.5.5 0 0 0 0 1 .5.5 0 0 0 0-1zm-2-.5a.5.5 0 0 0 0 1 .5.5 0 0 0 0-1zm3.5-.999a.5.5 0 0 0 0 1 .5.5 0 0 0 0-1zm-2-.5a.5.5 0 0 0 0 1 .5.5 0 0 0 0-1zm1.5-1.5a.5.5 0 0 0 0 1 .5.5 0 0 0 0-1zm-5-7.5c4.148 0 7.5 3.352 7.5 7.5s-3.352 7.5-7.5 7.5a7.492 7.492 0 0 1-7.5-7.5c0-4.148 3.352-7.5 7.5-7.5zm0-.999c-4.69 0-8.5 3.81-8.5 8.5a8.505 8.505 0 0 0 4.5 7.499h-.094a.5.5 0 0 0-.406.5v1a.5.5 0 0 0 .344.468 3.88 3.88 0 0 1 2.656 3.687v.344H132.656a.503.503 0 0 0 .094 1h15.5a.503.503 0 0 0 .44-.248.505.505 0 0 0 0-.504.503.503 0 0 0-.44-.248H142v-.344a3.88 3.88 0 0 1 2.656-3.687.5.5 0 0 0 .344-.469v-1a.5.5 0 0 0-.5-.5 8.505 8.505 0 0 0 4.5-7.499c0-4.689-3.81-8.499-8.5-8.499z"/></defs><g><g transform="translate(-132 -537)"><use fill="#cfddbb" xlink:href="#jyhya"/></g></g></svg>