<svg xmlns="http://www.w3.org/2000/svg" xmlns:xlink="http://www.w3.org/1999/xlink" width="16" height="20" viewBox="0 0 16 20"><defs><path id="2yboa" d="M114.622 874.696h6.919v.434h-6.92zm8.648-7.993l.634.317a.43.43 0 0 1 .241.388v4.253c0 .247-.19.436-.437.436h-.438zm-11.243-5.05h.865v9.963c-.365-.467-.571-.663-1.144-1.605-.954-1.565-1.883-3.59-1.883-5.312v-.87c0-1.208.963-2.177 2.162-2.177zm2.162-.87h2.522a.389.389 0 0 0 .14 0h2.022a.389.389 0 0 0 .14 0h1.23c.576 0 1.107.309 1.509.807.403.496.653 1.174.653 1.803v10.008a.426.426 0 0 1-.432.435h-7.784a.426.426 0 0 1-.432-.435v-12.183c0-.247.187-.435.432-.435zm6.054-3.479c.463 0 .787.153 1.007.313l-1.872.937v-.38c0-.155.076-.4.223-.574a.773.773 0 0 1 .642-.296zm-4.757-.434c.306 0 .495.118.642.295.147.175.223.42.223.574v.38l-1.871-.937c.22-.16.544-.312 1.006-.312zm0-.87c-1.393 0-2.094 1.073-2.094 1.073a.435.435 0 0 0 .17.62l2.79 1.398v.822h-2.163c-.559 0-1.035.367-1.216.87h-.946c-1.667 0-3.027 1.367-3.027 3.043v.87c0 2.024 1.017 4.132 2.008 5.76a23.121 23.121 0 0 0 1.884 2.658v.277c0 .562.365 1.041.865 1.223v.951c0 .24.194.435.432.435h7.784a.434.434 0 0 0 .432-.435v-.95c.5-.183.865-.662.865-1.224v-.434h.433c.71 0 1.297-.59 1.297-1.305v-4.246a1.31 1.31 0 0 0-.716-1.167l-1.014-.507v-2.34c0-.853-.317-1.7-.846-2.353-.53-.654-1.297-1.126-2.18-1.126h-.866v-.387l2.79-1.398a.435.435 0 0 0 .17-.62s-.701-1.073-2.095-1.073c-.559 0-1.018.263-1.304.604a1.778 1.778 0 0 0-.425 1.135v1.739h-1.298v-2.174c0-.387-.14-.793-.425-1.134a1.696 1.696 0 0 0-1.305-.605z"/></defs><g><g transform="translate(-109 -856)"><use fill="#79a383" xlink:href="#2yboa"/></g></g></svg>