<svg xmlns="http://www.w3.org/2000/svg" xmlns:xlink="http://www.w3.org/1999/xlink" width="40" height="46" viewBox="0 0 40 46"><defs><path id="s3kaa" d="M1066.871 710.02l5.934 15.69c.015.06.035.118.058.177A1.486 1.486 0 0 1 1071.5 728a1.48 1.48 0 0 1-1.434-1.102.85.85 0 0 0-.066-.164l-3.926-10.48-.011-.024zm-29.456-7.024c.369.25.878.7 1.349 1.2.462.49.886 1.02 1.152 1.42-.76.417-1.677.436-2.328-.21-.678-.674-.655-1.643-.173-2.41zm23.5-14.433l7.21 4.144v-.566c0 .386.227.742.578.906a.494.494 0 0 1 .297.453.481.481 0 0 1-.266.434.998.998 0 0 0-.53.882v-.578l-4.49 2.485a.998.998 0 0 0-.48 1.125l1.5 5.804.012.047c.453 1.453.547 2.899.363 4.38l-1.144 8.792-5.055 10.145-.012.03.415-.816.886.442a1 1 0 0 0-1.3.375l-.004.004-.004.007a.616.616 0 0 0-.008.016c-.012.02-.024.043-.035.067-.242.507-.742.859-1.348.859-.84 0-1.5-.66-1.5-1.5 0-.27.074-.516.215-.75.035-.062.062-.125.086-.191l4.746-9.196c.11-.215.137-.468.078-.707l-3.871-14.894-.139.292c.108-.232.118-.496.037-.741a2.462 2.462 0 0 1-.152-.813c0-1.098.703-2.004 1.676-2.344.254-.09.46-.277.574-.52l-.144.313 5.906-2.75a.997.997 0 0 0 .574-.863 1 1 0 0 0-.496-.91l-4.117-2.395c.015-.172.027-.351.027-.531 0-.32-.031-.629-.086-.938zm-2.024 38.495zm-1.776-26.004a.959.959 0 0 1-.006.012zM1055.5 686c1.945 0 3.5 1.555 3.5 3.5 0 .215-.023.418-.062.621A3.476 3.476 0 0 1 1055.5 693a3.484 3.484 0 0 1-3.5-3.5c0-1.945 1.555-3.5 3.5-3.5zm-9.45-.008a1.015 1.015 0 0 0-.628.192S1042 688.605 1042 693c-.004.36.184.695.496.879.313.18.695.18 1.008 0 .312-.184.5-.52.496-.879 0-3.367 2.578-5.184 2.578-5.184.352-.242.512-.687.395-1.101a1.003 1.003 0 0 0-.922-.723zm-6.007-1a1 1 0 0 0-.777.328S1035 689.97 1035 698c-.004.36.184.695.496.879.313.18.695.18 1.008 0 .312-.184.5-.52.496-.879 0-7.34 3.734-11.32 3.734-11.32a1.002 1.002 0 0 0-.691-1.688zM1055.5 684a5.513 5.513 0 0 0-5.5 5.5c0 .52.078 1.02.215 1.492l-13.809 9.973a1.087 1.087 0 0 0-.168.16c-.02.02-.047.023-.066.047 0-.004 0-.004 0 0-1.555 1.55-1.555 4.101 0 5.656 1.55 1.555 4.102 1.555 5.656 0 .278-.277.344-.637.34-.867a1.617 1.617 0 0 0-.11-.54 3.933 3.933 0 0 0-.433-.831 13.44 13.44 0 0 0-1.41-1.762c-.422-.45-.863-.848-1.309-1.2l12.215-8.82a5.486 5.486 0 0 0 4.38 2.192c2.124 0 3.972-1.219 4.89-2.996l2.039 1.187-4.496 2.094a.984.984 0 0 0-.403.344c-1.449.746-2.53 2.137-2.53 3.871 0 .406.1.758.198 1.11a.869.869 0 0 0 .032.3l3.863 14.88-4.64 8.987a.956.956 0 0 0-.114.496c-.156.391-.34.774-.34 1.227 0 1.922 1.578 3.5 3.5 3.5 1.191 0 2.164-.676 2.793-1.594a.988.988 0 0 0 .352-.386l.027-.055a.239.239 0 0 0 .027-.055h.004l4.336-8.71 3.121 8.32c.067.18.184.332.336.449.57 1.152 1.637 2.031 3.004 2.031 1.922 0 3.5-1.578 3.5-3.5 0-.363-.117-.684-.219-1.004a1.05 1.05 0 0 0-.062-.383l-7.625-20.168a.657.657 0 0 0-.059-.117 11.773 11.773 0 0 0-.379-1.726l-1.297-5.004 4.329-2.395c.16-.09.289-.219.378-.375.536-.453.934-1.074.934-1.828 0-.797-.441-1.441-1.031-1.898a.987.987 0 0 0-.348-.336l-11.062-6.364a1.097 1.097 0 0 0-.196-.086 5.44 5.44 0 0 0-2.863-.816z"/></defs><g><g transform="translate(-1035 -684)"><use fill="#1a428a" xlink:href="#s3kaa"/></g></g></svg>