<svg xmlns="http://www.w3.org/2000/svg" xmlns:xlink="http://www.w3.org/1999/xlink" width="26" height="20" viewBox="0 0 26 20"><defs><path id="3nyia" d="M127.174 909.556c.943 0 1.696.74 1.696 1.666 0 .927-.753 1.667-1.696 1.667s-1.696-.74-1.696-1.667c0-.926.753-1.666 1.696-1.666zm-19.217 0c.942 0 1.695.74 1.695 1.666 0 .927-.753 1.667-1.695 1.667-.943 0-1.696-.74-1.696-1.667 0-.926.753-1.666 1.696-1.666zm17.239-4.81c.315.126.737.272 1.519.712 1.015.573 1.991 1.417 2.155 1.997v1.562a2.809 2.809 0 0 0-1.696-.573c-1.36 0-2.508.96-2.773 2.223H110.73c-.265-1.263-1.413-2.223-2.773-2.223-.919 0-1.745.439-2.261 1.112h-.53c.017-.723.035-1.476.159-2.153.154-.85.437-1.56.777-1.91.141-.145.605-.308 1.307-.33 2.583-.078 5.994.89 8.69 1.927.232.09.336.235.336.4V909c0 .306.254.556.565.556h5.652a.567.567 0 0 0 .512-.33zm-14.979-3.368c.223.1.464.233.6.59.35.91.672 1.917.884 2.588a22.804 22.804 0 0 0-1.484-.278zm5.649-6.267c1.771 0 3.316.076 4.553.174a.484.484 0 0 0 .018.052l3.848 8.663-.247.556-3.972-3.89.724-.711a.546.546 0 0 0 .121-.651.565.565 0 0 0-.598-.304.573.573 0 0 0-.335.156l-1.006 1.007a.56.56 0 0 0-.247.226l-1.006.99a.557.557 0 0 0 0 .798.58.58 0 0 0 .812 0l.723-.712 4.29 4.184-1.271 2.795h-4.713v-.954c0-.677-.492-1.205-1.059-1.424a39.7 39.7 0 0 0-3.495-1.163c-.026-.087-.615-1.97-1.13-3.316-.35-.918-1.118-1.274-1.659-1.406v-4.792a56.14 56.14 0 0 1 5.649-.278zm.004-1.111c-4.792 0-8.02.556-8.02.556a.566.566 0 0 0-.459.66c.058.305.36.51.671.45 0 0 .429-.06 1.025-.138v4.583h-2.826v1.111h2.826v2.9a13.533 13.533 0 0 0-1.713-.07c-.835.026-1.577.154-2.085.677-.611.63-.903 1.526-1.077 2.483-.174.957-.212 1.985-.212 2.9 0 .305.254.555.565.555h.618c-.037.18-.053.364-.053.555 0 1.528 1.272 2.778 2.827 2.778 1.36 0 2.508-.96 2.773-2.222h13.67c.266 1.263 1.414 2.222 2.774 2.222 1.554 0 2.826-1.25 2.826-2.778 0-.12-.02-.232-.035-.347a.56.56 0 0 0 .035-.208v-3.334a.584.584 0 0 0-.018-.139c-.318-1.247-1.585-2.059-2.702-2.69a16.129 16.129 0 0 0-1.943-.938l-3.639-8.16c1.239.133 1.979.26 1.979.26a.574.574 0 0 0 .67-.45.566.566 0 0 0-.458-.66s-3.228-.556-8.02-.556z"/></defs><g><g transform="translate(-104 -894)"><use fill="#79a383" xlink:href="#3nyia"/></g></g></svg>