<?xml version="1.0" encoding="UTF-8" standalone="no"?>
<svg width="22px" height="23px" viewBox="0 0 22 23" version="1.1" xmlns="http://www.w3.org/2000/svg" xmlns:xlink="http://www.w3.org/1999/xlink">
    <!-- Generator: Sketch 50.2 (55047) - http://www.bohemiancoding.com/sketch -->
    <title>icons8-calendar</title>
    <desc>Created with Sketch.</desc>
    <defs/>
    <g id="Page-1" stroke="none" stroke-width="1" fill="none" fill-rule="evenodd">
        <g id="00-01-GolfCo-Home-Copy-6" transform="translate(-478.000000, -147.000000)" fill="#CFDDBB" fill-rule="nonzero">
            <g id="icons8-calendar" transform="translate(478.000000, 147.000000)">
                <path d="M4.7826087,0 C4.25951087,0 3.82608696,0.434244792 3.82608696,0.958333333 L3.82608696,1.91666667 L0.956521739,1.91666667 C0.706182304,1.91666667 0.452106217,2.00838204 0.272758391,2.18994165 C0.091542,2.36962915 0,2.62418644 0,2.875 L0,22.0416667 C0,22.2924807 0.091542,22.547038 0.272758391,22.7285971 C0.452106217,22.9082846 0.706182304,23 0.956521739,23 L21.0434783,23 C21.2938182,23 21.5478943,22.9082846 21.7291102,22.7285971 C21.908458,22.547038 22,22.2924807 22,22.0416667 L22,2.875 C22,2.62418644 21.908458,2.36962915 21.7291102,2.18994165 C21.5478943,2.00838204 21.2938182,1.91666667 21.0434783,1.91666667 L18.173913,1.91666667 L18.173913,0.958333333 C18.173913,0.434244792 17.7404891,0 17.2173913,0 L16.2608696,0 C15.7377717,0 15.3043478,0.434244792 15.3043478,0.958333333 L15.3043478,1.91666667 L6.69565217,1.91666667 L6.69565217,0.958333333 C6.69565217,0.434244792 6.26222826,0 5.73913043,0 L4.7826087,0 Z M4.7826087,0.958333333 L5.73913043,0.958333333 L5.73913043,3.83333333 L4.7826087,3.83333333 L4.7826087,0.958333333 Z M16.2608696,0.958333333 L17.2173913,0.958333333 L17.2173913,3.83333333 L16.2608696,3.83333333 L16.2608696,0.958333333 Z M0.956521739,2.875 L3.82608696,2.875 L3.82608696,3.83333333 C3.82608696,4.35742187 4.25951087,4.79166667 4.7826087,4.79166667 L5.73913043,4.79166667 C6.26222826,4.79166667 6.69565217,4.35742187 6.69565217,3.83333333 L6.69565217,2.875 L15.3043478,2.875 L15.3043478,3.83333333 C15.3043478,4.35742187 15.7377717,4.79166667 16.2608696,4.79166667 L17.2173913,4.79166667 C17.7404891,4.79166667 18.173913,4.35742187 18.173913,3.83333333 L18.173913,2.875 L21.0434783,2.875 L21.0434783,6.22916667 L0.956521739,6.22916667 L0.956521739,2.875 Z M0.956521739,7.1875 L21.0434783,7.1875 L21.0434783,22.0416667 L0.956521739,22.0416667 L0.956521739,7.1875 Z M3.82608696,9.10416667 L3.82608696,20.125 L18.173913,20.125 L18.173913,9.10416667 L3.82608696,9.10416667 Z M4.7826087,10.0625 L7.17391304,10.0625 L7.17391304,12.4583333 L4.7826087,12.4583333 L4.7826087,10.0625 Z M8.13043478,10.0625 L10.5217391,10.0625 L10.5217391,12.4583333 L8.13043478,12.4583333 L8.13043478,10.0625 Z M11.4782609,10.0625 L13.8695652,10.0625 L13.8695652,12.4583333 L11.4782609,12.4583333 L11.4782609,10.0625 Z M14.826087,10.0625 L17.2173913,10.0625 L17.2173913,12.4583333 L14.826087,12.4583333 L14.826087,10.0625 Z M4.7826087,13.4166667 L7.17391304,13.4166667 L7.17391304,15.8125 L4.7826087,15.8125 L4.7826087,13.4166667 Z M8.13043478,13.4166667 L10.5217391,13.4166667 L10.5217391,15.8125 L8.13043478,15.8125 L8.13043478,13.4166667 Z M11.4782609,13.4166667 L13.8695652,13.4166667 L13.8695652,15.8125 L11.4782609,15.8125 L11.4782609,13.4166667 Z M14.826087,13.4166667 L17.2173913,13.4166667 L17.2173913,15.8125 L14.826087,15.8125 L14.826087,13.4166667 Z M4.7826087,16.7708333 L7.17391304,16.7708333 L7.17391304,19.1666667 L4.7826087,19.1666667 L4.7826087,16.7708333 Z M8.13043478,16.7708333 L10.5217391,16.7708333 L10.5217391,19.1666667 L8.13043478,19.1666667 L8.13043478,16.7708333 Z M11.4782609,16.7708333 L13.8695652,16.7708333 L13.8695652,19.1666667 L11.4782609,19.1666667 L11.4782609,16.7708333 Z M14.826087,16.7708333 L17.2173913,16.7708333 L17.2173913,19.1666667 L14.826087,19.1666667 L14.826087,16.7708333 Z" id="Shape"/>
            </g>
        </g>
    </g>
</svg>