<svg id="Layer_1" data-name="Layer 1" xmlns="http://www.w3.org/2000/svg" viewBox="0 0 60 75"><defs><style>.cls-1{fill:#1a428a;}</style></defs><title>icons</title><path class="cls-1" d="M49,24.3a2.28,2.28,0,0,1-1.48,1L31.71,28.43,37,42.54l0,.11c2,5.18,2.06,8.69,1.81,10.74L35.69,70.87a2.84,2.84,0,0,1-2.81,2.39,2.49,2.49,0,0,1-.47,0A2.85,2.85,0,0,1,30.06,70L32.92,53.8a5.13,5.13,0,0,0-1.24-4.33L31,48.75,15.61,71.27a2.85,2.85,0,0,1-4.75-3.15l16.29-23.9L21.74,29.73a4.68,4.68,0,0,1,3.05-5.83,5.17,5.17,0,0,1,4.09.17l.23.12,17.52-3.48a2.36,2.36,0,0,1,2.74,1.84A2.27,2.27,0,0,1,49,24.3m-30.77-21a5.76,5.76,0,0,1-3.8,1.92c-.37,0-.6-.09-.67-.26-.37-.85.37-2,1.61-2.57a3.43,3.43,0,0,1,1.31-.28,1.73,1.73,0,0,1,1.67.86.58.58,0,0,1-.12.33m32.6,19a3.85,3.85,0,0,0-3.68-3.1L19,1.35A3.57,3.57,0,0,0,16.7.57,4.76,4.76,0,0,0,14.79,1c-2,.88-3.1,2.92-2.39,4.55a2,2,0,0,0,2,1.17,7.15,7.15,0,0,0,5.06-2.61,2.68,2.68,0,0,0,.24-.48L44.91,19.52,29.32,22.61a6.73,6.73,0,0,0-5.05-.12,6.17,6.17,0,0,0-3.94,7.77L25.46,44,9.61,67.28a4.35,4.35,0,0,0,1.22,6,4.35,4.35,0,0,0,6-1.21L31.12,51.3a3.65,3.65,0,0,1,.32,2.24L28.57,69.7a4.36,4.36,0,0,0,3.6,5,4.17,4.17,0,0,0,.71.06,4.33,4.33,0,0,0,4.29-3.64l3.14-17.5v0c.27-2.21.16-6-1.9-11.47L33.74,29.57l14.09-2.8a3.83,3.83,0,0,0,3-4.51"/><path class="cls-1" d="M49,24.3a2.28,2.28,0,0,1-1.48,1L31.71,28.43,37,42.54l0,.11c2,5.18,2.06,8.69,1.81,10.74L35.69,70.87a2.84,2.84,0,0,1-2.81,2.39,2.49,2.49,0,0,1-.47,0A2.85,2.85,0,0,1,30.06,70L32.92,53.8a5.13,5.13,0,0,0-1.24-4.33L31,48.75,15.61,71.27a2.85,2.85,0,0,1-4.75-3.15l16.29-23.9L21.74,29.73a4.68,4.68,0,0,1,3.05-5.83,5.17,5.17,0,0,1,4.09.17l.23.12,17.52-3.48a2.36,2.36,0,0,1,2.74,1.84A2.27,2.27,0,0,1,49,24.3Zm-30.77-21a5.76,5.76,0,0,1-3.8,1.92c-.37,0-.6-.09-.67-.26-.37-.85.37-2,1.61-2.57a3.43,3.43,0,0,1,1.31-.28,1.73,1.73,0,0,1,1.67.86A.58.58,0,0,1,18.25,3.27Zm32.6,19a3.85,3.85,0,0,0-3.68-3.1L19,1.35A3.57,3.57,0,0,0,16.7.57,4.76,4.76,0,0,0,14.79,1c-2,.88-3.1,2.92-2.39,4.55a2,2,0,0,0,2,1.17,7.15,7.15,0,0,0,5.06-2.61,2.68,2.68,0,0,0,.24-.48L44.91,19.52,29.32,22.61a6.73,6.73,0,0,0-5.05-.12,6.17,6.17,0,0,0-3.94,7.77L25.46,44,9.61,67.28a4.35,4.35,0,0,0,1.22,6,4.35,4.35,0,0,0,6-1.21L31.12,51.3a3.65,3.65,0,0,1,.32,2.24L28.57,69.7a4.36,4.36,0,0,0,3.6,5,4.17,4.17,0,0,0,.71.06,4.33,4.33,0,0,0,4.29-3.64l3.14-17.5v0c.27-2.21.16-6-1.9-11.47L33.74,29.57l14.09-2.8a3.83,3.83,0,0,0,3-4.51Z"/><path class="cls-1" d="M17.51,16.38a4.33,4.33,0,1,1,4.33,4.32,4.33,4.33,0,0,1-4.33-4.32m10.16,0a5.84,5.84,0,1,0-5.83,5.83,5.84,5.84,0,0,0,5.83-5.83"/><path class="cls-1" d="M17.51,16.38a4.33,4.33,0,1,1,4.33,4.32A4.33,4.33,0,0,1,17.51,16.38Zm10.16,0a5.84,5.84,0,1,0-5.83,5.83A5.84,5.84,0,0,0,27.67,16.38Z"/></svg>