<?xml version="1.0" encoding="UTF-8" standalone="no"?>
<svg width="20px" height="20px" viewBox="0 0 20 20" version="1.1" xmlns="http://www.w3.org/2000/svg" xmlns:xlink="http://www.w3.org/1999/xlink">
    <!-- Generator: Sketch 50.2 (55047) - http://www.bohemiancoding.com/sketch -->
    <title>icons8-shopping_cart</title>
    <desc>Created with Sketch.</desc>
    <defs/>
    <g id="Page-1" stroke="none" stroke-width="1" fill="none" fill-rule="evenodd">
        <g id="00-01-GolfCo-Home-Copy-4" transform="translate(-377.000000, -970.000000)" fill="#79A383" fill-rule="nonzero">
            <g id="icons8-shopping_cart" transform="translate(377.000000, 970.000000)">
                <path d="M0.739795918,0 C0.727040816,0.00325541667 0.714285714,0.00813791667 0.701530612,0.0130208333 C0.304528163,0.0699870833 0,0.413411667 0,0.833333333 C0,1.29394542 0.365114694,1.66666667 0.816326531,1.66666667 C1.26753837,1.66666667 1.63265306,1.29394542 1.63265306,0.833333333 L3.53316327,0.833333333 C4.04177306,0.833333333 4.30644122,0.940755417 4.50255102,1.11979167 C4.69547184,1.29720042 4.85172204,1.59667958 4.9872449,2.05729167 L8.25255102,15.5078125 C8.37531878,15.9847004 8.49808694,16.4762371 8.83928571,16.875 C8.98118612,17.0410158 9.15975755,17.1761067 9.375,17.2786458 C9.13584204,17.5683596 8.97959184,17.92806 8.97959184,18.3333333 C8.97959184,19.2496746 9.71460449,20 10.6122449,20 C11.5098853,20 12.244898,19.2496746 12.244898,18.3333333 C12.244898,18.0273438 12.1572065,17.7473958 12.0153061,17.5 L14.5153061,17.5 C14.3734057,17.7473958 14.2857143,18.0273438 14.2857143,18.3333333 C14.2857143,19.2496746 15.0207269,20 15.9183673,20 C16.8160078,20 17.5510204,19.2496746 17.5510204,18.3333333 C17.5510204,17.9052733 17.3804208,17.5227867 17.1173469,17.2265625 C17.1635841,17.0996096 17.1444514,16.9563804 17.0695155,16.8457033 C16.9929849,16.7333983 16.8686224,16.6666667 16.7346939,16.6666667 L10.497449,16.6666667 C9.86766571,16.6666667 9.61096939,16.5299479 9.43877551,16.328125 C9.26817592,16.1279296 9.16454082,15.777995 9.04336735,15.3125 L9.04336735,15.2994792 L8.7627551,14.1666667 L16.25,14.1666667 C16.4205996,14.1666667 16.5752551,14.0576171 16.6326531,13.8932292 L19.5663265,5.9765625 C19.6141584,5.84960958 19.59662,5.70638042 19.5200894,5.59407542 C19.4435588,5.48177083 19.317602,5.41503917 19.1836735,5.41666667 L6.64540816,5.41666667 L5.77806122,1.86197917 C5.77806122,1.85384125 5.77806122,1.84407542 5.77806122,1.8359375 C5.62181143,1.29882833 5.41932408,0.833333333 5.05102041,0.494791667 C4.68271673,0.15625 4.16454082,0 3.53316327,0 L0.816326531,0 C0.803571429,0 0.790816327,0 0.778061224,0 C0.765306122,0 0.75255102,0 0.739795918,0 Z M6.8494898,6.25 L18.5969388,6.25 L15.9693878,13.3333333 L8.57142857,13.3333333 L6.8494898,6.25 Z M10.6122449,17.5 C11.06824,17.5 11.4285714,17.8678388 11.4285714,18.3333333 C11.4285714,18.7988283 11.06824,19.1666667 10.6122449,19.1666667 C10.1562502,19.1666667 9.79591837,18.7988283 9.79591837,18.3333333 C9.79591837,17.8678388 10.1562502,17.5 10.6122449,17.5 Z M15.9183673,17.5 C16.3743624,17.5 16.7346939,17.8678388 16.7346939,18.3333333 C16.7346939,18.7988283 16.3743624,19.1666667 15.9183673,19.1666667 C15.4623727,19.1666667 15.1020408,18.7988283 15.1020408,18.3333333 C15.1020408,17.8678388 15.4623727,17.5 15.9183673,17.5 Z" id="Shape"/>
            </g>
        </g>
    </g>
</svg>