<?xml version="1.0" encoding="UTF-8" standalone="no"?>
<svg width="19px" height="20px" viewBox="0 0 19 20" version="1.1" xmlns="http://www.w3.org/2000/svg" xmlns:xlink="http://www.w3.org/1999/xlink">
    <!-- Generator: Sketch 50.2 (55047) - http://www.bohemiancoding.com/sketch -->
    <title>icons8-light_on</title>
    <desc>Created with Sketch.</desc>
    <defs/>
    <g id="Page-1" stroke="none" stroke-width="1" fill="none" fill-rule="evenodd">
        <g id="00-01-GolfCo-Home-Copy-4" transform="translate(-377.000000, -931.000000)" fill="#79A383" fill-rule="nonzero">
            <g id="icons8-light_on" transform="translate(377.000000, 931.000000)">
                <path d="M9.46127717,0.403645833 C9.44352911,0.40690125 9.42578146,0.41178375 9.40964674,0.416666667 C9.21764596,0.460612083 9.08211607,0.634765833 9.08695652,0.833333333 L9.08695652,2.5 C9.08534317,2.64973958 9.16278883,2.78971375 9.29186491,2.86621083 C9.420941,2.94108083 9.579059,2.94108083 9.70813509,2.86621083 C9.83721117,2.78971375 9.91465683,2.64973958 9.91304348,2.5 L9.91304348,0.833333333 C9.91788393,0.712890833 9.8694802,0.597330833 9.78396739,0.515950417 C9.69684124,0.432942917 9.579059,0.3922525 9.46127717,0.403645833 Z M3.31725543,2.96875 C3.30434783,2.97200542 3.29144022,2.97688792 3.27853261,2.98177083 C3.13009511,3.01269542 3.01069993,3.125 2.96713665,3.27148458 C2.92357337,3.41796875 2.96390954,3.57747417 3.07201087,3.68489583 L4.24660326,4.86979167 C4.34663743,4.99348958 4.50636878,5.05045583 4.66126009,5.01464833 C4.81453804,4.97884125 4.93554698,4.85677083 4.9710427,4.70214833 C5.00653883,4.54589833 4.95006793,4.38476583 4.82744565,4.28385417 L3.65285326,3.09895833 C3.57540761,3.01595042 3.46892004,2.9703775 3.35597826,2.96875 C3.34307065,2.96875 3.33016304,2.96875 3.31725543,2.96875 Z M15.5923913,2.96875 C15.5746432,2.97200542 15.5568956,2.97688792 15.5407609,2.98177083 C15.4665423,3.00130208 15.4003905,3.04199208 15.3471467,3.09895833 L14.1725543,4.28385417 C14.0499321,4.38476583 13.9934612,4.54589833 14.0289573,4.70214833 C14.064453,4.85677083 14.185462,4.97884125 14.3387399,5.01464833 C14.4936312,5.05045583 14.653363,4.99348958 14.7533967,4.86979167 L15.9279891,3.68489583 C16.0570652,3.56119792 16.0941747,3.36751292 16.0183424,3.2047525 C15.9408967,3.04036458 15.7698711,2.94596375 15.5923913,2.96875 Z M9.5,3.75 C6.31182065,3.75 3.7173913,6.3671875 3.7173913,9.58333333 C3.7173913,11.6210938 4.62253726,12.9899087 5.47282609,13.9973958 C5.89877717,14.5003254 6.3102073,14.9267579 6.59578804,15.2994792 C6.88136878,15.6722004 7.02173913,15.9700521 7.02173913,16.25 L7.02173913,17.7213542 C6.966882,17.8369142 6.966882,17.9703775 7.02173913,18.0859375 L7.02173913,18.3333333 C7.02173913,19.0185546 7.58160676,19.5833333 8.26086957,19.5833333 L8.58355978,19.5833333 C8.81105628,19.8372396 9.13536026,20 9.5,20 C9.86464015,20 10.1889437,19.8372396 10.4164402,19.5833333 L10.7391304,19.5833333 C11.4183932,19.5833333 11.9782609,19.0185546 11.9782609,18.3333333 L11.9782609,17.9947917 C11.9895551,17.9394533 11.9895551,17.8808596 11.9782609,17.8255208 L11.9782609,16.25 C11.9782609,15.9700521 12.1186312,15.6689454 12.404212,15.2994792 C12.6897927,14.9300129 13.1012228,14.5117188 13.5271739,14.0104167 C14.3774627,13.0078125 15.2826087,11.6389975 15.2826087,9.58333333 C15.2826087,6.3671875 12.6881793,3.75 9.5,3.75 Z M9.5,4.58333333 C12.2428668,4.58333333 14.4565217,6.81640625 14.4565217,9.58333333 C14.4565217,11.3997396 13.7094938,12.5325521 12.9076087,13.4765625 C12.5074728,13.9485679 12.092816,14.3603517 11.7588315,14.7916667 C11.513587,15.1090496 11.3377209,15.4557292 11.2425272,15.8333333 L7.75747283,15.8333333 C7.66227911,15.4557292 7.48641304,15.1106771 7.24116848,14.7916667 C6.907184,14.3570963 6.49252717,13.9388021 6.0923913,13.4635417 C5.29050622,12.5146483 4.54347826,11.3802083 4.54347826,9.58333333 C4.54347826,6.81640625 6.75713315,4.58333333 9.5,4.58333333 Z M0.709918478,9.16666667 C0.482421978,9.19921875 0.322690217,9.412435 0.354959239,9.64192708 C0.387228261,9.87141917 0.598590457,10.0325521 0.826086957,10 L2.47826087,10 C2.62669837,10.0016275 2.76545537,9.9235025 2.84128726,9.79329417 C2.91550622,9.66308583 2.91550622,9.50358083 2.84128726,9.3733725 C2.76545537,9.24316417 2.62669837,9.16503917 2.47826087,9.16666667 L0.826086957,9.16666667 C0.813179348,9.16666667 0.800271739,9.16666667 0.78736413,9.16666667 C0.774456522,9.16666667 0.761548913,9.16666667 0.748641304,9.16666667 C0.735733696,9.16666667 0.722826087,9.16666667 0.709918478,9.16666667 Z M16.4055707,9.16666667 C16.1780742,9.19921875 16.0183424,9.412435 16.0506114,9.64192708 C16.0828804,9.87141917 16.2942426,10.0325521 16.5217391,10 L18.173913,10 C18.3223505,10.0016275 18.4611075,9.9235025 18.5369394,9.79329417 C18.6111584,9.66308583 18.6111584,9.50358083 18.5369394,9.3733725 C18.4611075,9.24316417 18.3223505,9.16503917 18.173913,9.16666667 L16.5217391,9.16666667 C16.5088315,9.16666667 16.4959239,9.16666667 16.4830163,9.16666667 C16.4701087,9.16666667 16.4572011,9.16666667 16.4442935,9.16666667 C16.4313859,9.16666667 16.4184783,9.16666667 16.4055707,9.16666667 Z M4.49184783,14.1666667 C4.39826787,14.1796875 4.3111413,14.2268879 4.24660326,14.296875 L3.07201087,15.4817708 C2.94938859,15.5826825 2.8929177,15.743815 2.92841383,15.900065 C2.96390954,16.0546875 3.08491848,16.1767579 3.23819643,16.212565 C3.39308774,16.2483725 3.5528195,16.1914063 3.65285326,16.0677083 L4.82744565,14.8828125 C4.95006793,14.7639975 4.98717741,14.5800783 4.92102602,14.4222004 C4.85648798,14.2643229 4.69998291,14.1634117 4.53057065,14.1666667 C4.51766304,14.1666667 4.50475543,14.1666667 4.49184783,14.1666667 Z M14.3790761,14.1666667 C14.2241848,14.1943358 14.0999492,14.3082683 14.0563859,14.4596354 C14.0128226,14.6126304 14.0579992,14.7753908 14.1725543,14.8828125 L15.3471467,16.0677083 C15.4471809,16.1914062 15.6069123,16.2483725 15.7618036,16.212565 C15.9150815,16.1767579 16.0360905,16.0546875 16.0715862,15.900065 C16.1070823,15.743815 16.0506114,15.5826825 15.9279891,15.4817708 L14.7533967,14.296875 C14.6759511,14.2138671 14.5694635,14.1682942 14.4565217,14.1666667 C14.4436141,14.1666667 14.4307065,14.1666667 14.4177989,14.1666667 C14.4048913,14.1666667 14.3919837,14.1666667 14.3790761,14.1666667 Z M7.84782609,16.6666667 L11.1521739,16.6666667 L11.1521739,17.5 L9.08695652,17.5 C9.07404891,17.5 9.0611413,17.5 9.0482337,17.5 C9.03532609,17.5 9.02241848,17.5 9.00951087,17.5 C8.78201437,17.5211588 8.61421546,17.7262371 8.63519022,17.9557292 C8.65616498,18.1852213 8.85946002,18.3544921 9.08695652,18.3333333 L11.1521739,18.3333333 C11.1521739,18.5693358 10.9730807,18.75 10.7391304,18.75 L8.26086957,18.75 C8.02691926,18.75 7.84782609,18.5693358 7.84782609,18.3333333 C7.99626359,18.3349608 8.13502059,18.2568358 8.21085248,18.1266275 C8.28507143,17.9964192 8.28507143,17.8369142 8.21085248,17.7067058 C8.13502059,17.5764975 7.99626359,17.4983725 7.84782609,17.5 L7.84782609,16.6666667 Z" id="Shape"/>
            </g>
        </g>
    </g>
</svg>