<?xml version="1.0" encoding="UTF-8" standalone="no"?>
<svg width="19px" height="20px" viewBox="0 0 19 20" version="1.1" xmlns="http://www.w3.org/2000/svg" xmlns:xlink="http://www.w3.org/1999/xlink">
    <!-- Generator: Sketch 50.2 (55047) - http://www.bohemiancoding.com/sketch -->
    <title>icons8-spinning</title>
    <desc>Created with Sketch.</desc>
    <defs/>
    <g id="Page-1" stroke="none" stroke-width="1" fill="none" fill-rule="evenodd">
        <g id="00-01-GolfCo-Home-Copy-4" transform="translate(-377.000000, -1008.000000)" fill="#79A383" fill-rule="nonzero">
            <g id="icons8-spinning" transform="translate(377.000000, 1008.000000)">
                <path d="M15.7150136,0.41178375 C15.5633494,0.40690125 15.4213657,0.483398333 15.34392,0.615234583 L14.593665,1.84570333 L11.424847,2.99316417 C11.2328467,3.06315125 11.1199049,3.26497417 11.1602411,3.46679708 L12.3203125,9.26757833 C11.0230978,9.55891917 9.95499341,10.4638671 9.43384861,11.6666667 L4.84842041,11.6666667 L3.45117198,7.08333333 L4.30630085,7.08333333 C4.77581522,7.08333333 5.10818635,6.73502625 5.24694293,6.30696625 C5.32600193,6.22884125 5.36956522,6.12141917 5.36956522,6.01074208 C5.36956522,5.46386708 4.95006793,4.996745 4.40956172,4.94466167 L1.73607337,4.68261708 C1.64894722,4.67285167 1.563434,4.67285167 1.4779212,4.68261708 C0.890625,4.74934917 0.413043478,5.25878917 0.413043478,5.87890625 C0.413043478,5.99121083 0.456606761,6.09700542 0.535665761,6.17675792 C0.680876565,6.6764325 1.06649107,7.08333333 1.60699728,7.08333333 L2.5863622,7.08333333 L3.98683774,11.6731771 C2.68962307,11.7496746 1.65217391,12.8401692 1.65217391,14.1666667 C1.65217391,15.2880858 2.39274807,16.2418621 3.40599535,16.5559896 L1.85224185,18.75 L0.826086957,18.75 C0.677649457,18.7483725 0.53889287,18.8264975 0.463060565,18.9567058 C0.388841609,19.0869142 0.388841609,19.2464192 0.463060565,19.3766275 C0.53889287,19.5068358 0.677649457,19.5849608 0.826086957,19.5833333 L2.05553689,19.5833333 C2.06360404,19.5833333 2.07328454,19.5833333 2.08135211,19.5833333 L3.30434783,19.5833333 C3.45278533,19.5849608 3.59154233,19.5068358 3.66737422,19.3766275 C3.74159317,19.2464192 3.74159317,19.0869142 3.66737422,18.9567058 C3.59154233,18.8264975 3.45278533,18.7483725 3.30434783,18.75 L2.86871624,18.75 L4.35470459,16.6520183 C4.47894022,16.640625 4.62092391,16.6227213 4.80324378,16.5966796 C5.10495924,16.5543621 5.482507,16.4925129 5.91329813,16.4192708 C6.77326787,16.2727867 7.84137228,16.0758463 8.89818285,15.8756513 C9.23216733,15.8121746 9.49515954,15.7584638 9.82107687,15.6966146 C10.5648777,16.7838542 11.810462,17.5 13.2173913,17.5 C13.7659647,17.5 14.2871095,17.3893229 14.7663043,17.1923829 L16.0522248,18.75 L15.6956522,18.75 C15.5472147,18.7483725 15.4084581,18.8264975 15.3326258,18.9567058 C15.2584068,19.0869142 15.2584068,19.2464192 15.3326258,19.3766275 C15.4084581,19.5068358 15.5472147,19.5849608 15.6956522,19.5833333 L16.8589503,19.5833333 C16.9138078,19.5947267 16.968665,19.5947267 17.0235225,19.5833333 L18.173913,19.5833333 C18.3223505,19.5849608 18.4611075,19.5068358 18.5369394,19.3766275 C18.6111584,19.2464192 18.6111584,19.0869142 18.5369394,18.9567058 C18.4611075,18.8264975 18.3223505,18.7483725 18.173913,18.75 L17.1283967,18.75 L15.5133323,16.7952475 C16.6185462,16.0449221 17.3478261,14.7737629 17.3478261,13.3333333 C17.3478261,11.0367838 15.4939709,9.16666667 13.2173913,9.16666667 C13.1931894,9.16666667 13.1673742,9.16829417 13.1431728,9.16829417 L12.0411856,3.65559917 L15.0099356,2.5797525 C15.0970617,2.54720042 15.172894,2.48697917 15.2212978,2.40559917 L16.0473847,1.0514325 C16.1264437,0.926106667 16.1328975,0.766601667 16.063519,0.634765833 C15.9957543,0.502929583 15.8618377,0.416666667 15.7150136,0.41178375 Z M1.64733346,5.51106792 C1.64894722,5.51106792 1.65056057,5.51106792 1.65217391,5.51269542 L4.33050272,5.77473958 C4.45473835,5.78613292 4.54347826,5.88541667 4.54347826,6.01074208 C4.54347826,6.14908875 4.4434445,6.25 4.30630085,6.25 L2.95422904,6.25 C2.93002717,6.246745 2.90743907,6.24348958 2.88485054,6.24348958 C2.86387578,6.24511708 2.84451437,6.246745 2.82353961,6.25 L1.60699728,6.25 C1.3988622,6.25 1.23913043,6.08886708 1.23913043,5.87890625 C1.23913043,5.65266917 1.42306407,5.48665375 1.64733346,5.51106792 Z M13.2173913,10 C15.047045,10 16.5217391,11.4876304 16.5217391,13.3333333 C16.5217391,14.5898438 15.8376359,15.6787108 14.8243886,16.2483725 C14.7243548,16.2581379 14.6323878,16.3037108 14.5646231,16.3769533 C14.1531929,16.5608725 13.6981999,16.6666667 13.2173913,16.6666667 C12.2202787,16.6666667 11.3312671,16.2207033 10.7262228,15.5192058 C11.0779554,15.4492188 11.5039065,15.3694663 11.8040082,15.3076171 C12.2089845,15.2262371 12.5542628,15.15625 12.8156421,15.1009117 C13.0754076,15.0455729 13.2270722,15.0146483 13.3319464,14.9837242 C13.6981999,14.8779296 14.059613,14.7216796 14.356488,14.4580079 C14.653363,14.1943358 14.8695652,13.7972004 14.8695652,13.3333333 C14.8695652,12.4169921 14.1257644,11.6666667 13.2173913,11.6666667 L10.3567426,11.6666667 C10.9262908,10.6705729 11.9911685,10 13.2173913,10 Z M4.13043478,12.5 L4.44828454,12.5 C4.51443635,12.5162762 4.58220109,12.5162762 4.64835248,12.5 L13.2173913,12.5 C13.6788385,12.5 14.0434783,12.8678387 14.0434783,13.3333333 C14.0434783,13.5611979 13.9692597,13.6914062 13.8111413,13.8330079 C13.6514095,13.9746096 13.3948711,14.0983075 13.1028362,14.1829429 C13.0915423,14.1861979 12.9011549,14.2317708 12.6446161,14.2854817 C12.389691,14.3391929 12.046026,14.4108075 11.642663,14.4921875 C10.8375508,14.6533204 9.796875,14.8567708 8.74490489,15.0569663 C7.69293478,15.2571617 6.62805707,15.4524742 5.77615489,15.5973308 C5.3502038,15.6705729 4.9774965,15.7307942 4.68868907,15.7714846 C4.41601552,15.8105471 4.22240139,15.8284504 4.16109046,15.8300783 C4.1530233,15.8300783 4.14495574,15.8284504 4.13688859,15.8284504 C4.12236763,15.8284504 4.10946002,15.8284504 4.09816576,15.8300783 C4.09655241,15.8300783 4.09493907,15.8300783 4.09493907,15.8300783 C3.19463315,15.8105471 2.47826087,15.0797525 2.47826087,14.1666667 C2.47826087,13.2421875 3.21399457,12.5 4.13043478,12.5 Z M4.13043478,13.3333333 C3.67382802,13.3333333 3.30434783,13.7060546 3.30434783,14.1666667 C3.30434783,14.6272788 3.67382802,15 4.13043478,15 C4.42569643,15 4.69675622,14.840495 4.84519372,14.5833333 L7.02173913,14.5833333 C7.17017663,14.5849608 7.30893363,14.5068358 7.38476552,14.3766275 C7.45898448,14.2464192 7.45898448,14.0869142 7.38476552,13.9567058 C7.30893363,13.8264975 7.17017663,13.7483725 7.02173913,13.75 L4.84519372,13.75 C4.69836957,13.4928388 4.42569643,13.3333333 4.13043478,13.3333333 Z" id="Shape"/>
            </g>
        </g>
    </g>
</svg>