<?xml version="1.0" encoding="UTF-8" standalone="no"?>
<svg width="20px" height="20px" viewBox="0 0 20 20" version="1.1" xmlns="http://www.w3.org/2000/svg" xmlns:xlink="http://www.w3.org/1999/xlink">
    <!-- Generator: Sketch 50.2 (55047) - http://www.bohemiancoding.com/sketch -->
    <title>icons8-restaurant</title>
    <desc>Created with Sketch.</desc>
    <defs/>
    <g id="Page-1" stroke="none" stroke-width="1" fill="none" fill-rule="evenodd">
        <g id="00-01-GolfCo-Home-Copy-4" transform="translate(-107.000000, -1011.000000)" fill="#79A383" fill-rule="nonzero">
            <g id="icons8-restaurant" transform="translate(107.000000, 1011.000000)">
                <path d="M16.6063596,0.110212143 C16.42818,0.124162857 16.2513705,0.184151786 16.0951207,0.291573571 L11.3322368,3.57700893 C10.6592653,4.04017857 10.3892544,4.90513393 10.6743421,5.68080357 L11.1499453,6.97405143 L9.37362947,8.62444214 L1.65433123,0.767299286 C1.51041684,0.62221 1.30482456,0.553850357 1.10471509,0.5873325 C0.904605263,0.620814643 0.730537193,0.750558214 0.640076842,0.93471 C-0.509868421,3.27706464 -0.0603070175,6.092355 1.75849789,7.94363857 L5.74150211,11.9991629 L0.996436491,16.4104354 C0.638706316,16.7410714 0.435855439,17.1958707 0.424890526,17.6883371 C0.413925614,18.1808036 0.596217193,18.6425782 0.938870526,18.9913504 L1.34320175,19.4029018 C1.67489053,19.7405136 2.11348702,19.9260604 2.58223684,19.9260604 C2.59457228,19.9260604 2.60964912,19.9246654 2.62198456,19.9246654 C3.10581158,19.9135046 3.55126105,19.7070314 3.87746702,19.3429129 L9.11869509,13.5016743 L14.5189144,19.3540736 C14.8478618,19.7098214 15.2919407,19.9093193 15.7716558,19.9162946 L15.7990681,19.9162946 C16.2678179,19.9162946 16.7064144,19.7321429 17.0394737,19.3931361 L17.4698467,18.9550782 C17.8097589,18.6104911 17.9920505,18.1501118 17.9838267,17.6618304 C17.9756032,17.1749443 17.7782347,16.7215404 17.4287281,16.3881139 L11.5501646,10.7924107 L13.1469298,9.01227679 L14.375,9.50195321 C14.5860747,9.58565857 14.8040021,9.62611607 15.0191888,9.62611607 C15.5852523,9.62611607 16.1307565,9.34430821 16.4651863,8.84207607 L19.7135418,3.97600464 C19.9958881,3.5518975 19.9424344,2.97991071 19.5860747,2.6171875 L17.4287281,0.421317143 C17.2066888,0.1939175 16.9037828,0.0878907143 16.6063596,0.110212143 Z M16.7187502,0.823102857 C16.7982456,0.831473214 16.8736295,0.866350357 16.9339365,0.926339286 L17.2683663,1.26674107 L13.7938596,4.8032925 C13.6567982,4.94280143 13.6567982,5.16741071 13.7938596,5.30691964 C13.8623905,5.37667429 13.9528509,5.41294643 14.0419407,5.41294643 C14.1324014,5.41294643 14.2228618,5.37667429 14.2913926,5.30691964 L17.7631579,1.77176357 L18.2606909,2.27678571 L14.7861842,5.81333714 C14.6491228,5.95284607 14.6491228,6.17745536 14.7861842,6.31696429 C14.8547151,6.38671893 14.9438049,6.42299107 15.0342653,6.42299107 C15.124726,6.42299107 15.2138158,6.38671893 15.2823467,6.31696429 L18.7554825,2.78180821 L19.0899123,3.12221 C19.2091558,3.2435825 19.2269737,3.43471 19.1324014,3.57561393 L15.8854168,8.44168536 C15.6071821,8.85742179 15.0918312,9.0206475 14.6313049,8.83789071 L13.1770835,8.25892857 C13.1757126,8.25753357 13.1729716,8.25753357 13.1716011,8.25753357 C13.1441888,8.24637286 13.1154056,8.24497786 13.0866228,8.2421875 C13.0688049,8.2393975 13.0523575,8.23242179 13.0372807,8.23381714 C13.0153509,8.23521214 12.9947916,8.2435825 12.9742326,8.24776786 C12.9509319,8.25334821 12.9276316,8.25613857 12.9057018,8.26450893 C12.8919958,8.27148429 12.8810309,8.28404036 12.8673246,8.29241071 C12.8426537,8.30915179 12.8166119,8.32310286 12.7960526,8.34681929 C12.7933116,8.34821429 12.7919407,8.34821429 12.7905702,8.34960929 L11.0375547,10.3027343 L10.7990681,10.07673 L9.86979158,9.12946429 L11.7982456,7.33816964 C11.7982456,7.33816964 11.7982456,7.33816964 11.7996161,7.33677464 C11.8270284,7.31026786 11.8475877,7.27818071 11.8654056,7.24469857 C11.8695175,7.23772321 11.8763705,7.23074786 11.8804825,7.2237725 C11.8914474,7.19866071 11.8941888,7.16936393 11.8996712,7.14146214 C11.9024123,7.12472107 11.9106361,7.10798 11.9120067,7.09123893 C11.9120067,7.08007821 11.9078947,7.0689175 11.9065242,7.05915179 C11.9051537,7.02287964 11.9024123,6.98660714 11.8900768,6.953125 C11.8900768,6.95173 11.8900768,6.95173 11.8900768,6.950335 L11.3308663,5.4296875 C11.1595396,4.96512286 11.3226425,4.44614964 11.7269737,4.16852679 L16.488487,0.884486786 C16.5583881,0.835658571 16.6392544,0.816127143 16.7187502,0.823102857 Z M1.22532912,1.34207607 L9.96436421,10.23577 L6.88185298,11.8052457 C6.74753298,11.873605 6.58442982,11.8470982 6.47752211,11.7382814 L6.09100877,11.3448661 L6.58717123,10.8398439 C6.72423263,10.700335 6.72423263,10.4743304 6.58717123,10.3348214 C6.45010982,10.1953125 6.22807018,10.1953125 6.09100877,10.3348214 L5.59484667,10.8398439 L4.85060316,10.0823104 L5.34676526,9.57589286 C5.48382667,9.43638393 5.48382667,9.21037964 5.34676526,9.07226571 C5.20970386,8.93136179 4.98766456,8.93136179 4.85060316,9.07226571 L4.3544407,9.57728786 L3.60882667,8.81835929 L4.10635965,8.31473214 C4.24342105,8.17382821 4.24342105,7.94921893 4.10635965,7.80831464 C3.96792772,7.66880571 3.74725895,7.66880571 3.60882667,7.80831464 L3.11403509,8.31473214 L2.36842105,7.55580357 L2.86595404,7.05217643 C3.00301544,6.9112725 3.00301544,6.68666286 2.86595404,6.54575893 C2.72752211,6.40625 2.50685298,6.40625 2.36842105,6.54575893 L1.8955593,7.029855 C1.66529614,6.74246643 1.46655719,6.43694214 1.30208351,6.11607143 L1.62417754,5.78822536 C1.76260982,5.64871643 1.76260982,5.42410714 1.62417754,5.28459821 C1.48711614,5.14369429 1.26644737,5.14369429 1.12938596,5.28459821 L1.00466,5.41015643 C0.55784,4.10574786 0.614035088,2.64508929 1.22532912,1.34207607 Z M10.4947916,10.7645089 L16.9490133,16.9098771 C17.1587172,17.109375 17.2779607,17.3814175 17.2820723,17.6743861 C17.2875547,17.967355 17.1779056,18.2435825 16.9736842,18.4500557 L16.5433116,18.8895089 C16.3404607,19.0959821 16.064967,19.2089843 15.7826207,19.2020089 C15.4947916,19.1978236 15.2288926,19.0778461 15.0315242,18.8657925 L8.49643649,11.7829243 L10.4947916,10.7645089 Z M7.83991228,12.1163504 L8.63623895,12.9799107 L3.36074561,18.8616071 C3.16474772,19.0792411 2.89747825,19.2034039 2.60690807,19.2103796 C2.31496702,19.2145646 2.04358561,19.1057479 1.83799333,18.8964843 L1.43503298,18.4863282 C1.2294407,18.2770646 1.11979158,17.9994421 1.12664491,17.7036832 C1.13349789,17.4079243 1.25548246,17.1358818 1.46929825,16.9363839 L6.28837719,12.4581475 C6.57346491,12.5906807 6.90652421,12.5920761 7.19709439,12.4441964 L7.83991228,12.1163504 Z M12.5424891,13.6607143 C12.4533993,13.6607143 12.3629386,13.6969868 12.2944081,13.7667411 C12.1573467,13.90625 12.1573467,14.1322546 12.2944081,14.2717636 L12.8782895,14.8660714 C12.9468204,14.9344307 13.0359102,14.9707032 13.1263705,14.9707032 C13.2168312,14.9707032 13.3059211,14.9344307 13.3744519,14.8660714 C13.5115133,14.7265625 13.5115133,14.5005582 13.3744519,14.3610493 L12.7905702,13.7667411 C12.7220396,13.6969868 12.6315789,13.6607143 12.5424891,13.6607143 Z M14.1954495,15.3445871 C14.1063596,15.3445871 14.0158993,15.3794643 13.9473684,15.4492189 C13.810307,15.5887279 13.810307,15.8147321 13.9473684,15.9542411 L15.9786186,18.0217636 C16.0471491,18.0915179 16.1362389,18.126395 16.2266996,18.126395 C16.31716,18.126395 16.4062502,18.0915179 16.4747807,18.0217636 C16.6118421,17.8822546 16.6118421,17.65625 16.4747807,17.5167411 L14.4435309,15.4492189 C14.375,15.3794643 14.2845396,15.3445871 14.1954495,15.3445871 Z" id="Shape"/>
            </g>
        </g>
    </g>
</svg>