<?xml version="1.0" encoding="UTF-8"?>
<svg xmlns="http://www.w3.org/2000/svg" viewBox="0 0 50 50" fill="#000000"><path style="line-height:normal;text-indent:0;text-align:start;text-decoration-line:none;text-decoration-style:solid;text-decoration-color:#000;text-transform:none;block-progression:tb;isolation:auto;mix-blend-mode:normal" d="M 9 4 C 6.2504839 4 4 6.2504839 4 9 L 4 41 C 4 43.749516 6.2504839 46 9 46 L 41 46 C 43.749516 46 46 43.749516 46 41 L 46 9 C 46 6.2504839 43.749516 4 41 4 L 9 4 z M 9 6 L 41 6 C 42.668484 6 44 7.3315161 44 9 L 44 41 C 44 42.668484 42.668484 44 41 44 L 9 44 C 7.3315161 44 6 42.668484 6 41 L 6 9 C 6 7.3315161 7.3315161 6 9 6 z M 21 12 C 19.906937 12 19 12.906937 19 14 L 19 28 C 19 29.093063 19.906937 30 21 30 L 37 30 C 38.093063 30 39 29.093063 39 28 L 39 14 C 39 12.906937 38.093063 12 37 12 L 21 12 z M 21 14 L 37 14 L 37 16 L 21 16 L 21 14 z M 21 18 L 37 18 L 37 28 L 21 28 L 21 18 z M 14 20 C 12.906937 20 12 20.906937 12 22 L 12 36 C 12 37.093063 12.906937 38 14 38 L 30 38 C 31.093063 38 32 37.093063 32 36 L 32 31 L 30 31 L 30 36 L 14 36 L 14 26 L 18 26 L 18 24 L 14 24 L 14 22 L 18 22 L 18 20 L 14 20 z" font-weight="400" font-family="sans-serif" white-space="normal" overflow="visible" fill="#000000"/></svg>