<svg id="Layer_1" data-name="Layer 1" xmlns="http://www.w3.org/2000/svg" viewBox="0 0 71.06 75"><defs><style>.cls-1{fill:none;}.cls-2{fill:#1a428a;}</style></defs><title>icons</title><polygon class="cls-1" points="66.44 35.67 66.44 35.67 66.44 35.67 66.44 35.67"/><path class="cls-2" d="M66.29,35.41a.19.19,0,0,1,0-.07s0-.06,0-.09l0-.06a.83.83,0,0,0,0-.13V35A30.78,30.78,0,0,0,36.74,4.16h-.26V1.37a1,1,0,1,0-1.95,0V4.15h-.26A30.79,30.79,0,0,0,4.62,35l0,.17,0,.09,0,.07a.41.41,0,0,0,0,.08l.06.08,0,.07a1,1,0,0,0,.12.15l0,0,.12.06a.6.6,0,0,0,.15.09l.18,0,.14,0h.07l.2,0,.16,0,.09-.06.06,0,.15-.12.06-.06a8.74,8.74,0,0,1,6.71-3.36,8.75,8.75,0,0,1,6.72,3.39.13.13,0,0,1,.07,0l.07.09.14.08.12.06a.59.59,0,0,0,.23.05l.13,0,.11,0,.08,0,.18,0a.35.35,0,0,0,.13-.08l.1-.05.05-.06.09-.08A8.79,8.79,0,0,1,28,32.24a8.66,8.66,0,0,1,6.43,3.06l.07.08V68.65a4,4,0,0,1-8,0,1,1,0,0,0-2,0,6,6,0,0,0,11.92,0V35.38l.07-.08A8.66,8.66,0,0,1,43,32.24a8.77,8.77,0,0,1,6.73,3.39l.06,0,.09.1.09,0a.7.7,0,0,0,.16.09.56.56,0,0,0,.23.05l.12,0h.11l.08,0,.18,0a.39.39,0,0,0,.14-.08l.1-.05.08-.09.06-.05a8.37,8.37,0,0,1,13.45,0,1.31,1.31,0,0,0,.28.2l.07.06a.87.87,0,0,0,.74,0l.14-.07.08-.05,0,0,0,0a1.53,1.53,0,0,0,.14-.17l.27.09h0l-.22-.16Zm-2.44-3.17a10.05,10.05,0,0,0-13.2,1.14l-.19.18-.19-.18a10.14,10.14,0,0,0-14.58,0l-.19.18-.19-.18a10.13,10.13,0,0,0-14.57,0l-.19.18-.19-.18a10.31,10.31,0,0,0-7.28-3.09,10.23,10.23,0,0,0-5.92,2l-.49.35.06-.6a28.93,28.93,0,0,1,57.55,0l.06.6Z"/></svg>