<svg id="Layer_1" data-name="Layer 1" xmlns="http://www.w3.org/2000/svg" viewBox="0 0 151 96"><defs><style>.cls-1{fill:none;}.cls-2{fill:#1a428a;}</style></defs><title>icons</title><polygon class="cls-1" points="106.41 46.33 106.41 46.33 106.41 46.33 106.41 46.33"/><path class="cls-2" d="M106.26,46.06a.41.41,0,0,1,0-.07.19.19,0,0,1,0-.08l0-.06a.83.83,0,0,0,0-.13v-.09A30.78,30.78,0,0,0,76.71,14.82h-.26V12a1,1,0,0,0-2,0v2.79h-.26A30.78,30.78,0,0,0,44.59,45.66l0,.18,0,.08,0,.08s0,0,0,.07a.41.41,0,0,0,0,.09l0,.07.12.15,0,0,.12.06.16.09.17,0a.49.49,0,0,1,.15,0h.07a.72.72,0,0,0,.19,0l.17-.05.09-.06.06,0,.15-.11.06-.06a8.37,8.37,0,0,1,13.43,0s0,0,.07,0l.07.09.14.08.12.06a.78.78,0,0,0,.23,0l.13,0h.11l.08,0,.18-.05a.57.57,0,0,0,.13-.08l.1,0,0-.07.09-.07A8.34,8.34,0,0,1,74.43,46l.07.08V79.31a4,4,0,0,1-8,0,1,1,0,1,0-2,0,6,6,0,0,0,11.92,0V46l.07-.08a8.33,8.33,0,0,1,13.16.33l.06,0,.09.1.09,0,.16.09a.78.78,0,0,0,.23,0l.12,0h.11l.08,0,.18-.05a.39.39,0,0,0,.14-.08.31.31,0,0,1,.1,0,.28.28,0,0,1,.08-.09l.06,0a8.37,8.37,0,0,1,13.45,0,1.31,1.31,0,0,0,.28.2l.07,0a.88.88,0,0,0,.74,0l.14-.08.08,0,0,0,0,0a.94.94,0,0,0,.14-.16l.27.09h0l-.22-.16Zm-2.44-3.16A10.23,10.23,0,0,0,97.9,41,10.34,10.34,0,0,0,90.62,44l-.19.19L90.24,44a10.17,10.17,0,0,0-14.58,0l-.19.19L75.28,44a10.16,10.16,0,0,0-14.57,0l-.19.19L60.33,44A10.34,10.34,0,0,0,53.05,41a10.23,10.23,0,0,0-5.92,1.95l-.5.35.07-.6a28.93,28.93,0,0,1,57.55,0l.06.6Z"/></svg>