<svg id="Layer_1" data-name="Layer 1" xmlns="http://www.w3.org/2000/svg" viewBox="0 0 73.93 75"><defs><style>.cls-1{fill:#1a428a;}</style></defs><title>icons</title><path class="cls-1" d="M52.46,46.23l-1.22-.08c-3.07-.21-4.19-1.53-5.61-3.22a12,12,0,0,0-8.22-4.83A46.43,46.43,0,0,0,26,37.64l.14,1.59a45,45,0,0,1,11,.45A10.41,10.41,0,0,1,44.35,44c1.48,1.74,3,3.55,6.78,3.8l1.22.08c8.71.57,19.54,1.28,19.54,5.88,0,3.56-3.6,7.11-9.88,9.74-6.6,2.75-15.38,4.27-24.74,4.27-8.24,0-11.78-2.58-14.9-4.86a16.58,16.58,0,0,0-6.69-3.41l-1.09-.22C6.74,57.65,2.65,56.68,2.65,53.71c0-4.81,6.29-10.22,15-12.86l-.5-1.53C7.63,42.21,1,48.12,1,53.71c0,4.41,5.27,5.48,13.26,7.09l1.08.22a15,15,0,0,1,6,3.13c3.33,2.42,7.1,5.17,15.89,5.17,20.34,0,36.27-6.86,36.27-15.61,0-6.1-11.2-6.83-21.08-7.48"/><path class="cls-1" d="M52.46,46.23l-1.22-.08c-3.07-.21-4.19-1.53-5.61-3.22a12,12,0,0,0-8.22-4.83A46.43,46.43,0,0,0,26,37.64l.14,1.59a45,45,0,0,1,11,.45A10.41,10.41,0,0,1,44.35,44c1.48,1.74,3,3.55,6.78,3.8l1.22.08c8.71.57,19.54,1.28,19.54,5.88,0,3.56-3.6,7.11-9.88,9.74-6.6,2.75-15.38,4.27-24.74,4.27-8.24,0-11.78-2.58-14.9-4.86a16.58,16.58,0,0,0-6.69-3.41l-1.09-.22C6.74,57.65,2.65,56.68,2.65,53.71c0-4.81,6.29-10.22,15-12.86l-.5-1.53C7.63,42.21,1,48.12,1,53.71c0,4.41,5.27,5.48,13.26,7.09l1.08.22a15,15,0,0,1,6,3.13c3.33,2.42,7.1,5.17,15.89,5.17,20.34,0,36.27-6.86,36.27-15.61C73.54,47.61,62.34,46.88,52.46,46.23Z"/><path class="cls-1" d="M14.32,62.84l-1.27-.26c-4.77-1-8.53-1.73-11-2.87l-.7,1.45c2.65,1.22,6.5,2,11.37,3l1.27.26c2.88.58,4.84,2,7.1,3.66a28.62,28.62,0,0,0,8.1,4.52l.54-1.51a27,27,0,0,1-7.65-4.29c-2.32-1.69-4.51-3.29-7.75-4"/><path class="cls-1" d="M14.32,62.84l-1.27-.26c-4.77-1-8.53-1.73-11-2.87l-.7,1.45c2.65,1.22,6.5,2,11.37,3l1.27.26c2.88.58,4.84,2,7.1,3.66a28.62,28.62,0,0,0,8.1,4.52l.54-1.51a27,27,0,0,1-7.65-4.29C19.75,65.1,17.56,63.5,14.32,62.84Z"/><path class="cls-1" d="M39.52,72.48A35.72,35.72,0,0,1,33.24,72l-.3,1.57a37.2,37.2,0,0,0,6.58.54c1.13,0,2.27,0,3.38-.06l-.06-1.6c-1.09,0-2.21.06-3.32.06"/><path class="cls-1" d="M39.52,72.48A35.72,35.72,0,0,1,33.24,72l-.3,1.57a37.2,37.2,0,0,0,6.58.54c1.13,0,2.27,0,3.38-.06l-.06-1.6C41.75,72.46,40.63,72.48,39.52,72.48Z"/><path class="cls-1" d="M21.74,52.6H20.07V2.86h1.67V52.6ZM47.61,14.65H23.39V5Zm-24.22,1.6H47.61L23.39,25.89Zm0,11.37L54,15.45,23.39,3.29v-2h-5V54.2h5Z"/><path class="cls-1" d="M32.37,49.93c3.62,0,6.33,1.3,6.33,2.46S36,54.85,32.37,54.85,26,53.55,26,52.39s2.71-2.46,6.33-2.46m0,6.52c4.55,0,8-1.75,8-4.06s-3.43-4.06-8-4.06-8,1.74-8,4.06,3.43,4.06,8,4.06"/><path class="cls-1" d="M32.37,49.93c3.62,0,6.33,1.3,6.33,2.46S36,54.85,32.37,54.85,26,53.55,26,52.39,28.75,49.93,32.37,49.93Zm0,6.52c4.55,0,8-1.75,8-4.06s-3.43-4.06-8-4.06-8,1.74-8,4.06S27.82,56.45,32.37,56.45Z"/></svg>