<?xml version="1.0" encoding="UTF-8" standalone="no"?>
<svg width="30px" height="12px" viewBox="0 0 30 12" version="1.1" xmlns="http://www.w3.org/2000/svg" xmlns:xlink="http://www.w3.org/1999/xlink">
    <!-- Generator: Sketch 50.2 (55047) - http://www.bohemiancoding.com/sketch -->
    <title>icons8-wind_speed_48_52</title>
    <desc>Created with Sketch.</desc>
    <defs/>
    <g id="Page-1" stroke="none" stroke-width="1" fill="none" fill-rule="evenodd">
        <g id="00-01-GolfCo-Home-Copy-6" transform="translate(-628.000000, -153.000000)" fill="#CFDDBB" fill-rule="nonzero">
            <g id="icons8-wind_speed_48_52" transform="translate(628.000000, 153.000000)">
                <path d="M0,0 L0,8.43343653 L21.65625,8.43343653 C21.9492186,10.4442727 23.690625,12 25.8,12 C28.1132814,12 30,10.1308051 30,7.83900929 C30,5.54721347 28.1132814,3.67801858 25.8,3.67801858 C23.690625,3.67801858 21.9492186,5.23374643 21.65625,7.24458204 L5.1,7.24458204 L1.0875,1.56037152 L0,0 Z M25.8,4.86687307 C27.4640628,4.86687307 28.8,6.19040277 28.8,7.83900929 C28.8,9.4876164 27.4640628,10.8111455 25.8,10.8111455 C24.1359378,10.8111455 22.8,9.4876164 22.8,7.83900929 C22.8,6.19040277 24.1359378,4.86687307 25.8,4.86687307 Z" id="Shape"/>
            </g>
        </g>
    </g>
</svg>