<svg id="Layer_1" data-name="Layer 1" xmlns="http://www.w3.org/2000/svg" viewBox="0 0 151 96"><defs><style>.cls-1{fill:#1a428a;}</style></defs><title>icons</title><path class="cls-1" d="M94.52,34.8a2.28,2.28,0,0,1-1.48,1L77.21,38.93,82.47,53l0,.11c1.95,5.18,2.06,8.69,1.81,10.74L81.19,81.37a2.84,2.84,0,0,1-2.81,2.39,2.49,2.49,0,0,1-.47,0,2.85,2.85,0,0,1-2.35-3.27L78.42,64.3A5.13,5.13,0,0,0,77.18,60l-.64-.72L61.11,81.77a2.85,2.85,0,0,1-4.75-3.15l16.29-23.9L67.24,40.23a4.68,4.68,0,0,1,3.05-5.83,5.17,5.17,0,0,1,4.09.17l.23.12,17.52-3.48a2.36,2.36,0,0,1,2.74,1.84,2.27,2.27,0,0,1-.35,1.75m-30.77-21A5.76,5.76,0,0,1,60,15.69c-.37,0-.6-.09-.67-.26-.37-.85.37-2,1.61-2.57a3.43,3.43,0,0,1,1.31-.28,1.73,1.73,0,0,1,1.67.86.58.58,0,0,1-.12.33m32.6,19a3.85,3.85,0,0,0-3.68-3.1L64.5,11.85a3.57,3.57,0,0,0-2.3-.78,4.76,4.76,0,0,0-1.91.41c-2,.88-3.1,2.92-2.39,4.55A2,2,0,0,0,60,17.2,7.15,7.15,0,0,0,65,14.59a2.68,2.68,0,0,0,.24-.48L90.41,30,74.82,33.11a6.73,6.73,0,0,0-5-.12,6.17,6.17,0,0,0-3.94,7.77L71,54.52,55.11,77.78a4.35,4.35,0,0,0,1.22,6,4.35,4.35,0,0,0,6-1.21L76.62,61.8A3.65,3.65,0,0,1,76.94,64L74.07,80.2a4.36,4.36,0,0,0,3.6,5,4.17,4.17,0,0,0,.71.06,4.33,4.33,0,0,0,4.29-3.64l3.14-17.5v0c.27-2.21.16-6-1.9-11.47L79.24,40.07l14.09-2.8a3.83,3.83,0,0,0,3-4.51"/><path class="cls-1" d="M94.52,34.8a2.28,2.28,0,0,1-1.48,1L77.21,38.93,82.47,53l0,.11c1.95,5.18,2.06,8.69,1.81,10.74L81.19,81.37a2.84,2.84,0,0,1-2.81,2.39,2.49,2.49,0,0,1-.47,0,2.85,2.85,0,0,1-2.35-3.27L78.42,64.3A5.13,5.13,0,0,0,77.18,60l-.64-.72L61.11,81.77a2.85,2.85,0,0,1-4.75-3.15l16.29-23.9L67.24,40.23a4.68,4.68,0,0,1,3.05-5.83,5.17,5.17,0,0,1,4.09.17l.23.12,17.52-3.48a2.36,2.36,0,0,1,2.74,1.84A2.27,2.27,0,0,1,94.52,34.8Zm-30.77-21A5.76,5.76,0,0,1,60,15.69c-.37,0-.6-.09-.67-.26-.37-.85.37-2,1.61-2.57a3.43,3.43,0,0,1,1.31-.28,1.73,1.73,0,0,1,1.67.86A.58.58,0,0,1,63.75,13.77Zm32.6,19a3.85,3.85,0,0,0-3.68-3.1L64.5,11.85a3.57,3.57,0,0,0-2.3-.78,4.76,4.76,0,0,0-1.91.41c-2,.88-3.1,2.92-2.39,4.55A2,2,0,0,0,60,17.2,7.15,7.15,0,0,0,65,14.59a2.68,2.68,0,0,0,.24-.48L90.41,30,74.82,33.11a6.73,6.73,0,0,0-5-.12,6.17,6.17,0,0,0-3.94,7.77L71,54.52,55.11,77.78a4.35,4.35,0,0,0,1.22,6,4.35,4.35,0,0,0,6-1.21L76.62,61.8A3.65,3.65,0,0,1,76.94,64L74.07,80.2a4.36,4.36,0,0,0,3.6,5,4.17,4.17,0,0,0,.71.06,4.33,4.33,0,0,0,4.29-3.64l3.14-17.5v0c.27-2.21.16-6-1.9-11.47L79.24,40.07l14.09-2.8a3.83,3.83,0,0,0,3-4.51Z"/><path class="cls-1" d="M63,26.88a4.33,4.33,0,1,1,4.33,4.32A4.33,4.33,0,0,1,63,26.88m10.16,0a5.84,5.84,0,1,0-5.83,5.83,5.84,5.84,0,0,0,5.83-5.83"/><path class="cls-1" d="M63,26.88a4.33,4.33,0,1,1,4.33,4.32A4.33,4.33,0,0,1,63,26.88Zm10.16,0a5.84,5.84,0,1,0-5.83,5.83A5.84,5.84,0,0,0,73.17,26.88Z"/></svg>