<svg id="Layer_1" data-name="Layer 1" xmlns="http://www.w3.org/2000/svg" viewBox="0 0 60 75"><defs><style>.cls-1{fill:none;}.cls-2{fill:#1a428a;}.cls-3{fill:#fff;}</style></defs><title>icons</title><path class="cls-1" d="M48.21,30.11a.93.93,0,0,0-.22,0,.75.75,0,0,0-.75.75.76.76,0,0,0,.44.69C47.87,31.05,48.05,30.58,48.21,30.11Z"/><path class="cls-2" d="M52.13,65.2h-.76V55.11c0-2.88-2-5.22-4.58-5.22H38V43.77l.12-.05A21.6,21.6,0,1,0,21.62,44l.12,0v5.85H13.33A4.35,4.35,0,0,0,9.28,54.5V65.2H7.87A3.28,3.28,0,0,0,4.6,68.47v1.42a3.27,3.27,0,0,0,3.27,3.26H52.13a3.27,3.27,0,0,0,3.27-3.26V68.47A3.28,3.28,0,0,0,52.13,65.2ZM9.43,23.9a20.09,20.09,0,1,1,39.7,4.3l-.05.22-.2-.08a2.58,2.58,0,0,0-.89-.16,2.65,2.65,0,0,0-1.21,5l.6-1.4A1.13,1.13,0,0,1,48,29.69a1.08,1.08,0,0,1,.55.15l.13.07,0,.15A20.24,20.24,0,0,1,38,42.08l-.46.22.28-.65a.94.94,0,1,1,1.25-1.38l1.33-.72a2.44,2.44,0,1,0-3.92,2.9l.17.21-.25.09A19.93,19.93,0,0,1,32,43.83l-.33,0,.25-.59a.94.94,0,1,1,1.25-1.38l1.34-.73A2.45,2.45,0,0,0,30,42.51a2.49,2.49,0,0,0,.3,1.18l.16.27-.49,0h-.43a19.89,19.89,0,0,1-3.92-.39l-.23-.05.11-.27A.94.94,0,0,1,26,41.57a.91.91,0,0,1,.71.33l1.34-.73a2.45,2.45,0,0,0-4.5,1.34,2.83,2.83,0,0,0,0,.29l0,.3L23.33,43A20.05,20.05,0,0,1,9.43,23.9ZM36.55,44.31v5.58H23.15V44.53l.25.08a21.67,21.67,0,0,0,12.9-.21ZM10.69,54.5a3,3,0,0,1,2.64-3.2H46.79C48.54,51.3,50,53,50,55.11V65.2H10.69ZM54,69.89a1.86,1.86,0,0,1-1.86,1.85H7.87A1.86,1.86,0,0,1,6,69.89V68.47a1.87,1.87,0,0,1,1.86-1.86H52.13A1.87,1.87,0,0,1,54,68.47Z"/><path class="cls-3" d="M47.24,30.82a.75.75,0,0,1,.75-.75.93.93,0,0,1,.22,0c-.16.47-.34.94-.53,1.4A.76.76,0,0,1,47.24,30.82Z"/><path class="cls-2" d="M17.56,63.64H41.23V54.81H17.56ZM19,56.22H39.82v6H19Z"/><rect class="cls-2" x="22.64" y="58.29" width="14.42" height="1.41"/><path class="cls-2" d="M28.4,7.84a16.85,16.85,0,0,1,2,.13l.22-1.49a16.8,16.8,0,0,0-9,1.27l.62,1.37A15.19,15.19,0,0,1,28.4,7.84Z"/><path class="cls-2" d="M11.59,23.14a16.3,16.3,0,0,0,.31,3.2l1.48-.3a14.85,14.85,0,0,1-.28-2.9,15.22,15.22,0,0,1,5.79-12L18,10A16.68,16.68,0,0,0,11.59,23.14Z"/><path class="cls-2" d="M21.19,37.38a2.25,2.25,0,0,1,2.25-2.25,2.23,2.23,0,0,1,1.88,1l1.33-.72a3.76,3.76,0,1,0-4.85,5.35l.59-1.4A2.25,2.25,0,0,1,21.19,37.38Z"/><path class="cls-2" d="M29.11,39l.6-1.4a1.11,1.11,0,0,1-.53-.95,1.14,1.14,0,0,1,2-.7l1.33-.73A2.64,2.64,0,1,0,29.11,39Z"/><path class="cls-2" d="M35.43,39l.59-1.4a1.13,1.13,0,0,1,.61-2.08,1.14,1.14,0,0,1,.89.43l1.33-.73A2.64,2.64,0,1,0,35.43,39Z"/><path class="cls-2" d="M38.33,31.24l.59-1.4a1.12,1.12,0,0,1-.52-.95,1.13,1.13,0,0,1,2-.7l1.4-.76.06.25a2.63,2.63,0,0,0,1.36,1.75l.59-1.4a1.12,1.12,0,0,1-.52-1,1.13,1.13,0,0,1,2-.7l1.34-.73A2.65,2.65,0,0,0,41.8,27v.46l-.32-.34a2.64,2.64,0,1,0-3.14,4.14Z"/><path class="cls-2" d="M40.83,36.8l.6-1.4a1.11,1.11,0,0,1-.53-.95,1.14,1.14,0,0,1,2-.7L44.26,33a2.64,2.64,0,1,0-3.43,3.78Z"/><path class="cls-3" d="M39.35,35.34c0-.05,0-.1,0-.15l0,0a3.73,3.73,0,0,0-.25-.39,2.87,2.87,0,0,0,.14.66Z"/><path class="cls-3" d="M39.31,35.19c0,.05,0,.1,0,.15l0,0Z"/><path class="cls-2" d="M44.11,22.06l.63-1.38a.77.77,0,0,1-.29-.63.78.78,0,0,1,.25-.55.87.87,0,0,1,.54-.21.82.82,0,0,1,.58.27l1.36-.69a2.32,2.32,0,0,0-1.88-1.09h-.09a2.24,2.24,0,0,0-1.55.63,2.27,2.27,0,0,0,.45,3.65Z"/></svg>