<?xml version="1.0" encoding="UTF-8"?>
<svg width="18px" height="20px" viewBox="0 0 18 20" version="1.1" xmlns="http://www.w3.org/2000/svg" xmlns:xlink="http://www.w3.org/1999/xlink">
    <!-- Generator: Sketch 51.1 (57501) - http://www.bohemiancoding.com/sketch -->
    <title>icons8-golf</title>
    <desc>Created with Sketch.</desc>
    <defs/>
    <g id="Page-1" stroke="none" stroke-width="1" fill="none" fill-rule="evenodd">
        <g id="02-01-CourseDetails" transform="translate(-108.000000, -933.000000)" fill="#79A383" fill-rule="nonzero">
            <g id="icons8-golf" transform="translate(108.000000, 933.000000)">
                <path d="M7.77272727,0 C6.20028409,0 4.90909091,1.31510417 4.90909091,2.91666667 C4.90909091,3.64583333 5.18394927,4.30338583 5.625,4.81770833 L0.920454545,8.09895833 C0.28125,8.54492167 0.028764,9.40104167 0.332386364,10.1302083 L1.09943182,12.0052083 L2.60795455,11.328125 L1.84090909,9.47916667 L7.15909091,5.75520833 C7.36044055,5.80078167 7.55539773,5.83333333 7.77272727,5.83333333 C9.34517045,5.83333333 10.6363636,4.51822917 10.6363636,2.91666667 C10.6363636,1.31510417 9.34517045,0 7.77272727,0 Z M3.73295455,1.19791667 C3.73295455,1.19791667 0.923650364,2.44791667 0.204545455,7.21354167 L2.55681818,5.59895833 C1.997514,2.73112 3.73295455,1.19791667 3.73295455,1.19791667 Z M11.9403409,1.19791667 L10.4573864,1.875 L11.7869318,5.078125 L9.51136364,5.52083333 C9.03196064,5.61523417 8.61967309,5.91796917 8.38636364,6.35416667 C8.15305418,6.790365 8.13068182,7.32421917 8.30965909,7.78645833 L9.81818182,11.71875 L9.81818182,14.9739583 L7.15909091,20 L9.02556818,20 L11.25,15.78125 C11.3778409,15.540365 11.4545455,15.2473958 11.4545455,14.9739583 L11.4545455,11.40625 L9.81818182,7.16145833 L12.1193182,6.71875 C12.6083095,6.62109417 13.0142045,6.30533833 13.2443182,5.859375 C13.4744318,5.41341167 13.4904117,4.88932333 13.2954545,4.42708333 L11.9403409,1.19791667 Z M7.77272727,1.66666667 C8.45987236,1.66666667 9,2.21679667 9,2.91666667 C9,3.61653667 8.45987236,4.16666667 7.77272727,4.16666667 C7.08558218,4.16666667 6.54545455,3.61653667 6.54545455,2.91666667 C6.54545455,2.21679667 7.08558218,1.66666667 7.77272727,1.66666667 Z M13.0653409,8.046875 L11.4545455,8.38541667 L12.65625,12.4479167 L15.7755682,20 L17.5397727,20 L14.1903409,11.9270833 L13.0653409,8.046875 Z" id="Shape"/>
            </g>
        </g>
    </g>
</svg>