<svg id="Layer_1" data-name="Layer 1" xmlns="http://www.w3.org/2000/svg" viewBox="0 0 151 96"><defs><style>.cls-1{fill:none;}.cls-2{fill:#1a428a;}.cls-3{fill:#fff;}</style></defs><title>icons</title><path class="cls-1" d="M93.6,40.8a.78.78,0,0,0-.22,0,.75.75,0,0,0-.74.75.73.73,0,0,0,.44.67C93.27,41.73,93.44,41.27,93.6,40.8Z"/><path class="cls-2" d="M97.48,75.54h-.75v-10c0-2.85-2-5.17-4.53-5.17H83.45V54.33l.12,0a21.38,21.38,0,1,0-16.29.27l.12,0v5.79H59.07a4.32,4.32,0,0,0-4,4.56v10.6H53.67a3.25,3.25,0,0,0-3.24,3.24v1.4a3.24,3.24,0,0,0,3.24,3.24H97.48a3.24,3.24,0,0,0,3.24-3.24v-1.4A3.25,3.25,0,0,0,97.48,75.54ZM55.21,34.66a19.89,19.89,0,1,1,39.3,4.25l0,.21-.21-.07a2.44,2.44,0,0,0-.88-.16,2.62,2.62,0,0,0-1.19,5l.59-1.39a1.12,1.12,0,0,1-.52-.94,1.13,1.13,0,0,1,1.12-1.13,1.08,1.08,0,0,1,.55.15l.13.07,0,.15a20,20,0,0,1-10.49,11.9l-.45.21.27-.63a1,1,0,0,1-.4-.77.93.93,0,0,1,1.64-.6l1.32-.72A2.42,2.42,0,1,0,82,53l.17.21-.25.09a20.13,20.13,0,0,1-4.44,1.07l-.32,0,.24-.59a1,1,0,0,1-.4-.77.93.93,0,0,1,1.64-.6L80,51.76a2.42,2.42,0,0,0-4.15,2.48l.15.27-.48,0h-.43a19.57,19.57,0,0,1-3.88-.39l-.23,0,.11-.27a.93.93,0,0,1,.53-1.7.94.94,0,0,1,.71.33l1.32-.71a2.42,2.42,0,0,0-4.45,1.31c0,.1,0,.2,0,.3l0,.29L69,53.57A19.84,19.84,0,0,1,55.21,34.66Zm26.85,20.2v5.52H68.8v-5.3l.24.07A21.4,21.4,0,0,0,81.81,55ZM56.45,64.94a2.94,2.94,0,0,1,2.62-3.16H92.2c1.73,0,3.13,1.69,3.13,3.77v10H56.45ZM99.32,80.18A1.84,1.84,0,0,1,97.48,82H53.67a1.84,1.84,0,0,1-1.84-1.84v-1.4a1.84,1.84,0,0,1,1.84-1.84H97.48a1.84,1.84,0,0,1,1.84,1.84Z"/><path class="cls-3" d="M92.64,41.51a.75.75,0,0,1,.74-.75.78.78,0,0,1,.22,0c-.16.47-.33.93-.52,1.38A.73.73,0,0,1,92.64,41.51Z"/><path class="cls-2" d="M63.25,74H86.69V65.26H63.25Zm1.4-7.35H85.3V72.6H64.65Z"/><rect class="cls-2" x="68.29" y="68.7" width="14.28" height="1.4"/><path class="cls-2" d="M74,18.75a16.65,16.65,0,0,1,2,.13l.22-1.48A18.25,18.25,0,0,0,74,17.26a16.48,16.48,0,0,0-6.69,1.4L67.92,20A15,15,0,0,1,74,18.75Z"/><path class="cls-2" d="M57.35,33.9a16.77,16.77,0,0,0,.3,3.17l1.46-.3a15.33,15.33,0,0,1-.27-2.87A15.06,15.06,0,0,1,64.58,22l-.92-1.18A16.56,16.56,0,0,0,57.35,33.9Z"/><path class="cls-2" d="M66.85,48A2.24,2.24,0,0,1,71,46.77l1.31-.71a3.72,3.72,0,1,0-4.8,5.29L68,50A2.22,2.22,0,0,1,66.85,48Z"/><path class="cls-2" d="M74.7,49.55l.58-1.38a1.13,1.13,0,0,1,.61-2.07,1.11,1.11,0,0,1,.88.43l1.32-.72a2.62,2.62,0,1,0-3.39,3.74Z"/><path class="cls-2" d="M81,49.55l.58-1.38a1.11,1.11,0,0,1-.51-1,1.12,1.12,0,0,1,2-.69l1.32-.72A2.62,2.62,0,1,0,81,49.55Z"/><path class="cls-2" d="M83.82,41.92l.59-1.38a1.13,1.13,0,0,1-.52-.95,1.12,1.12,0,0,1,2-.69l1.39-.75,0,.24a2.68,2.68,0,0,0,1.35,1.74l.59-1.39a1.1,1.1,0,0,1-.52-.94,1.12,1.12,0,0,1,1.12-1.12,1.13,1.13,0,0,1,.88.42l1.33-.71a2.62,2.62,0,0,0-4.82,1.31l0,.46-.31-.34a2.61,2.61,0,1,0-3.11,4.1Z"/><path class="cls-2" d="M86.3,47.42,86.89,46a1.12,1.12,0,0,1,.6-2.07,1.11,1.11,0,0,1,.88.43l1.32-.72a2.61,2.61,0,1,0-3.39,3.74Z"/><path class="cls-3" d="M84.83,46s0-.1,0-.15l0,0a2.59,2.59,0,0,0-.25-.39,2.44,2.44,0,0,0,.15.66Z"/><path class="cls-3" d="M84.79,45.83c0,.05,0,.1,0,.15l0,0Z"/><path class="cls-2" d="M89.54,32.83l.63-1.37a.81.81,0,0,1-.29-.62.78.78,0,0,1,.25-.54.79.79,0,0,1,.53-.21.81.81,0,0,1,.58.26l1.34-.68a2.25,2.25,0,0,0-1.86-1.07h-.09a2.24,2.24,0,0,0-1.53.62,2.27,2.27,0,0,0-.71,1.58A2.25,2.25,0,0,0,89.54,32.83Z"/></svg>