<?xml version="1.0" encoding="UTF-8"?>
<svg width="14px" height="20px" viewBox="0 0 14 20" version="1.1" xmlns="http://www.w3.org/2000/svg" xmlns:xlink="http://www.w3.org/1999/xlink">
    <!-- Generator: Sketch 51.1 (57501) - http://www.bohemiancoding.com/sketch -->
    <title>icons8-golf_ball</title>
    <desc>Created with Sketch.</desc>
    <defs/>
    <g id="Page-1" stroke="none" stroke-width="1" fill="none" fill-rule="evenodd">
        <g id="02-01-CourseDetails" transform="translate(-110.000000, -967.000000)" fill="#79A383" fill-rule="nonzero">
            <g id="icons8-golf_ball" transform="translate(110.000000, 967.000000)">
                <path d="M7,0 C3.13809753,0 0,3.24301872 0,7.23404255 C0,9.99501319 1.502298,12.3986038 3.70588235,13.6170213 C3.69301471,13.6170213 3.68014706,13.6170213 3.66727941,13.6170213 C3.65441176,13.6170213 3.64154412,13.6170213 3.62867647,13.6170213 C3.43244506,13.6552528 3.29090094,13.834774 3.29411765,14.0425532 L3.29411765,14.893617 C3.295726,15.0748004 3.40992647,15.2360374 3.57720588,15.2925532 C4.88648918,15.7430187 5.76470588,17.0046545 5.76470588,18.4308511 L5.76470588,18.7234043 L0.617647059,18.7234043 C0.604779412,18.7234043 0.591911765,18.7234043 0.579044118,18.7234043 C0.566176471,18.7234043 0.553308824,18.7234043 0.540441176,18.7234043 C0.313649,18.7450132 0.146369588,18.9544549 0.167279412,19.1888298 C0.188189235,19.4232047 0.390854882,19.596077 0.617647059,19.5744681 L13.3823529,19.5744681 C13.5303309,19.5761302 13.6686583,19.496343 13.7442554,19.3633643 C13.8182446,19.2303855 13.8182446,19.0674868 13.7442554,18.9345081 C13.6686583,18.8015294 13.5303309,18.7217421 13.3823529,18.7234043 L8.23529412,18.7234043 L8.23529412,18.4308511 C8.23529412,17.0046545 9.11351124,15.7430187 10.4227941,15.2925532 C10.5900735,15.2360374 10.704274,15.0748004 10.7058824,14.893617 L10.7058824,14.0425532 C10.7058824,13.8081783 10.5209098,13.6170213 10.2941176,13.6170213 C12.4977024,12.3986038 14,9.99501319 14,7.23404255 C14,3.24301872 10.8619025,0 7,0 Z M7,0.85106383 C10.4163603,0.85106383 13.1764706,3.70345745 13.1764706,7.23404255 C13.1764706,10.7646277 10.4163603,13.6170213 7,13.6170213 C3.58363971,13.6170213 0.823529412,10.7646277 0.823529412,7.23404255 C0.823529412,3.70345745 3.58363971,0.85106383 7,0.85106383 Z M11.1176471,7.23404255 C10.8908549,7.23404255 10.7058824,7.42519957 10.7058824,7.65957447 C10.7058824,7.89394936 10.8908549,8.08510638 11.1176471,8.08510638 C11.3444392,8.08510638 11.5294118,7.89394936 11.5294118,7.65957447 C11.5294118,7.42519957 11.3444392,7.23404255 11.1176471,7.23404255 Z M9.88235294,8.5106383 C9.65556076,8.5106383 9.47058824,8.70179532 9.47058824,8.93617021 C9.47058824,9.17054511 9.65556076,9.36170213 9.88235294,9.36170213 C10.1091451,9.36170213 10.2941176,9.17054511 10.2941176,8.93617021 C10.2941176,8.70179532 10.1091451,8.5106383 9.88235294,8.5106383 Z M11.5294118,8.93617021 C11.3026196,8.93617021 11.1176471,9.12732723 11.1176471,9.36170213 C11.1176471,9.59607702 11.3026196,9.78723404 11.5294118,9.78723404 C11.7562039,9.78723404 11.9411765,9.59607702 11.9411765,9.36170213 C11.9411765,9.12732723 11.7562039,8.93617021 11.5294118,8.93617021 Z M8.64705882,9.78723404 C8.42026665,9.78723404 8.23529412,9.97839106 8.23529412,10.212766 C8.23529412,10.4471409 8.42026665,10.6382979 8.64705882,10.6382979 C8.873851,10.6382979 9.05882353,10.4471409 9.05882353,10.212766 C9.05882353,9.97839106 8.873851,9.78723404 8.64705882,9.78723404 Z M10.2941176,10.212766 C10.0673255,10.212766 9.88235294,10.403923 9.88235294,10.6382979 C9.88235294,10.8726728 10.0673255,11.0638298 10.2941176,11.0638298 C10.5209098,11.0638298 10.7058824,10.8726728 10.7058824,10.6382979 C10.7058824,10.403923 10.5209098,10.212766 10.2941176,10.212766 Z M7.41176471,11.0638298 C7.18497253,11.0638298 7,11.2549868 7,11.4893617 C7,11.7237366 7.18497253,11.9148936 7.41176471,11.9148936 C7.63855688,11.9148936 7.82352941,11.7237366 7.82352941,11.4893617 C7.82352941,11.2549868 7.63855688,11.0638298 7.41176471,11.0638298 Z M9.05882353,11.4893617 C8.83203135,11.4893617 8.64705882,11.6805187 8.64705882,11.9148936 C8.64705882,12.1492685 8.83203135,12.3404255 9.05882353,12.3404255 C9.28561571,12.3404255 9.47058824,12.1492685 9.47058824,11.9148936 C9.47058824,11.6805187 9.28561571,11.4893617 9.05882353,11.4893617 Z M4.11764706,14.4680851 L9.88235294,14.4680851 L9.88235294,14.6409574 C8.407399,15.2892289 7.41176471,16.753657 7.41176471,18.4308511 L7.41176471,18.7234043 L6.58823529,18.7234043 L6.58823529,18.4308511 C6.58823529,16.753657 5.592601,15.2892289 4.11764706,14.6409574 L4.11764706,14.4680851 Z" id="Shape"/>
            </g>
        </g>
    </g>
</svg>