<?xml version="1.0" encoding="UTF-8" standalone="no"?>
<svg width="22px" height="23px" viewBox="0 0 22 23" version="1.1" xmlns="http://www.w3.org/2000/svg" xmlns:xlink="http://www.w3.org/1999/xlink">
    <!-- Generator: Sketch 50.2 (55047) - http://www.bohemiancoding.com/sketch -->
    <title>icons8-grass</title>
    <desc>Created with Sketch.</desc>
    <defs/>
    <g id="Page-1" stroke="none" stroke-width="1" fill="none" fill-rule="evenodd">
        <g id="00-01-GolfCo-Home-Copy-6" transform="translate(-820.000000, -147.000000)" fill="#CFDDBB" fill-rule="nonzero">
            <g id="icons8-grass" transform="translate(820.000000, 147.000000)">
                <path d="M2.2562093,0.0033299777 C2.21012026,0.0108224275 2.15694012,0.0351727696 2.08603355,0.078254476 C2.01512699,0.121336182 1.93358467,0.207499116 1.88749517,0.318012871 C1.84140613,0.428526626 1.83254247,0.542786366 1.84495124,0.617710864 C1.89635838,0.917408858 1.98676436,0.9117894 2.05767093,0.992333356 C2.1977115,1.15342127 2.39802243,1.35384394 2.66746737,1.65166894 C3.20458471,2.24731894 3.99519266,3.21384497 4.8230269,4.76852807 C6.04971045,7.07432963 7.35261867,10.6575936 7.9429157,16.1120971 C7.23207751,14.3738488 6.28902022,12.9278059 5.31937285,11.7664762 C4.32668096,10.5789232 3.309172,9.69668707 2.46892899,9.09916408 C2.04880772,8.79946608 1.67477548,8.56720014 1.3627866,8.40985869 C1.05079772,8.25251725 0.848714245,8.1551154 0.554451779,8.1551154 C0.494181427,8.1551154 0.43036552,8.15698839 0.327550776,8.2000701 C0.224736485,8.2431518 0.0581058341,8.37426944 0.015561896,8.54472279 C-0.0269820422,8.71517614 0.027970658,8.83130888 0.0581058341,8.90436038 C0.0882410102,8.97741189 0.113058534,9.02423958 0.14319371,9.06919428 C0.265507419,9.24526709 0.414411203,9.40635452 0.625358343,9.63862046 C1.04725262,10.1012794 1.68186614,10.8074426 2.34129718,11.8414007 C3.66015926,13.9111899 5.09247185,17.2659344 5.09247185,22.5106493 C5.0906993,22.6829756 5.17578717,22.8440635 5.3176003,22.9320995 C5.45941343,23.0182629 5.63313428,23.0182629 5.77494741,22.9320995 C5.91676053,22.8440635 6.00184841,22.6829756 6.00007586,22.5106493 C6.00007586,17.0804961 4.49685671,13.5047246 3.09290675,11.3019443 C2.69760255,10.681944 2.41220374,10.3972309 2.07185224,9.98327316 C2.83055247,10.5358415 3.74347459,11.3394066 4.63866984,12.4108269 C6.51237567,14.6529424 8.26908589,17.9964485 8.26908589,22.5106493 C8.27085844,22.5406191 8.27617655,22.5705889 8.28326721,22.6005587 C8.29035786,22.6473864 8.30453918,22.6923411 8.32581114,22.7354228 C8.34353801,22.7785045 8.36835508,22.8197127 8.39671771,22.855302 C8.41798968,22.8777793 8.4428072,22.8983837 8.46762427,22.9152416 C8.48180558,22.9264805 8.4959869,22.9358459 8.51016821,22.9452114 C8.5509396,22.9676887 8.59348354,22.9826736 8.63780002,22.9901661 C8.69807083,23.003278 8.76188674,23.003278 8.82215709,22.9901661 C8.86824658,22.9770542 8.91079052,22.9564503 8.9497889,22.9302265 C8.95865211,22.9264805 8.96928832,22.920861 8.97815153,22.9152416 C9.0047416,22.8927642 9.02778612,22.8684139 9.04905809,22.8403171 C9.08273882,22.8103473 9.11110145,22.774758 9.13414597,22.7354228 C9.15541794,22.6885951 9.16959925,22.6380209 9.17668991,22.5855738 C9.17846246,22.5612234 9.17846246,22.5349996 9.17668991,22.5106493 C9.17668991,13.1619449 7.35616377,7.57070431 5.61718042,4.30399618 C5.20592235,3.53040086 4.80175494,2.90103507 4.42595015,2.37094413 C5.23960308,3.08834632 6.1560703,4.04363343 7.09203694,5.44284856 C9.06501196,8.39112781 10.9617628,12.993365 11.3606121,19.8433371 C11.3588395,19.8639415 11.3588395,19.8826724 11.3606121,19.9032767 C11.3606121,19.9088962 11.3606121,19.9126422 11.3606121,19.9182616 C11.3641576,19.9276271 11.3694753,19.938866 11.3747934,19.9482314 C11.4208829,20.7724009 11.4456999,21.6209207 11.4456999,22.5106493 C11.4439274,22.6829756 11.5290153,22.8440635 11.6708284,22.9320995 C11.8126415,23.0182629 11.9863624,23.0182629 12.1281755,22.9320995 C12.2699886,22.8440635 12.3550765,22.6829756 12.353304,22.5106493 C12.353304,21.5946974 12.3160781,20.7237002 12.2682161,19.8733069 C12.2717616,19.8433371 12.2717616,19.8133673 12.2682161,19.7833975 C12.2682161,19.7777781 12.2682161,19.7740321 12.2682161,19.7684126 C12.4561187,13.1020053 14.2075108,9.36889227 15.7851816,7.28599122 C16.57579,6.24454069 17.3256266,5.60768245 17.841472,5.23305996 C18.0985082,5.04574872 18.2864108,4.93523496 18.4229058,4.84345257 C18.4920398,4.79662488 18.5274931,4.83596012 18.6639881,4.63366398 C18.6976688,4.58308982 18.7526215,4.48006899 18.749076,4.31898108 C18.7455309,4.15789365 18.637398,3.99118628 18.5505376,3.92937369 C18.3768168,3.80574851 18.3165459,3.84133729 18.2669114,3.83946429 C18.0276016,3.82822586 17.6305248,3.87505355 17.0189558,4.06423779 C16.4073868,4.25342203 15.6256421,4.59620173 14.8066711,5.20309016 C13.376131,6.26139858 11.8463223,8.13638451 10.8217222,11.3319141 C9.99920604,8.65710954 8.92851693,6.53112678 7.8294652,4.88840727 C6.66482501,3.14828592 5.46827663,1.94949394 4.49685671,1.17215215 C4.01114698,0.78254476 3.58216204,0.507197109 3.23471988,0.318012871 C2.88727772,0.128828632 2.69051189,0.0033299777 2.36965981,0.0033299777 C2.33775208,0.0033299777 2.3022988,-0.00416247213 2.2562093,0.0033299777 Z M16.0120826,5.63765225 C15.708957,5.94858916 15.3987411,6.26139858 15.076116,6.68659523 C13.7732078,8.40423923 12.4277561,11.1221255 11.7718701,15.3478672 C11.6318296,14.5311902 11.4581087,13.7650873 11.2755242,13.0252078 C11.2772967,13.0195883 11.2737516,13.0158423 11.2755242,13.0102229 C12.2168089,9.08979863 13.87425,7.06121772 15.3313796,5.98230495 C15.5866433,5.79312071 15.7727729,5.77251635 16.0120826,5.63765225 Z M21.4293441,8.1551154 C21.1350821,8.1551154 20.9347707,8.26750215 20.6351906,8.42484359 C20.3356105,8.58218504 19.9846227,8.79946608 19.5857734,9.09916408 C18.7880748,9.69856006 17.8113368,10.5939081 16.8771427,11.7814611 C15.006982,14.1584407 13.260908,17.7398317 13.260908,22.5106493 C13.2591354,22.6829756 13.3442233,22.8440635 13.4860364,22.9320995 C13.6278495,23.0182629 13.8015704,23.0182629 13.9433835,22.9320995 C14.0851967,22.8440635 14.1702845,22.6829756 14.168512,22.5106493 C14.168512,17.9870826 15.8241805,14.6360845 17.5862083,12.395842 C18.4672223,11.275721 19.3765993,10.4440591 20.110482,9.89336376 C20.1211182,9.88587131 20.1282089,9.88587131 20.1388446,9.87837886 C19.8091293,10.311068 19.5166394,10.6351163 19.1177901,11.3169292 C17.8326088,13.5178365 16.437522,17.0879886 16.437522,22.5106493 C16.4357495,22.6829756 16.5208373,22.8440635 16.6626505,22.9320995 C16.8044636,23.0182629 16.9781844,23.0182629 17.1199976,22.9320995 C17.2618107,22.8440635 17.3468986,22.6829756 17.345126,22.5106493 C17.345126,17.2603149 18.6746243,13.896205 19.883581,11.8264158 C20.4880593,10.7905847 21.0624025,10.0881675 21.4435254,9.62363557 C21.6349731,9.39136962 21.7732411,9.23028219 21.8831461,9.03922448 C21.9380988,8.94369562 22.0692757,8.80695853 21.9540527,8.49976809 C21.8955549,8.34617311 21.7537417,8.23753235 21.6562451,8.2000701 C21.5587485,8.16260785 21.4896149,8.1551154 21.4293441,8.1551154 Z" id="Shape"/>
            </g>
        </g>
    </g>
</svg>