<svg id="Layer_1" data-name="Layer 1" xmlns="http://www.w3.org/2000/svg" viewBox="0 0 151 96"><defs><style>.cls-1{fill:#1a428a;}</style></defs><title>icons</title><path class="cls-1" d="M90.3,56.5l-1.18-.07c-3-.2-4.07-1.49-5.45-3.12a11.58,11.58,0,0,0-8-4.69,44.64,44.64,0,0,0-11.06-.45l.14,1.55a43.29,43.29,0,0,1,10.65.43,10.11,10.11,0,0,1,7,4.15C83.87,56,85.35,57.73,89,58l1.19.07c8.44.56,19,1.24,19,5.71,0,3.45-3.5,6.9-9.59,9.44-6.39,2.68-14.92,4.15-24,4.15-8,0-11.42-2.5-14.45-4.71a16,16,0,0,0-6.49-3.31l-1-.21C46,67.58,42,66.64,42,63.76c0-4.67,6.11-9.91,14.52-12.47L56,49.8c-9.2,2.81-15.64,8.54-15.64,14,0,4.28,5.12,5.31,12.86,6.88l1.06.21a14.79,14.79,0,0,1,5.86,3c3.22,2.36,6.88,5,15.4,5,19.73,0,35.19-6.65,35.19-15.14,0-5.92-10.86-6.63-20.45-7.26"/><path class="cls-1" d="M90.3,56.5l-1.18-.07c-3-.2-4.07-1.49-5.45-3.12a11.58,11.58,0,0,0-8-4.69,44.64,44.64,0,0,0-11.06-.45l.14,1.55a43.29,43.29,0,0,1,10.65.43,10.11,10.11,0,0,1,7,4.15C83.87,56,85.35,57.73,89,58l1.19.07c8.44.56,19,1.24,19,5.71,0,3.45-3.5,6.9-9.59,9.44-6.39,2.68-14.92,4.15-24,4.15-8,0-11.42-2.5-14.45-4.71a16,16,0,0,0-6.49-3.31l-1-.21C46,67.58,42,66.64,42,63.76c0-4.67,6.11-9.91,14.52-12.47L56,49.8c-9.2,2.81-15.64,8.54-15.64,14,0,4.28,5.12,5.31,12.86,6.88l1.06.21a14.79,14.79,0,0,1,5.86,3c3.22,2.36,6.88,5,15.4,5,19.73,0,35.19-6.65,35.19-15.14C110.75,57.84,99.89,57.13,90.3,56.5Z"/><path class="cls-1" d="M53.31,72.62l-1.24-.25c-4.62-.94-8.27-1.68-10.67-2.79L40.71,71c2.57,1.18,6.31,1.94,11,2.9l1.24.25c2.79.57,4.69,2,6.89,3.55a27.52,27.52,0,0,0,7.85,4.38l.52-1.46a26.44,26.44,0,0,1-7.42-4.16c-2.25-1.64-4.38-3.19-7.51-3.83"/><path class="cls-1" d="M53.31,72.62l-1.24-.25c-4.62-.94-8.27-1.68-10.67-2.79L40.71,71c2.57,1.18,6.31,1.94,11,2.9l1.24.25c2.79.57,4.69,2,6.89,3.55a27.52,27.52,0,0,0,7.85,4.38l.52-1.46a26.44,26.44,0,0,1-7.42-4.16C58.57,74.81,56.44,73.26,53.31,72.62Z"/><path class="cls-1" d="M77.75,82a34.78,34.78,0,0,1-6.1-.5L71.36,83a36.1,36.1,0,0,0,6.39.52c1.1,0,2.2,0,3.28,0L81,81.91c-1.06,0-2.14.06-3.22.06"/><path class="cls-1" d="M77.75,82a34.78,34.78,0,0,1-6.1-.5L71.36,83a36.1,36.1,0,0,0,6.39.52c1.1,0,2.2,0,3.28,0L81,81.91C79.91,82,78.83,82,77.75,82Z"/><path class="cls-1" d="M60.5,62.68H58.88V14.44H60.5V62.68ZM85.6,25.87H62.1V16.53ZM62.1,27.43H85.6L62.1,36.77Zm0,11,29.67-11.8L62.1,14.85v-2H57.28V64.24H62.1Z"/><path class="cls-1" d="M70.81,60.09c3.52,0,6.14,1.26,6.14,2.39s-2.62,2.39-6.14,2.39-6.14-1.26-6.14-2.39,2.63-2.39,6.14-2.39m0,6.33c4.41,0,7.74-1.69,7.74-3.94s-3.33-3.94-7.74-3.94-7.74,1.69-7.74,3.94,3.33,3.94,7.74,3.94"/><path class="cls-1" d="M70.81,60.09c3.52,0,6.14,1.26,6.14,2.39s-2.62,2.39-6.14,2.39-6.14-1.26-6.14-2.39S67.3,60.09,70.81,60.09Zm0,6.33c4.41,0,7.74-1.69,7.74-3.94s-3.33-3.94-7.74-3.94-7.74,1.69-7.74,3.94S66.4,66.42,70.81,66.42Z"/></svg>