<?xml version="1.0" encoding="UTF-8" standalone="no"?>
<svg width="20px" height="20px" viewBox="0 0 20 20" version="1.1" xmlns="http://www.w3.org/2000/svg" xmlns:xlink="http://www.w3.org/1999/xlink">
    <!-- Generator: Sketch 50.2 (55047) - http://www.bohemiancoding.com/sketch -->
    <title>icons8-vegan_shoes</title>
    <desc>Created with Sketch.</desc>
    <defs/>
    <g id="Page-1" stroke="none" stroke-width="1" fill="none" fill-rule="evenodd">
        <g id="00-01-GolfCo-Home-Copy-4" transform="translate(-377.000000, -893.000000)" fill="#79A383" fill-rule="nonzero">
            <g id="icons8-vegan_shoes" transform="translate(377.000000, 893.000000)">
                <path d="M10.8333333,0.392156863 C10.2879902,0.399816196 9.71813725,0.479472941 9.12990196,0.625 C6.78002471,1.20557608 4.15900745,2.93658078 2.13235294,6.18872549 C2.06495098,6.30208353 2.05882353,6.43995098 2.11550235,6.55790431 C2.17218157,6.67585804 2.28400745,6.75857843 2.41421569,6.77696078 C2.63327216,6.8091298 3.04534314,7.00674039 3.56617647,7.29166667 C4.0870098,7.57659333 4.73345608,7.94730392 5.49019608,8.30882353 C7.00367647,9.03033098 8.9966298,9.70894627 11.5073529,9.60784314 C13.460478,9.52512275 14.4868259,8.58609059 14.8284314,7.57352941 C14.9984682,7.06648275 15.0030639,6.5625 14.9387255,6.12745098 C14.9203431,6.00796588 14.8897059,5.90533098 14.8529412,5.80882353 C16.037071,6.38174039 16.6344976,7.16145843 17.1323529,7.72058824 C17.4846816,8.07291686 18.3088235,7.44638471 17.9166667,6.93627451 C17.9166667,6.93627451 16.9699757,5.55606627 14.9142157,5 C14.9724267,4.8805149 15.0382965,4.74877451 15.0857843,4.58333333 C15.2696078,3.94607843 15.2359071,3.02389725 14.5588235,2.02205882 C14.55576,2.01899529 14.5618875,2.01286784 14.5588235,2.00980392 L14.5465686,2.00980392 C13.8296569,0.948223137 12.4617035,0.367647059 10.8333333,0.392156863 Z M10.8333333,1.18872549 C12.2625612,1.17034314 13.3884804,1.66973059 13.9093137,2.45098039 C14.4791667,3.28737765 14.4546569,3.91390941 14.3259804,4.3627451 C14.2708333,4.55576 14.1988357,4.70128667 14.129902,4.81617647 C13.0989584,4.52359059 11.8137255,4.29840706 10.4289216,4.24019608 C8.87408078,4.17432588 7.21660549,4.31372549 5.72303922,4.80392157 C5.51623765,4.87132353 5.40441176,5.09344353 5.47181373,5.3002451 C5.53921569,5.50704667 5.76133569,5.61887255 5.96813725,5.55147059 C8.56464471,4.69822314 11.8933824,4.99846824 13.9338235,5.57598039 C13.9384192,5.58057608 13.9414827,5.58363961 13.9460784,5.58823529 C13.9935663,5.64185059 14.1176471,5.90992667 14.1666667,6.2377451 C14.2156863,6.56556392 14.2049631,6.96231608 14.0808824,7.32843137 C13.8342525,8.06066196 13.2031251,8.75 11.4705882,8.82352941 C9.11764706,8.9185051 7.26715686,8.28737765 5.82107843,7.59803922 C5.09803922,7.2533702 4.48069843,6.89797804 3.94607843,6.60539216 C3.61826,6.42616431 3.35477961,6.34803922 3.07598039,6.2377451 C4.96629922,3.40226706 7.27788,1.88878667 9.31372549,1.38480392 C9.84681373,1.25306392 10.3569239,1.19485294 10.8333333,1.18872549 Z M10.1593137,10.9803922 C9.78400745,10.9803922 9.5312502,11.2040443 9.28921569,11.4215686 C9.04718157,11.6390933 8.79442392,11.8918506 8.49264706,12.1446078 C7.88909333,12.6516545 7.11550235,13.1372549 5.84558824,13.1372549 C5.07046588,13.1372549 4.53584549,12.8293506 3.87254902,12.4632353 C3.20925255,12.09712 2.42953451,11.6911765 1.29901961,11.6911765 C1.19944863,11.6881129 1.10294118,11.7233455 1.02941176,11.7892157 C0.707720784,12.0787376 0.583639608,12.5045957 0.490196078,13.1004902 C0.396752471,13.6963847 0.355392157,14.4806984 0.355392157,15.4901961 C0.355392157,16.127451 0.419730392,16.7141545 0.526960784,17.1568627 C0.565257255,17.3146447 0.618872549,17.4494486 0.674019608,17.5735294 C0.666360392,17.5827208 0.65716902,17.5888482 0.649509804,17.5980392 C0.482536863,17.7925859 0.392156863,18.0805761 0.392156863,18.4681373 C0.392156863,18.7699141 0.421262275,19.0762867 0.50245098,19.3504902 C0.542279608,19.4868259 0.589767059,19.6185663 0.68627451,19.7426471 C0.782781961,19.8667278 0.968137255,20 1.17647059,20 C1.1841298,20 1.19332118,20 1.20098039,20 C8.35784314,19.5695467 9.88817412,20 13.3333333,20 C15.9727329,20 17.5214463,19.4669118 19.3014706,18.6764706 L19.2892157,18.6642157 C19.5772059,18.5431984 20,18.1878063 20,17.5735294 C20,17.36826 19.967831,17.1430761 19.8651961,16.9362745 C19.8253678,16.8550859 19.7594976,16.775429 19.6813725,16.7034314 C19.8039216,16.2791055 19.9310663,15.4947918 19.4730392,14.7426471 C18.7745098,13.5646447 17.6776961,13.1740196 16.7892157,13.1740196 C15.1256129,13.1740196 13.7101718,12.654718 12.6102941,12.120098 C12.0603553,11.852022 11.5931373,11.5824141 11.2009804,11.372549 C10.8088235,11.1626839 10.5376839,10.9803922 10.1593137,10.9803922 Z M10.1593137,11.7647059 C10.1531863,11.7647059 10.4580271,11.8581494 10.8333333,12.0588235 C11.2086396,12.2594976 11.6896447,12.5367647 12.2671569,12.8186275 C13.4221816,13.3808212 14.9617035,13.9583333 16.7892157,13.9583333 C17.4693627,13.9583333 18.2414216,14.2064953 18.7990196,15.1470588 C19.1927082,15.7935051 18.9338235,16.4935663 18.8848039,16.6176471 C18.8556984,16.6452208 18.6734071,16.8152573 18.0392157,17.0955882 C17.3590686,17.3958333 16.2530639,17.7558212 14.5833333,17.9289216 C12.0251227,18.1954659 9.82230392,17.7328431 6.47058824,17.377451 C5.28952196,17.2579659 4.02113961,17.2334561 3.02696078,17.2426471 C2.53063725,17.2472427 2.10324745,17.2686886 1.78921569,17.2794118 C1.56096824,17.287071 1.47518392,17.2886031 1.39705882,17.2916667 C1.3648898,17.2227329 1.32506118,17.1170345 1.28676471,16.9607843 C1.19791686,16.5992647 1.13970588,16.0692404 1.13970588,15.4901961 C1.13970588,14.5006129 1.17953451,13.7454043 1.2622549,13.2230392 C1.33118863,12.789522 1.43076,12.6256129 1.50735294,12.5122549 C2.32230392,12.5597427 2.89828431,12.8201592 3.49264706,13.1495098 C4.14368863,13.5094976 4.8560051,13.9215686 5.84558824,13.9215686 C7.32077216,13.9215686 8.32720588,13.3287376 9.00735294,12.7573529 C9.34742667,12.4708945 9.6093749,12.1844365 9.81617647,11.997549 C10.022978,11.810662 10.1623776,11.7647059 10.1593137,11.7647059 Z M19.1911765,17.3651961 C19.2064953,17.4249388 19.2156863,17.4984682 19.2156863,17.5735294 C19.2156863,17.8921569 19.0992647,17.912071 18.995098,17.9534314 C18.9905024,17.9534314 18.9874388,17.9534314 18.9828431,17.9534314 C17.2334561,18.7316176 15.870098,19.2156863 13.3333333,19.2156863 C9.98008588,19.2156863 8.34405647,18.7990196 1.28676471,19.2156863 C1.27604157,19.1927082 1.26531882,19.1789216 1.25,19.129902 C1.20404431,18.97212 1.17647059,18.7147671 1.17647059,18.4681373 C1.17647059,18.1893384 1.22855412,18.1234682 1.2377451,18.1127451 C1.24234078,18.1066176 1.29901961,18.0867035 1.32352941,18.0759804 C1.42616431,18.0744486 1.54411765,18.060662 1.81372549,18.0514706 C2.12316196,18.0407475 2.55055137,18.0315565 3.03921569,18.0269608 C4.01194863,18.0177698 5.25582118,18.0361522 6.38480392,18.1495098 C6.38939961,18.1495098 6.39246314,18.1495098 6.39705882,18.1495098 C9.70435059,18.5003063 11.9761031,18.9828431 14.6691176,18.7009804 C16.4123776,18.5202208 17.5965075,18.1556373 18.3578431,17.8186275 C18.7300859,17.6531863 19.0042894,17.490809 19.1911765,17.3651961 Z" id="Shape"/>
            </g>
        </g>
    </g>
</svg>