<svg width="51" height="40" viewBox="0 0 51 40" fill="none" xmlns="http://www.w3.org/2000/svg">
<path fill-rule="evenodd" clip-rule="evenodd" d="M2 3C2 1.35547 3.35547 0 5 0H45C46.6445 0 48 1.35547 48 3V18.1875C48 18.2734 47.9883 18.3555 47.9688 18.4375C48.4141 19.1367 48.7852 19.875 49.0625 20.6875C49.6836 22.5195 49.9492 24.6211 50 27C50.0052 27.2202 50.0035 27.437 50.0018 27.6583C50.0009 27.7707 50 27.8842 50 28C50.0039 28.0508 50.0039 28.1055 50 28.1562V40H43V36C43 35.168 42.7969 34.7344 42.5312 34.4688C42.2656 34.2031 41.832 34 41 34H9C8.16797 34 7.73438 34.2031 7.46875 34.4688C7.20312 34.7344 7 35.168 7 36V40H0V28.0938V28V27C0.0507813 24.6211 0.316406 22.5195 0.9375 20.6875C1.21484 19.8672 1.58203 19.1133 2.03125 18.4062V18.375C2.01562 18.3125 2.00391 18.25 2 18.1875V3ZM45 2H5C4.4375 2 4 2.4375 4 3V16.1562C4.24609 15.9492 4.50781 15.75 4.78125 15.5625C5.44922 15.1016 6.17578 14.6719 7 14.3125V10C7 9.29688 7.46094 8.75 7.96875 8.40625C8.47656 8.0625 9.09766 7.82422 9.875 7.625C11.4297 7.22656 13.6133 7 16.5 7C19.3867 7 21.5703 7.22656 23.125 7.625C23.8828 7.82031 24.5 8.04297 25 8.375C25.5 8.04297 26.1172 7.82031 26.875 7.625C28.4297 7.22656 30.6133 7 33.5 7C36.3867 7 38.5703 7.22656 40.125 7.625C40.9023 7.82422 41.5234 8.0625 42.0312 8.40625C42.5391 8.75 43 9.29688 43 10V14.3125C43.8242 14.6719 44.5508 15.1016 45.2188 15.5625C45.4922 15.75 45.7539 15.9492 46 16.1562V3C46 2.4375 45.5625 2 45 2ZM16.5 9C19.2812 9 21.3438 9.23438 22.625 9.5625C23.2656 9.72656 23.707 9.92578 23.9062 10.0625C23.9448 10.0882 23.9661 10.1036 23.9787 10.1126L23.9787 10.1126L23.9787 10.1126L23.9787 10.1126C23.9928 10.1228 23.9959 10.125 24 10.125V12C17.4258 12.043 12.5586 12.5352 9 13.625V10.125C9.00414 10.125 9.00718 10.1228 9.02133 10.1126L9.02135 10.1126C9.03391 10.1035 9.0552 10.0882 9.09375 10.0625C9.29297 9.92578 9.73438 9.72656 10.375 9.5625C11.6562 9.23438 13.7188 9 16.5 9ZM39.625 9.5625C38.3438 9.23438 36.2812 9 33.5 9C30.7188 9 28.6562 9.23438 27.375 9.5625C26.7344 9.72656 26.293 9.92578 26.0938 10.0625C26.0552 10.0882 26.0339 10.1036 26.0213 10.1126L26.0213 10.1126L26.0213 10.1126C26.0072 10.1228 26.0041 10.125 26 10.125V12C32.5742 12.043 37.4414 12.5352 41 13.625V10.125C40.9959 10.125 40.9928 10.1228 40.9787 10.1126C40.9661 10.1036 40.9448 10.0882 40.9062 10.0625C40.707 9.92578 40.2656 9.72656 39.625 9.5625ZM24.8125 14C24.918 14.0156 25.0195 14.0156 25.125 14H25.2188C35.2266 14.0156 41.0078 15.0625 44.0938 17.1875C45.6484 18.2578 46.5898 19.5859 47.1875 21.3438C47.707 22.875 47.918 24.7617 47.9688 27H2.03125C2.08203 24.7617 2.29297 22.875 2.8125 21.3438C3.41016 19.5859 4.35156 18.2578 5.90625 17.1875C8.99219 15.0586 14.7852 14.0117 24.8125 14ZM48 38V29H2V38H5V36C5 34.832 5.29688 33.7656 6.03125 33.0312C6.76562 32.2969 7.83203 32 9 32H41C42.168 32 43.2344 32.2969 43.9688 33.0312C44.7031 33.7656 45 34.832 45 36V38H48Z" fill="#81AA8C"/>
</svg>
