<svg id="Layer_1" data-name="Layer 1" xmlns="http://www.w3.org/2000/svg" viewBox="0 0 192.9 229.28"><defs><style>.cls-1{fill:#1a428a;}</style></defs><title>Insurance</title><path class="cls-1" d="M165.08,90.48A32.69,32.69,0,0,0,142.25,100a32.11,32.11,0,0,0-45.7,0,32.12,32.12,0,0,0-45.71,0A32.67,32.67,0,0,0,28,90.48a32,32,0,0,0-18.58,6C14,52.94,51.33,18.85,96.55,18.85s82.53,34.09,87.11,77.68a32,32,0,0,0-18.58-6m26.48,16a4.08,4.08,0,0,0,.14-.79s0-.09,0-.17c0-50.69-40.66-92.15-91.38-94.14V3.77a3.81,3.81,0,0,0-7.62,0v7.64C42,13.4,1.35,54.86,1.35,105.55c0,.08,0,.12,0,.19a3.49,3.49,0,0,0,.15.77,6,6,0,0,0,.2.64,5.42,5.42,0,0,0,.37.56,3,3,0,0,0,.51.62s.07.1.11.13.31.15.45.24a2.35,2.35,0,0,0,.7.37,3.08,3.08,0,0,0,.8.17,4.21,4.21,0,0,0,.49.09l.14,0a3.68,3.68,0,0,0,.84-.17,5,5,0,0,0,.62-.18,4,4,0,0,0,.59-.41,3.2,3.2,0,0,0,.59-.47,1.27,1.27,0,0,0,.13-.11C13.46,101.56,20.54,98,28,98s14.53,3.53,19.91,9.94a1.64,1.64,0,0,0,.26.2c.09.09.13.22.24.29s.34.17.48.28a3.92,3.92,0,0,0,.58.29,3,3,0,0,0,.95.21c.15,0,.28.09.4.09l.19,0a5,5,0,0,0,.56-.11,2.88,2.88,0,0,0,.76-.22,3.55,3.55,0,0,0,.54-.3c.13-.09.26-.13.39-.22s.13-.18.21-.26.2-.14.3-.23C59.16,101.56,66.22,98,73.7,98c7.08,0,13.79,3.2,19,9V207.35a11.43,11.43,0,0,1-22.86,0,3.8,3.8,0,0,0-7.6,0,19,19,0,0,0,38.08,0V107c5.24-5.78,12-9,19-9,7.47,0,14.54,3.53,19.91,9.94a2.26,2.26,0,0,0,.26.2c.1.09.13.22.24.29a2.65,2.65,0,0,0,.5.26,2.32,2.32,0,0,0,.58.31,2.74,2.74,0,0,0,1,.21,2.47,2.47,0,0,0,.41.09l.17,0c.18,0,.37-.07.57-.11a4.25,4.25,0,0,0,.75-.22,2.71,2.71,0,0,0,.53-.3c.14-.09.28-.13.39-.22s.14-.18.23-.26.2-.12.28-.23c5.37-6.41,12.46-9.94,19.91-9.94S179.64,101.56,185,108c0,0,.08,0,.13.11a3.85,3.85,0,0,0,.93.7,1.52,1.52,0,0,0,.34.22,3.84,3.84,0,0,0,1.52.33,3.51,3.51,0,0,0,1.38-.28,3.27,3.27,0,0,0,.48-.26,4.27,4.27,0,0,0,.58-.33s0-.09.09-.13a6.49,6.49,0,0,0,.89-1.18,6,6,0,0,0,.21-.64"/><path class="cls-1" d="M165.08,90.48A32.69,32.69,0,0,0,142.25,100a32.11,32.11,0,0,0-45.7,0,32.12,32.12,0,0,0-45.71,0A32.67,32.67,0,0,0,28,90.48a32,32,0,0,0-18.58,6C14,52.94,51.33,18.85,96.55,18.85s82.53,34.09,87.11,77.68A32,32,0,0,0,165.08,90.48Zm26.48,16a4.08,4.08,0,0,0,.14-.79s0-.09,0-.17c0-50.69-40.66-92.15-91.38-94.14V3.77a3.81,3.81,0,0,0-7.62,0v7.64C42,13.4,1.35,54.86,1.35,105.55c0,.08,0,.12,0,.19a3.49,3.49,0,0,0,.15.77,6,6,0,0,0,.2.64,5.42,5.42,0,0,0,.37.56,3,3,0,0,0,.51.62s.07.1.11.13.31.15.45.24a2.35,2.35,0,0,0,.7.37,3.08,3.08,0,0,0,.8.17,4.21,4.21,0,0,0,.49.09l.14,0a3.68,3.68,0,0,0,.84-.17,5,5,0,0,0,.62-.18,4,4,0,0,0,.59-.41,3.2,3.2,0,0,0,.59-.47,1.27,1.27,0,0,0,.13-.11C13.46,101.56,20.54,98,28,98s14.53,3.53,19.91,9.94a1.64,1.64,0,0,0,.26.2c.09.09.13.22.24.29s.34.17.48.28a3.92,3.92,0,0,0,.58.29,3,3,0,0,0,.95.21c.15,0,.28.09.4.09l.19,0a5,5,0,0,0,.56-.11,2.88,2.88,0,0,0,.76-.22,3.55,3.55,0,0,0,.54-.3c.13-.09.26-.13.39-.22s.13-.18.21-.26.2-.14.3-.23C59.16,101.56,66.22,98,73.7,98c7.08,0,13.79,3.2,19,9V207.35a11.43,11.43,0,0,1-22.86,0,3.8,3.8,0,0,0-7.6,0,19,19,0,0,0,38.08,0V107c5.24-5.78,12-9,19-9,7.47,0,14.54,3.53,19.91,9.94a2.26,2.26,0,0,0,.26.2c.1.09.13.22.24.29a2.65,2.65,0,0,0,.5.26,2.32,2.32,0,0,0,.58.31,2.74,2.74,0,0,0,1,.21,2.47,2.47,0,0,0,.41.09l.17,0c.18,0,.37-.07.57-.11a4.25,4.25,0,0,0,.75-.22,2.71,2.71,0,0,0,.53-.3c.14-.09.28-.13.39-.22s.14-.18.23-.26.2-.12.28-.23c5.37-6.41,12.46-9.94,19.91-9.94S179.64,101.56,185,108c0,0,.08,0,.13.11a3.85,3.85,0,0,0,.93.7,1.52,1.52,0,0,0,.34.22,3.84,3.84,0,0,0,1.52.33,3.51,3.51,0,0,0,1.38-.28,3.27,3.27,0,0,0,.48-.26,4.27,4.27,0,0,0,.58-.33s0-.09.09-.13a6.49,6.49,0,0,0,.89-1.18A6,6,0,0,0,191.56,106.51Z"/></svg>