<svg xmlns="http://www.w3.org/2000/svg" xmlns:xlink="http://www.w3.org/1999/xlink" width="26" height="20" viewBox="0 0 26 20"><defs><path id="j8mya" d="M616.02 870.5h23.45v4.5h-1.529v-1c0-.584-.151-1.117-.526-1.484-.374-.368-.918-.516-1.513-.516h-16.314c-.595 0-1.139.148-1.513.516-.375.367-.526.9-.526 1.484v1h-1.53zm11.625-7.5a.544.544 0 0 0 .159 0h.048c5.1.008 8.045.531 9.618 1.594.792.535 1.272 1.199 1.577 2.078.264.765.372 1.709.398 2.828h-23.41c.026-1.12.134-2.063.399-2.828.304-.879.784-1.543 1.576-2.078 1.573-1.065 4.525-1.588 9.635-1.594zm4.433-2.5c1.418 0 2.47.117 3.123.281.327.082.552.182.653.25.042.028.044.032.048.032v1.75c-1.814-.545-4.296-.792-7.647-.813v-.938c.004 0 .006-.003.048-.03.101-.07.326-.169.653-.25.653-.165 1.705-.282 3.122-.282zm-8.666 0c1.418 0 2.47.117 3.122.281.327.082.552.182.654.25.041.028.043.032.047.032V862c-3.351.021-5.833.268-7.647.813v-1.75c.004 0 .006-.004.048-.032.102-.068.327-.168.653-.25.653-.164 1.705-.281 3.123-.281zm-5.863-3.5h20.392c.287 0 .51.219.51.5v6.578a6.72 6.72 0 0 0-1.53-.922V861c0-.352-.234-.625-.493-.797-.26-.172-.576-.29-.972-.39-.793-.2-1.906-.313-3.378-.313-1.471 0-2.584.113-3.377.313-.386.097-.701.208-.956.375-.255-.167-.57-.278-.956-.375-.792-.2-1.906-.313-3.377-.313-1.472 0-2.585.113-3.378.313-.396.1-.713.218-.971.39-.26.172-.494.445-.494.797v2.156a6.72 6.72 0 0 0-1.53.922V857.5c0-.281.223-.5.51-.5zm0-1c-.838 0-1.53.678-1.53 1.5v7.594a.512.512 0 0 0 .017.093v.016c-.23.354-.417.73-.558 1.14-.317.917-.452 1.968-.478 3.157v6.5h3.569v-2c0-.416.103-.633.239-.766.135-.132.356-.234.78-.234h16.314c.424 0 .645.102.78.234.136.133.24.35.24.766v2h3.568v-5.922a.512.512 0 0 0 0-.078c0-.172.004-.334 0-.5-.026-1.19-.161-2.24-.478-3.156a5.177 5.177 0 0 0-.557-1.125.525.525 0 0 0 .016-.125V857.5c0-.822-.691-1.5-1.53-1.5z"/></defs><g><g transform="translate(-615 -856)"><use fill="#79a383" xlink:href="#j8mya"/></g></g></svg>