<svg id="Layer_1" data-name="Layer 1" xmlns="http://www.w3.org/2000/svg" viewBox="0 0 192.9 258.55"><defs><style>.cls-1{fill:#1a428a;}</style></defs><title>packages-03</title><path class="cls-1" d="M165.77,84.58a7.76,7.76,0,0,1-5,3.34L107.46,98.5,125.17,146l.15.38c6.54,17.43,6.93,29.27,6.1,36.15l-10.56,58.9a9.57,9.57,0,0,1-9.47,8,9.24,9.24,0,0,1-1.57-.13,9.59,9.59,0,0,1-7.92-11l9.63-54.4a17.21,17.21,0,0,0-4.18-14.58l-2.16-2.43L53.25,242.77a9.6,9.6,0,0,1-16-10.6l54.86-80.5-18.2-48.81C71,95.21,75.64,86.4,84.16,83.22a17.44,17.44,0,0,1,13.76.58l.78.4,59-11.71a8.06,8.06,0,0,1,1.55-.15,7.86,7.86,0,0,1,6.52,12.24M62.11,13.74c-2,3.08-8.71,6.48-12.77,6.48-1.26,0-2-.29-2.27-.87-1.25-2.87,1.23-6.84,5.42-8.66a11.27,11.27,0,0,1,4.42-.95c2.68,0,4.84,1.11,5.62,2.9,0,.11,0,.5-.42,1.1m109.81,64a13,13,0,0,0-12.4-10.41l-94.87-60a12,12,0,0,0-7.74-2.62A16.29,16.29,0,0,0,50.47,6c-6.82,3-10.44,9.84-8,15.33.63,1.47,2.38,3.92,6.92,3.92,5.79,0,14.06-4.26,17-8.78a8.91,8.91,0,0,0,.83-1.62l84.72,53.58L99.4,78.89a22.57,22.57,0,0,0-17-.42c-11.14,4.15-17.08,15.89-13.25,26.16L86.42,151,33,229.34a14.68,14.68,0,0,0,24.44,16.27l48-70.11a12.07,12.07,0,0,1,1.07,7.55l-9.64,54.43A14.69,14.69,0,0,0,109,254.35a15,15,0,0,0,2.4.2,14.62,14.62,0,0,0,14.47-12.26l10.56-58.93,0-.14c.92-7.43.56-20.17-6.38-38.62l-15.77-42.29,47.46-9.41a12.93,12.93,0,0,0,10.17-15.21"/><path class="cls-1" d="M165.77,84.58a7.76,7.76,0,0,1-5,3.34L107.46,98.5,125.17,146l.15.38c6.54,17.43,6.93,29.27,6.1,36.15l-10.56,58.9a9.57,9.57,0,0,1-9.47,8,9.24,9.24,0,0,1-1.57-.13,9.59,9.59,0,0,1-7.92-11l9.63-54.4a17.21,17.21,0,0,0-4.18-14.58l-2.16-2.43L53.25,242.77a9.6,9.6,0,0,1-16-10.6l54.86-80.5-18.2-48.81C71,95.21,75.64,86.4,84.16,83.22a17.44,17.44,0,0,1,13.76.58l.78.4,59-11.71a8.06,8.06,0,0,1,1.55-.15,7.86,7.86,0,0,1,6.52,12.24ZM62.11,13.74c-2,3.08-8.71,6.48-12.77,6.48-1.26,0-2-.29-2.27-.87-1.25-2.87,1.23-6.84,5.42-8.66a11.27,11.27,0,0,1,4.42-.95c2.68,0,4.84,1.11,5.62,2.9C62.57,12.75,62.5,13.14,62.11,13.74Zm109.81,64a13,13,0,0,0-12.4-10.41l-94.87-60a12,12,0,0,0-7.74-2.62A16.29,16.29,0,0,0,50.47,6c-6.82,3-10.44,9.84-8,15.33.63,1.47,2.38,3.92,6.92,3.92,5.79,0,14.06-4.26,17-8.78a8.91,8.91,0,0,0,.83-1.62l84.72,53.58L99.4,78.89a22.57,22.57,0,0,0-17-.42c-11.14,4.15-17.08,15.89-13.25,26.16L86.42,151,33,229.34a14.68,14.68,0,0,0,24.44,16.27l48-70.11a12.07,12.07,0,0,1,1.07,7.55l-9.64,54.43A14.69,14.69,0,0,0,109,254.35a15,15,0,0,0,2.4.2,14.62,14.62,0,0,0,14.47-12.26l10.56-58.93,0-.14c.92-7.43.56-20.17-6.38-38.62l-15.77-42.29,47.46-9.41a12.93,12.93,0,0,0,10.17-15.21Z"/><path class="cls-1" d="M59.63,57.9A14.58,14.58,0,1,1,74.21,72.47,14.59,14.59,0,0,1,59.63,57.9m34.22,0A19.65,19.65,0,1,0,74.21,77.54,19.66,19.66,0,0,0,93.85,57.9"/><path class="cls-1" d="M59.63,57.9A14.58,14.58,0,1,1,74.21,72.47,14.59,14.59,0,0,1,59.63,57.9Zm34.22,0A19.65,19.65,0,1,0,74.21,77.54,19.66,19.66,0,0,0,93.85,57.9Z"/></svg>