<?xml version="1.0" encoding="utf-8"?>
<!-- Generator: Adobe Illustrator 23.0.3, SVG Export Plug-In . SVG Version: 6.00 Build 0)  -->
<svg version="1.1" id="Layer_1" xmlns="http://www.w3.org/2000/svg" xmlns:xlink="http://www.w3.org/1999/xlink" x="0px" y="0px"
	 viewBox="0 0 192.9 314.71" style="enable-background:new 0 0 192.9 314.71;" xml:space="preserve">
<style type="text/css">
	.st0{fill:none;stroke:#000000;stroke-width:5.6693;stroke-miterlimit:10;}
	.st1{fill:#00653A;}
	.st2{fill:#1A428A;}
	.st3{opacity:0.8;fill:#1A428A;}
	.st4{opacity:0.6;fill:#1A428A;}
	.st5{opacity:0.4;fill:#1A428A;}
	.st6{opacity:0.2;fill:#1A428A;}
	.st7{fill:#1D8649;}
	.st8{opacity:0.8;fill:#1D8649;}
	.st9{opacity:0.6;fill:#1D8649;}
	.st10{opacity:0.4;fill:#1D8649;}
	.st11{opacity:0.2;fill:#1D8649;}
</style>
<g>
	<path class="st2" d="M165.77,112.33c-1.17,1.75-2.95,2.93-5.01,3.34l-53.3,10.58l17.71,47.5l0.14,0.39
		c6.55,17.43,6.94,29.27,6.1,36.15l-10.56,58.89c-0.77,4.66-4.75,8.05-9.47,8.05c-0.52,0-1.05-0.04-1.58-0.13
		c-2.53-0.42-4.75-1.8-6.25-3.88c-1.49-2.08-2.09-4.63-1.68-7.13l9.63-54.4c0.93-5.26-0.58-10.56-4.18-14.59l-2.16-2.43
		l-51.94,75.86c-1.79,2.69-4.78,4.29-8.01,4.29c-1.89,0-3.72-0.55-5.31-1.61c-4.41-2.93-5.62-8.91-2.71-13.29l54.87-80.49
		l-18.2-48.81c-2.86-7.65,1.75-16.47,10.27-19.64c4.57-1.7,9.68-1.48,13.76,0.58l0.78,0.39l59.01-11.7c0.51-0.1,1.03-0.15,1.54-0.15
		c3.73,0,6.98,2.66,7.7,6.34C167.36,108.49,166.94,110.59,165.77,112.33 M62.11,41.49c-2.02,3.09-8.71,6.48-12.78,6.48
		c-1.26,0-2.02-0.29-2.27-0.87c-1.25-2.88,1.23-6.84,5.42-8.66c1.44-0.62,2.96-0.95,4.41-0.95c2.69,0,4.84,1.11,5.62,2.91
		C62.57,40.5,62.5,40.89,62.11,41.49 M171.92,105.44c-1.18-5.95-6.37-10.28-12.4-10.41l-94.87-60c-1.97-1.66-4.69-2.61-7.74-2.61
		c-2.14,0-4.37,0.48-6.43,1.37c-6.83,2.96-10.44,9.84-8.05,15.34c0.64,1.46,2.38,3.92,6.92,3.92c5.79,0,14.07-4.26,17.02-8.78
		c0.37-0.57,0.63-1.11,0.83-1.63l84.72,53.58L99.4,106.64c-5.19-2.34-11.42-2.5-17.01-0.42c-11.14,4.16-17.08,15.89-13.25,26.17
		l17.29,46.35l-53.4,78.35c-4.48,6.74-2.64,15.87,4.11,20.35c2.42,1.61,5.22,2.45,8.11,2.45c4.94,0,9.51-2.45,12.22-6.53l48-70.11
		c1.15,2.31,1.54,4.93,1.07,7.54l-9.64,54.43c-0.64,3.87,0.27,7.75,2.56,10.94c2.28,3.19,5.67,5.29,9.54,5.93
		c0.79,0.13,1.6,0.2,2.4,0.2c7.21,0,13.3-5.17,14.46-12.26l10.56-58.93l0.02-0.14c0.92-7.43,0.55-20.17-6.38-38.62l-15.77-42.28
		l47.46-9.42c3.39-0.67,6.31-2.63,8.24-5.5C171.91,112.28,172.6,108.83,171.92,105.44"/>
	<path class="st2" d="M165.77,112.33c-1.17,1.75-2.95,2.93-5.01,3.34l-53.3,10.58l17.71,47.5l0.14,0.39
		c6.55,17.43,6.94,29.27,6.1,36.15l-10.56,58.89c-0.77,4.66-4.75,8.05-9.47,8.05c-0.52,0-1.05-0.04-1.58-0.13
		c-2.53-0.42-4.75-1.8-6.25-3.88c-1.49-2.08-2.09-4.63-1.68-7.13l9.63-54.4c0.93-5.26-0.58-10.56-4.18-14.59l-2.16-2.43
		l-51.94,75.86c-1.79,2.69-4.78,4.29-8.01,4.29c-1.89,0-3.72-0.55-5.31-1.61c-4.41-2.93-5.62-8.91-2.71-13.29l54.87-80.49
		l-18.2-48.81c-2.86-7.65,1.75-16.47,10.27-19.64c4.57-1.7,9.68-1.48,13.76,0.58l0.78,0.39l59.01-11.7c0.51-0.1,1.03-0.15,1.54-0.15
		c3.73,0,6.98,2.66,7.7,6.34C167.36,108.49,166.94,110.59,165.77,112.33z M62.11,41.49c-2.02,3.09-8.71,6.48-12.78,6.48
		c-1.26,0-2.02-0.29-2.27-0.87c-1.25-2.88,1.23-6.84,5.42-8.66c1.44-0.62,2.96-0.95,4.41-0.95c2.69,0,4.84,1.11,5.62,2.91
		C62.57,40.5,62.5,40.89,62.11,41.49z M171.92,105.44c-1.18-5.95-6.37-10.28-12.4-10.41l-94.87-60c-1.97-1.66-4.69-2.61-7.74-2.61
		c-2.14,0-4.37,0.48-6.43,1.37c-6.83,2.96-10.44,9.84-8.05,15.34c0.64,1.46,2.38,3.92,6.92,3.92c5.79,0,14.07-4.26,17.02-8.78
		c0.37-0.57,0.63-1.11,0.83-1.63l84.72,53.58L99.4,106.64c-5.19-2.34-11.42-2.5-17.01-0.42c-11.14,4.16-17.08,15.89-13.25,26.17
		l17.29,46.35l-53.4,78.35c-4.48,6.74-2.64,15.87,4.11,20.35c2.42,1.61,5.22,2.45,8.11,2.45c4.94,0,9.51-2.45,12.22-6.53l48-70.11
		c1.15,2.31,1.54,4.93,1.07,7.54l-9.64,54.43c-0.64,3.87,0.27,7.75,2.56,10.94c2.28,3.19,5.67,5.29,9.54,5.93
		c0.79,0.13,1.6,0.2,2.4,0.2c7.21,0,13.3-5.17,14.46-12.26l10.56-58.93l0.02-0.14c0.92-7.43,0.55-20.17-6.38-38.62l-15.77-42.28
		l47.46-9.42c3.39-0.67,6.31-2.63,8.24-5.5C171.91,112.28,172.6,108.83,171.92,105.44z"/>
	<path class="st2" d="M59.63,85.65c0-8.03,6.54-14.57,14.57-14.57s14.57,6.54,14.57,14.57c0,8.03-6.54,14.57-14.57,14.57
		S59.63,93.68,59.63,85.65 M93.85,85.65c0-10.83-8.81-19.64-19.64-19.64s-19.64,8.81-19.64,19.64c0,10.83,8.81,19.64,19.64,19.64
		S93.85,96.48,93.85,85.65"/>
	<path class="st2" d="M59.63,85.65c0-8.03,6.54-14.57,14.57-14.57s14.57,6.54,14.57,14.57c0,8.03-6.54,14.57-14.57,14.57
		S59.63,93.68,59.63,85.65z M93.85,85.65c0-10.83-8.81-19.64-19.64-19.64s-19.64,8.81-19.64,19.64c0,10.83,8.81,19.64,19.64,19.64
		S93.85,96.48,93.85,85.65z"/>
</g>
</svg>
