<svg xmlns="http://www.w3.org/2000/svg" xmlns:xlink="http://www.w3.org/1999/xlink" width="67" height="87" viewBox="0 0 67 87"><defs><path id="q10ba" d="M601.997 71.827c.038-.886-.26-1.298-.406-1.495-.106-.134-.271-.296-.462-.328-.755-.12-1.525 2.225-.9 3.402.764 1.44 1.699.006 1.768-1.58"/><path id="q10bb" d="M606.639 57c.172.008.158-.385-.488-1.171-.19-.23-.488-.546-.818-.737-.09-.05-.228-.123-.294-.078-.29.198 1.13 1.96 1.6 1.986"/><path id="q10bc" d="M608.433 58.986c.558.139.168-.765-.152-1.196a2.254 2.254 0 0 0-.782-.682c-.17-.09-.302-.124-.384-.101-.436.122.45 1.762 1.318 1.979"/><path id="q10bd" d="M605.569 55.105c-.108-.048-.336-.15-.468-.083-.42.218.554 1.823 1.426 1.974.268.047.576-.301-.082-1.155-.38-.498-.752-.676-.876-.736"/><path id="q10be" d="M608.539 61.795c-.278-.448-.602-.61-.758-.688-.196-.09-.358-.123-.486-.1-.666.127-.14 1.7.946 1.975.48.12.806-.363.298-1.187"/><path id="q10bf" d="M605.584 54.863c.282.002-.058-.68-.424-1.112a3.026 3.026 0 0 0-.742-.634c-.11-.058-.314-.162-.392-.096-.122.106.21.712.568 1.134.33.392.812.706.99.708"/><path id="q10bg" d="M606.594 52.685c.126-.026-.332-.648-.684-1.024a3.431 3.431 0 0 0-.686-.582c-.07-.042-.202-.114-.222-.06-.04.106.516.774.77 1.042.418.434.758.64.822.624"/><path id="q10bh" d="M605.976 62.944c.628.218 1.306-.212.902-1.111-.203-.454-.56-.628-.733-.71-.161-.07-.4-.148-.627-.115-.813.116-.675 1.542.458 1.936"/><path id="q10bi" d="M605.969 64.846c-.102-.442-.427-.618-.584-.704-.164-.078-.407-.165-.649-.136-.687.079-1.199 1.29-.088 1.864.775.4 1.515-.174 1.32-1.024"/><path id="q10bj" d="M604 67.751a2.508 2.508 0 0 0-.525-1.527c-.129-.099-.326-.252-.56-.22-.737.091-1.353 2.417-.505 3.559 1.003 1.358 1.613-.789 1.59-1.812"/><path id="q10bk" d="M608.891 63.85c-.156-.451-.574-.648-.75-.732-.236-.1-.404-.119-.504-.118-.93.014-.812 1.47.156 1.899.816.364 1.352-.316 1.098-1.05"/><path id="q10bl" d="M604.246 57.018c-.564.169-.128 1.597 1.01 1.952.422.13 1.05-.153.474-1.082-.21-.335-.5-.59-.866-.761-.134-.055-.412-.172-.618-.109"/><path id="q10bm" d="M606.31 60.971c.885.21.625-.786.373-1.169-.188-.288-.466-.515-.826-.675-.134-.055-.414-.17-.61-.11-.622.187.006 1.704 1.064 1.954"/><path id="q10bn" d="M606.996 67.728c-.03-.638-.222-1.137-.573-1.485-.126-.11-.313-.274-.551-.238-.71.109-1.4 2.63-.284 3.754.835.837 1.47-.672 1.408-2.031"/><path id="q10bo" d="M605.998 69.723c.026-.922-.256-1.28-.389-1.452-.164-.182-.333-.271-.5-.271-.824.013-1.55 2.59-.785 3.658.67.938 1.624-.166 1.674-1.935"/><path id="q10bp" d="M606.575 55c.01-.076-.358-.636-.864-1.263-.35-.435-.51-.587-.578-.65-.1-.09-.12-.087-.132-.087-.046.123 1.412 1.97 1.574 2"/><path id="q10bq" d="M598.654 62.84c.703.408 1.518.01 1.314-.889-.075-.332-.295-.6-.65-.792-.123-.063-.383-.191-.657-.151-.66.096-1.075 1.217-.007 1.831"/><path id="q10br" d="M601.038 51.915c.174-.002-.012-.302-.224-.5a2.271 2.271 0 0 0-.548-.372c-.068-.024-.196-.066-.242-.026-.18.142.684.908 1.014.898"/><path id="q10bs" d="M598.11 53.03c-.294.183.024 1.057.71 1.281.444.146.414-.394.264-.668-.142-.262-.412-.456-.54-.548-.092-.042-.306-.146-.434-.066"/><path id="q10bt" d="M598.795 51.92c.214.012.174-.242-.002-.462a1.732 1.732 0 0 0-.5-.406c-.056-.026-.184-.086-.252-.026-.06.05-.08.214.12.448.296.352.51.434.634.446"/><path id="q10bu" d="M601.206 54.489c.258.034.254-.206.25-.256-.012-.166-.018-.242-.314-.604-.284-.344-.518-.47-.628-.53-.216-.108-.382-.126-.46-.06-.27.232.524 1.362 1.152 1.45"/><path id="q10bv" d="M596.59 60.805c.867.541 1.471-.145 1.32-.836-.103-.451-.457-.673-.605-.766-.198-.117-.492-.243-.754-.191-.504.104-.952 1.173.038 1.793"/><path id="q10bw" d="M598.605 56.663c.51.336 1.196.028.914-.778-.046-.136-.206-.488-.64-.75-.096-.052-.294-.164-.492-.128-.32.058-.416.456-.38.722.066.492.594.932.598.934"/><path id="q10bx" d="M600.737 55.147c-.138-.07-.394-.202-.564-.122-.418.194-.076 1.584.992 1.916.578.176.604-.514.316-1.058a1.772 1.772 0 0 0-.744-.736"/><path id="q10by" d="M603.469 52.472c.322.018.036-.474-.3-.824-.33-.342-.69-.54-.826-.618-.074-.018-.23-.054-.3-.008-.284.202.914 1.42 1.426 1.45"/><path id="q10bz" d="M603.475 52.333c.13 0 .014-.196-.068-.318-.074-.108-.126-.186-.49-.502-.352-.308-.546-.404-.638-.448-.136-.066-.238-.082-.268-.048-.14.174 1.13 1.318 1.464 1.316"/><path id="q10bA" d="M605.292 50.023c.028-.048-.314-.372-.624-.62a3.292 3.292 0 0 0-.54-.362c-.082-.04-.11-.046-.128-.038-.024.112 1.154 1.05 1.292 1.02"/><path id="q10bB" d="M601.056 49.68c.004 0 .126-.038-.448-.402-.286-.182-.412-.232-.466-.252-.104-.038-.134-.026-.14-.018-.058.078.926.706 1.054.672"/><path id="q10bC" d="M601.159 49.853c.132-.018-.148-.31-.4-.502-.26-.194-.48-.286-.564-.322-.05-.016-.156-.044-.184-.018-.128.114.904.872 1.148.842"/><path id="q10bD" d="M602.536 55.12c-.122-.063-.348-.175-.466-.089-.184.136.028.766.264 1.106.498.72 1.086.856 1.092.856.43.078.32-.6-.08-1.164-.312-.442-.688-.644-.81-.71"/><path id="q10bE" d="M594.4 56.004c.468.244.642-.108.528-.458-.088-.272-.338-.466-.448-.546-.108.01-.218-.006-.32.03-.284.102-.182.752.24.974"/><path id="q10bF" d="M592.221 75.658c.48.665 1.619.298 1.768-.57.032-.193.023-.565-.41-.893-.085-.056-.226-.154-.423-.186-.66-.106-1.585.743-.935 1.649"/><path id="q10bG" d="M587.516 82.287c-.11-.084-.344-.26-.626-.285-.554-.049-1.243.679-.68 1.45.708.972 1.745.51 1.79-.293.01-.211-.065-.535-.484-.872"/><path id="q10bH" d="M589.993 81.15c.043-.323-.11-.656-.422-.906a1.059 1.059 0 0 0-.526-.238c-.614-.081-1.418.639-.854 1.502.597.913 1.702.415 1.802-.358"/><path id="q10bI" d="M601.085 57.136c-.122-.056-.377-.168-.62-.127-.777.132-.53 1.398.367 1.855.785.4 1.408-.135 1.077-.924-.135-.32-.436-.613-.824-.804"/><path id="q10bJ" d="M593.995 69.076c.048-.425-.276-.73-.432-.879-.121-.067-.304-.17-.533-.194-.718-.069-1.37.914-.832 1.563.75.903 1.72.228 1.797-.49"/><path id="q10bK" d="M602.948 60.913c.805.327 1.255-.324.962-1.028-.127-.308-.4-.557-.803-.743-.142-.06-.435-.184-.685-.128-.464.107-.446.77-.4.94.178.642.917.956.926.959"/><path id="q10bL" d="M608.489 56.998c.166.041-.2-.644-.676-1.263-.318-.412-.504-.561-.594-.634-.07-.053-.16-.111-.196-.1-.214.073 1.142 1.92 1.466 1.997"/><path id="q10bM" d="M602.667 64.856c.83.444 1.493-.212 1.299-.977-.113-.434-.467-.629-.636-.721-.266-.135-.502-.183-.703-.146-.573.105-1.081 1.248.04 1.844"/><path id="q10bN" d="M602.724 49.54c-.122-.094-.24-.194-.364-.286-.092-.068-.206-.15-.294-.21-.014-.01-.03-.018-.044-.03L602 49c.018.02.432.326.724.54"/><path id="q10bO" d="M610.28 60.995c.213.056.273-.365-.275-1.195-.218-.327-.436-.566-.658-.708-.066-.038-.172-.103-.25-.09-.422.062.638 1.85 1.184 1.993"/><path id="q10bP" d="M609.012 61c-.118.125.684 1.77.98 1.998a.24.24 0 0 0 .026.002c.024-.056-.046-.292-.176-.61-.102-.235-.21-.47-.33-.704-.202-.38-.32-.53-.37-.592-.072-.084-.092-.087-.13-.094"/><path id="q10bQ" d="M604 51.004c.002.01 1.294 1.356 1.418 1.39-.004-.008-.024-.028-.032-.038-.29-.31-.584-.616-.886-.912-.248-.238-.41-.382-.468-.43-.024-.016-.024-.016-.032-.01"/><path id="q10bR" d="M599.657 74.186a.97.97 0 0 0-.505-.185c-.697-.037-1.49 1.052-1 1.646.63.76 1.713.188 1.84-.729.058-.429-.207-.634-.335-.732"/><path id="q10bS" d="M609.599 64c-.816.06-.79 3.3.03 3.892.79.574.982-1.287.89-2.202-.092-.935-.408-1.322-.542-1.485-.082-.081-.22-.216-.378-.204"/><path id="q10bT" d="M609.198 61.002c-.44.055-.122 1.698.698 1.97.638.21.412-.81.254-1.162-.202-.447-.482-.625-.604-.703-.096-.055-.234-.118-.348-.105"/><path id="q10bU" d="M591.956 86.124c.159-.464-.155-.786-.29-.924-1.111-.678-1.771.542-1.652 1.068.206.9 1.557.98 1.942-.144"/><path id="q10bV" d="M589.243 84.983c.43-.066.714-.543.75-.861.056-.458-.26-.732-.396-.851a1.202 1.202 0 0 0-.503-.255c-.698-.14-1.385.655-.967 1.398.095.169.384.685 1.116.57"/><path id="q10bW" d="M591.655 82.255a1.197 1.197 0 0 0-.39-.217c-.778-.245-1.494.76-1.196 1.375.109.224.522.674 1.049.572.209-.04.771-.286.872-.945.066-.435-.205-.673-.335-.785"/><path id="q10bX" d="M598.926 79.965c.65-.21.918-.673 1.026-1.021.148-.474-.084-.68-.209-.793-.044-.03-.102-.071-.148-.09-.712-.333-1.851.773-1.543 1.497.125.292.474.535.874.407"/><path id="q10bY" d="M591.625 76.235c-.094-.066-.252-.18-.467-.222-.705-.134-1.47.778-1.027 1.49.04.063.405.618 1.054.473.59-.132.762-.557.807-.888.042-.337-.08-.625-.367-.853"/><path id="q10bZ" d="M595.96 80.973c.134-.472-.099-.683-.213-.786a.789.789 0 0 0-.169-.109c-.78-.375-1.832.674-1.523 1.516.25.67 1.571.541 1.904-.621"/><path id="q10baa" d="M593.967 84.008a.741.741 0 0 0-.244-.802c-.061-.044-.146-.11-.252-.153-.726-.29-1.696.675-1.424 1.413.378 1.033 1.686.394 1.92-.458"/><path id="q10bab" d="M595.512 66.178c-.129-.065-.324-.167-.558-.177-.648-.032-1.344.96-.694 1.617.878.886 1.692.035 1.738-.579.03-.447-.332-.738-.486-.861"/><path id="q10bac" d="M596.093 77.57c.488.804 1.709.411 1.893-.608.078-.437-.19-.656-.318-.762a1.014 1.014 0 0 0-.395-.185c-.727-.155-1.554.935-1.18 1.556"/><path id="q10bad" d="M597.574 72.188a1.056 1.056 0 0 0-.45-.182c-.68-.087-1.584.834-.852 1.713.376.457 1.017.22 1.022.217.52-.216.684-.744.701-.93.048-.466-.282-.713-.42-.818"/><path id="q10bae" d="M593.693 80.22c-.11-.07-.212-.137-.366-.183-.804-.246-1.57.803-1.254 1.423.504 1 1.69.458 1.903-.39.105-.423-.157-.71-.283-.85"/><path id="q10baf" d="M599.054 68.002c-.685-.053-1.525.916-.734 1.766.447.478 1.605.213 1.677-.75.016-.197-.029-.569-.48-.858-.095-.052-.253-.143-.463-.158"/><path id="q10bag" d="M600.44 65.801c.69.475 1.66.07 1.552-.893-.05-.461-.36-.655-.509-.748a1.147 1.147 0 0 0-.612-.158c-.733.045-1.301 1.199-.43 1.799"/><path id="q10bah" d="M599.408 63.171c-.116-.063-.354-.193-.627-.168-.776.075-1.13 1.245-.323 1.795.808.547 1.571-.116 1.541-.798-.011-.224-.122-.55-.591-.829"/><path id="q10bai" d="M611.336 63.194c-.042-.076-.112-.203-.174-.193-.386.056-.014 3.588.418 3.98.208.188.26-1.056.104-2.329-.084-.658-.2-1.15-.348-1.458"/><path id="q10baj" d="M587.426 87.169c-.132-.056-.478-.196-.858-.164-.372.036-.812.3-.406.638.622.522 1.782.42 1.746-.032-.004-.09-.078-.268-.482-.442"/><path id="q10bak" d="M589.381 87.078c-1.026-.242-1.406.146-1.38.268.07.33 1.394.36 1.61.04.086-.126-.122-.244-.23-.308"/><path id="q10bal" d="M588 86.02c.011-.362-.329-.658-.473-.788-.126-.064-.389-.206-.682-.23-.62-.046-1.105.558-.69 1.126.64.87 1.822.67 1.845-.108"/><path id="q10bam" d="M586.916 87.122c-.57-.178-.868-.14-.912-.018-.082.236 1.128.556 1.41.37.004-.02.012-.062-.036-.118-.098-.112-.344-.196-.462-.234"/><path id="q10ban" d="M593.908 87.074c-.551-.256-1.796.212-1.902.53-.111.346 1.305.088 1.797-.202.32-.188.169-.29.105-.328"/><path id="q10bao" d="M591.733 87.141c-.87-.438-1.742.256-1.733.558.014.606 1.475.566 1.93-.054.137-.186.073-.354-.197-.504"/><path id="q10bap" d="M589.62 85.2a2.397 2.397 0 0 0-.184-.099c-.822-.358-1.607.312-1.404.798.3.71 1.733.82 1.953-.056.091-.36-.253-.574-.364-.644"/><path id="q10baq" d="M593.798 85.13c-.623-.427-1.831.269-1.797 1.03.04.94 1.456.609 1.909-.24a.633.633 0 0 0-.112-.79"/><path id="q10bar" d="M584.317 85.254c-.164-.08-.66-.328-1.014-.232-.368.094-.56.56.384 1.114.832.49 1.33.172 1.234-.2-.07-.274-.43-.548-.604-.682"/><path id="q10bas" d="M586.406 85.228c-.202-.086-.672-.292-1.04-.208-.27.064-.676.424.016.87.984.626 1.678.312 1.588-.1-.052-.244-.398-.458-.564-.562"/><path id="q10bat" d="M594.414 62.699c.991.787 1.604-.162 1.586-.653-.022-.438-.414-.74-.604-.888-.107-.052-.335-.164-.576-.158-.63.012-1.258 1.02-.406 1.699"/><path id="q10bau" d="M583.82 85.186c-.38-.182-.63-.232-.75-.142-.325.244.567.8 1.083.916.284.058.474-.036.3-.3-.096-.148-.31-.31-.634-.474"/><path id="q10bav" d="M585.964 87.176c-.53-.218-.93-.234-.962-.042-.03.184.326.41.668.538.662.248.862.174.966.082-.01-.044-.022-.114-.102-.208-.154-.19-.434-.314-.57-.37"/><path id="q10baw" d="M586.146 87.33c-.184-.092-.498-.194-.63-.238-.14-.036-.516-.14-.516-.066 0 .118 1.204.504 1.286.416-.002-.038-.088-.084-.14-.112"/><path id="q10bax" d="M595.817 83.182c-.69-.646-1.901.58-1.812 1.289.08.658.68.53.798.496.486-.127.958-.668 1.11-1.008.206-.451-.006-.68-.096-.777"/><path id="q10bay" d="M608.768 72c-.211.096-.783.347-1.173 1.19-.102.222-.293.633-.51 1.677-.114.553-.114.553 0 .778.694 1.377 1.747-1.696 1.76-1.727.327-1.114.056-1.651-.075-1.913 0 0 0-.003-.002-.005"/><path id="q10baz" d="M608.591 68.145c-.102-.06-.27-.158-.473-.144-.944.073-1.643 2.989-.595 3.863.75.626 1.441-1.05 1.475-2.169.026-.858-.277-1.343-.407-1.55"/><path id="q10baA" d="M605.563 74.04c-.754-.4-1.907 2.33-1.465 3.482.489 1.274 1.531-.23 1.836-1.796.174-.9-.038-1.276-.14-1.456a.684.684 0 0 0-.23-.23"/><path id="q10baB" d="M606.969 73.731c.085-.634-.006-1.175-.262-1.532-.083-.094-.162-.185-.32-.197-.923-.082-1.823 2.825-1.157 3.746.59.817 1.524-.487 1.739-2.017"/><path id="q10baC" d="M610.249 70c-.37-.02-.858 1.053-1.024 1.659a6.338 6.338 0 0 0-.222 1.554c-.008.414-.008.414.18.635.674.798 1.33-1.799 1.338-1.827.218-1.21.108-1.56-.024-1.814-.048-.081-.118-.196-.248-.207"/><path id="q10baD" d="M589.5 38c21.733 0 33.5 8.3 33.5 8.3V75.31c-7.101 6.987-26.28 23.54-47.206 27.914-26.447 5.53-2.49-20.342-2.49-20.342-3.778 3-10.033 8.932-13.941 14.655-2.073-4.255-3.363-8.92-3.363-13.936V46.299S567.628 38 589.5 38m20.162 21.174a21.612 21.612 0 0 0-.88-2.008c.275.604.634 1.388.88 2.008m-8.537 24.22l.046-.05c-.425.267-.667.35-.868.296-.519.718-.519.718-.74.923.217-.104.877-.416 1.562-1.169m2.44-2.117c.01-.014.027-.033.036-.047-.346.268-.514.372-.598.27-.033-.062.007-.14-.034-.201-.237.396-.4.835-.689 1.202.495-.196.792-.584 1.285-1.224m2.355-2.537c.012-.015.025-.038.036-.054-.337.34-.574.438-.849.487.094.137-.03.348-.39.978.477-.225.797-.75 1.203-1.41m1.973-1.183c.007-.007.013-.018.019-.027-.233.312-.368.432-.484.435-.078.19-.202.36-.243.565 0 .01-.003.023.001.032.015.029.117-.015.253-.206.042-.06.042-.06.454-.799m2.166-4.412c-.035.092-.065.174-.095.258a21.378 21.378 0 0 0 1.03-5.363l-.042-3.154v.003a21.258 21.258 0 0 0-.528-3.208c-.055-.235-.12-.497-.204-.79l-.033-.113a21.52 21.52 0 0 0-.518-1.577c-.279-.708-.642-1.38-.917-2.09l.003.002a21.532 21.532 0 0 0-3.552-5.061 11.586 11.586 0 0 0-.547-.568c-.038-.038-.056-.054-.09-.085a21.682 21.682 0 0 0-2.044-1.76c.103.077.188.139.201.146a18.964 18.964 0 0 0-.464-.349c-.07-.052-.14-.1-.21-.152l-.016-.01-.016-.012a21.437 21.437 0 0 0-12.498-4c-11.881 0-21.515 9.616-21.515 21.48 0 10.957 8.217 19.997 18.835 21.315-.056-.011-.1-.02-.108-.033.016-.021.187.005.366.036.121.022.242.046.364.066.326.03.655.055.984.07-.136-.017-.13-.04-.119-.05.009-.011.103-.089.592-.007.058.015.207.049.216.07-.002.003-.005.006-.012.01.134 0 .264.003.397.003.153 0 .306-.002.458-.005v-.002c.026-.018.523-.172.885-.096.038.007.088.02.063.04-.005.003-.024.015-.077.022.243-.015.486-.032.724-.055.083-.016.208-.043.433-.093.301-.065.804-.176.9-.12v.01c-.008.007-.034.034-.23.07.252-.037.5-.08.748-.124 3.141-.678 4.506-1.538 5.163-1.95-1.05.309-1.885 1.143-3.026 1.224l-.084-.074c.066-.125 1.31-1.296 2.416-1.25.113-.166.175-.255.61-.6-.887.154-.887.154-1.041.048.037.09.079.183-.045.341-.376.48-2.24 1.343-2.33.71-.036-.272 1.412-1.701 2.349-1.097 0-.015.16-1.525 2.411-1.867.163-.026.22-.083.336-.195-.149-.44.78-1.46.788-1.47.441-.434 1.055-.55 1.566-.853-.014-.329.411-1 .54-1.197-.319.283-.804.71-1.178.385-.908-.795.447-2.86 1.52-2.86.847 0 .903 1.042.111 1.989.201-.138.885-.576 1.211-.425.794-.427.5-1.364.929-1.963a3.053 3.053 0 0 1 1.15-.944c.494-.066.494-.066-.101 1.887.45-.49.616-.552.779-.613.028.022.069.052.097.075.43-1.155.917-2.464 1.601-2.59.1-.94.812-3.093 1.092-3.076.036.001.043.057.05.107.003.392-.238 1.252-.31 1.504-.15.51-.65 1.835-.803 1.867-.028-.032-.039-.096-.042-.182-.057.3-.202.67-.533 1.5.506-.744.535-.792 1.315-2.897-.062.187-.12.375-.181.562l.281-.834-.005.014m-.302.895l-.003.009.001-.004zm-.065.181c.022-.057.042-.114.062-.172l-.062.172zm-.935-17.104a.01.01 0 0 0-.002-.004l.002.004zm1.026 16.848l-.026.075a9.65 9.65 0 0 0 .026-.075z"/><path id="q10baE" d="M609.641 66.002c-.628-.107-.904 3.314-.32 3.938.36.384.68-1.159.718-2.14.032-.945-.138-1.453-.206-1.645-.054-.066-.11-.138-.192-.153"/><path id="q10baF" d="M603.986 73.793c.078-.846-.183-1.375-.295-1.602-.107-.081-.207-.157-.36-.183-.895-.165-1.716 2.342-1.139 3.483.69 1.366 1.666-.3 1.794-1.698"/><path id="q10baG" d="M583.462 87.113c-.006-.002-.4-.158-.456-.1-.026.024.026.138.356.308.24.118.66.274.76.258.08-.012-.02-.108-.102-.17-.174-.128-.454-.248-.558-.296"/><path id="q10baH" d="M597.85 82.166a.697.697 0 0 0-.073-.06c-.67-.466-1.904.714-1.766 1.44.174.929 1.456.277 1.87-.563.25-.508.04-.74-.03-.817"/><path id="q10baI" d="M593.759 87.717c.245-.244.302-.444.176-.598-.488-.432-1.891.408-1.934.978-.045.64 1.26.116 1.758-.38"/><path id="q10baJ" d="M595.174 87.193c-.67.302-1.183.654-1.174.758.08.082 1.058-.226 1.564-.496.3-.156.447-.288.435-.386-.001-.004-.001-.01-.004-.012-.08-.11-.384-.058-.82.136"/><path id="q10baK" d="M600.03 81.663c.065.197.256.49.806.24.657-.297 1.073-1.088 1.077-1.096.175-.362.045-.52-.033-.614a.83.83 0 0 0-.18-.132c-.647-.347-1.911.865-1.67 1.602"/><path id="q10baL" d="M601.49 76.021c-.897-.197-1.78 1.037-1.399 1.632.507.793 1.659.086 1.877-.72.114-.422-.106-.69-.212-.818-.068-.03-.159-.07-.265-.094"/><path id="q10baM" d="M586.996 84.082c-.035-.384-.37-.644-.515-.756-.244-.178-.603-.378-.94-.314-.315.06-.97.62-.126 1.434.817.786 1.646.338 1.581-.364"/><path id="q10baN" d="M589.016 74.005c-.687-.083-1.33.814-.85 1.47.722.993 1.72.4 1.826-.32.065-.449-.3-.807-.476-.978-.116-.057-.289-.147-.5-.172"/><path id="q10baO" d="M588.694 60.104c.128-.048.282-.108.318-.42a.717.717 0 0 0-.198-.574c-.048-.042-.112-.098-.23-.108-.43-.034-.814.508-.42 1.006.162.204.38.154.53.096"/><path id="q10baP" d="M587.99 71.17c.071-.452-.255-.807-.38-.942a1.44 1.44 0 0 0-.549-.22c-.747-.106-1.404.817-.862 1.525.7.913 1.682.322 1.791-.362"/><path id="q10baQ" d="M589.319 65.94c.604-.22.618-.466.638-.874.022-.473-.204-.684-.326-.793-.294-.24-.566-.273-.704-.273-.748.008-1.276 1.041-.648 1.676.172.175.542.446 1.04.263"/><path id="q10baR" d="M586.992 67.17c.064-.467-.277-.863-.422-1.034-.12-.037-.283-.091-.448-.12-1.008-.167-1.389.963-.928 1.543.625.79 1.683.43 1.798-.389"/><path id="q10baS" d="M586.998 73.115c.03-.429-.273-.702-.403-.817-.232-.192-.466-.292-.691-.298-.643-.012-1.333.878-.566 1.683.594.621 1.603.276 1.66-.568"/><path id="q10baT" d="M585.675 64.182c.244-.088.334-.212.378-.518.042-.282-.084-.422-.142-.492a.556.556 0 0 0-.34-.17c-.44-.04-.748.63-.456.998a.5.5 0 0 0 .56.182"/><path id="q10baU" d="M585.247 79.522c.143.174.527.566 1.014.46.698-.148.726-.648.737-.835.027-.458-.268-.716-.427-.86-.107-.08-.335-.254-.617-.283a.9.9 0 0 0-.707 1.518"/><path id="q10baV" d="M591.993 67.155c.045-.337-.127-.69-.462-.954-.1-.067-.252-.174-.48-.197-.61-.066-1.52.688-.765 1.67.451.585 1.581.365 1.707-.519"/><path id="q10baW" d="M592.29 65.647c.65.68 1.707.318 1.71-.588.005-.337-.164-.635-.486-.86a1.06 1.06 0 0 0-.508-.197c-.72-.057-1.416.91-.715 1.645"/><path id="q10baX" d="M595.222 57.725c-.018-.152-.106-.374-.402-.584-.08-.054-.228-.152-.388-.14-.354.03-.726.736-.078 1.246.592.466.918-.132.868-.522"/><path id="q10baY" d="M593.577 59.89c-.02-.384-.268-.588-.374-.674-.18-.136-.368-.212-.532-.216-.604-.01-.958.974-.37 1.528.514.482 1.324.2 1.276-.638"/><path id="q10baZ" d="M591.265 62.9c.254-.102.52-.208.55-.8.024-.486-.282-.798-.416-.91-.09-.066-.218-.166-.428-.186-.736-.074-1.382.884-.648 1.698.258.28.572.35.942.198"/><path id="q10bba" d="M590.173 73.522c.745.957 1.732.3 1.821-.435.053-.421-.255-.715-.4-.856-.125-.075-.31-.191-.544-.225-.688-.093-1.382.868-.877 1.516"/><path id="q10bbb" d="M581.657 83.188c-.114-.068-.456-.268-.598-.154-.28.226.508.818.918.908.264.058.308-.124.18-.324-.088-.138-.256-.282-.5-.43"/><path id="q10bbc" d="M582.996 83.108c-.046-.362-.407-.664-.58-.808-.18-.11-.546-.332-.88-.296-.449.044-.908.69-.067 1.384 1.058.874 1.583.164 1.527-.28"/><path id="q10bbd" d="M581.74 85.373c-.148-.13-.282-.204-.346-.24-.198-.104-.368-.158-.39-.122-.06.084.584.56.844.56.116-.002-.014-.116-.108-.198"/><path id="q10bbe" d="M580.618 80.998c-.056-.358-.382-.656-.492-.754-.142-.082-.476-.276-.754-.24-.47.056-.566.818.136 1.326.774.562 1.186.122 1.11-.332"/><path id="q10bbf" d="M582.036 83.217c-.162-.082-.592-.3-.852-.184-.334.144-.274.792.684 1.254.726.348.898-.08.786-.396-.11-.31-.48-.572-.618-.674"/><path id="q10bbg" d="M579.884 74.148a.946.946 0 0 0-.362-.144c-.412-.06-.752.512-.326 1.04.524.658 1.026.328 1.062-.118.028-.328-.246-.63-.374-.778"/><path id="q10bbh" d="M583.272 81.489c.184.221.616.575 1.06.5.668-.105.668-.568.668-.787 0-.333-.159-.633-.472-.886-.124-.092-.383-.289-.698-.314-.638-.051-1.174.75-.558 1.487"/><path id="q10bbi" d="M579.711 82.217c-.288-.22-.454-.234-.548-.206-.314.088-.182.67.46 1.016.336.184.588.032.494-.304-.068-.238-.294-.42-.406-.506"/><path id="q10bbj" d="M583.668 65.228c.322-.088.358-.286.398-.492.06-.332-.06-.476-.118-.546a.63.63 0 0 0-.346-.182c-.528-.094-.746.674-.504 1.002.13.176.38.27.57.218"/><path id="q10bbk" d="M584.198 71.977c.588-.157.628-.488.66-.779.062-.52-.178-.769-.294-.887a1.133 1.133 0 0 0-.638-.306c-.788-.089-1.236.988-.676 1.62.264.296.636.433.948.352"/><path id="q10bbl" d="M583.248 75.495c.82.963 1.718.378 1.751-.34.016-.293-.146-.584-.472-.862-.122-.098-.346-.276-.64-.291-.568-.042-1.268.755-.64 1.493"/><path id="q10bbm" d="M581.471 79.636c.887.805 1.556.096 1.528-.422-.02-.369-.309-.697-.432-.837-.164-.126-.508-.389-.866-.377-.548.018-1.138.807-.23 1.636"/><path id="q10bbn" d="M577.292 76c-.414.019-.382.61.056.97.204.169.372.143.454.11.104-.041.204-.077.178-.351-.016-.136-.076-.336-.29-.544-.064-.06-.218-.196-.398-.184"/><path id="q10bbo" d="M582.578 73.037c.018-.364-.21-.608-.32-.722-.2-.198-.392-.298-.574-.314-.476-.024-1.014.764-.428 1.42.662.74 1.292.196 1.322-.384"/><path id="q10bbp" d="M588.719 125s23.987-8.373 33.281-38c-11.522 11.993-42.03 25.26-53 23.85 9.791 10.63 19.719 14.15 19.719 14.15z"/></defs><g><g clip-path="url(#clip-B58A885A-AED0-4D51-B2E9-14EFBED92A9F)" transform="translate(-556 -38)"><use fill="#fff" xlink:href="#q10ba"/></g><g clip-path="url(#clip-B58A885A-AED0-4D51-B2E9-14EFBED92A9F)" transform="translate(-556 -38)"><use fill="#fff" xlink:href="#q10bb"/></g><g clip-path="url(#clip-B58A885A-AED0-4D51-B2E9-14EFBED92A9F)" transform="translate(-556 -38)"><use fill="#fff" xlink:href="#q10bc"/></g><g clip-path="url(#clip-B58A885A-AED0-4D51-B2E9-14EFBED92A9F)" transform="translate(-556 -38)"><use fill="#fff" xlink:href="#q10bd"/></g><g clip-path="url(#clip-B58A885A-AED0-4D51-B2E9-14EFBED92A9F)" transform="translate(-556 -38)"><use fill="#fff" xlink:href="#q10be"/></g><g clip-path="url(#clip-B58A885A-AED0-4D51-B2E9-14EFBED92A9F)" transform="translate(-556 -38)"><use fill="#fff" xlink:href="#q10bf"/></g><g clip-path="url(#clip-B58A885A-AED0-4D51-B2E9-14EFBED92A9F)" transform="translate(-556 -38)"><use fill="#fff" xlink:href="#q10bg"/></g><g clip-path="url(#clip-B58A885A-AED0-4D51-B2E9-14EFBED92A9F)" transform="translate(-556 -38)"><use fill="#fff" xlink:href="#q10bh"/></g><g clip-path="url(#clip-B58A885A-AED0-4D51-B2E9-14EFBED92A9F)" transform="translate(-556 -38)"><use fill="#fff" xlink:href="#q10bi"/></g><g clip-path="url(#clip-B58A885A-AED0-4D51-B2E9-14EFBED92A9F)" transform="translate(-556 -38)"><use fill="#fff" xlink:href="#q10bj"/></g><g clip-path="url(#clip-B58A885A-AED0-4D51-B2E9-14EFBED92A9F)" transform="translate(-556 -38)"><use fill="#fff" xlink:href="#q10bk"/></g><g clip-path="url(#clip-B58A885A-AED0-4D51-B2E9-14EFBED92A9F)" transform="translate(-556 -38)"><use fill="#fff" xlink:href="#q10bl"/></g><g clip-path="url(#clip-B58A885A-AED0-4D51-B2E9-14EFBED92A9F)" transform="translate(-556 -38)"><use fill="#fff" xlink:href="#q10bm"/></g><g clip-path="url(#clip-B58A885A-AED0-4D51-B2E9-14EFBED92A9F)" transform="translate(-556 -38)"><use fill="#fff" xlink:href="#q10bn"/></g><g clip-path="url(#clip-B58A885A-AED0-4D51-B2E9-14EFBED92A9F)" transform="translate(-556 -38)"><use fill="#fff" xlink:href="#q10bo"/></g><g clip-path="url(#clip-B58A885A-AED0-4D51-B2E9-14EFBED92A9F)" transform="translate(-556 -38)"><use fill="#fff" xlink:href="#q10bp"/></g><g clip-path="url(#clip-B58A885A-AED0-4D51-B2E9-14EFBED92A9F)" transform="translate(-556 -38)"><use fill="#fff" xlink:href="#q10bq"/></g><g clip-path="url(#clip-B58A885A-AED0-4D51-B2E9-14EFBED92A9F)" transform="translate(-556 -38)"><use fill="#fff" xlink:href="#q10br"/></g><g clip-path="url(#clip-B58A885A-AED0-4D51-B2E9-14EFBED92A9F)" transform="translate(-556 -38)"><use fill="#fff" xlink:href="#q10bs"/></g><g clip-path="url(#clip-B58A885A-AED0-4D51-B2E9-14EFBED92A9F)" transform="translate(-556 -38)"><use fill="#fff" xlink:href="#q10bt"/></g><g clip-path="url(#clip-B58A885A-AED0-4D51-B2E9-14EFBED92A9F)" transform="translate(-556 -38)"><use fill="#fff" xlink:href="#q10bu"/></g><g clip-path="url(#clip-B58A885A-AED0-4D51-B2E9-14EFBED92A9F)" transform="translate(-556 -38)"><use fill="#fff" xlink:href="#q10bv"/></g><g clip-path="url(#clip-B58A885A-AED0-4D51-B2E9-14EFBED92A9F)" transform="translate(-556 -38)"><use fill="#fff" xlink:href="#q10bw"/></g><g clip-path="url(#clip-B58A885A-AED0-4D51-B2E9-14EFBED92A9F)" transform="translate(-556 -38)"><use fill="#fff" xlink:href="#q10bx"/></g><g clip-path="url(#clip-B58A885A-AED0-4D51-B2E9-14EFBED92A9F)" transform="translate(-556 -38)"><use fill="#fff" xlink:href="#q10by"/></g><g clip-path="url(#clip-B58A885A-AED0-4D51-B2E9-14EFBED92A9F)" transform="translate(-556 -38)"><use fill="#fff" xlink:href="#q10bz"/></g><g clip-path="url(#clip-B58A885A-AED0-4D51-B2E9-14EFBED92A9F)" transform="translate(-556 -38)"><use fill="#fff" xlink:href="#q10bA"/></g><g clip-path="url(#clip-B58A885A-AED0-4D51-B2E9-14EFBED92A9F)" transform="translate(-556 -38)"><use fill="#fff" xlink:href="#q10bB"/></g><g clip-path="url(#clip-B58A885A-AED0-4D51-B2E9-14EFBED92A9F)" transform="translate(-556 -38)"><use fill="#fff" xlink:href="#q10bC"/></g><g clip-path="url(#clip-B58A885A-AED0-4D51-B2E9-14EFBED92A9F)" transform="translate(-556 -38)"><use fill="#fff" xlink:href="#q10bD"/></g><g clip-path="url(#clip-B58A885A-AED0-4D51-B2E9-14EFBED92A9F)" transform="translate(-556 -38)"><use fill="#fff" xlink:href="#q10bE"/></g><g clip-path="url(#clip-B58A885A-AED0-4D51-B2E9-14EFBED92A9F)" transform="translate(-556 -38)"><use fill="#fff" xlink:href="#q10bF"/></g><g clip-path="url(#clip-B58A885A-AED0-4D51-B2E9-14EFBED92A9F)" transform="translate(-556 -38)"><use fill="#fff" xlink:href="#q10bG"/></g><g clip-path="url(#clip-B58A885A-AED0-4D51-B2E9-14EFBED92A9F)" transform="translate(-556 -38)"><use fill="#fff" xlink:href="#q10bH"/></g><g clip-path="url(#clip-B58A885A-AED0-4D51-B2E9-14EFBED92A9F)" transform="translate(-556 -38)"><use fill="#fff" xlink:href="#q10bI"/></g><g clip-path="url(#clip-B58A885A-AED0-4D51-B2E9-14EFBED92A9F)" transform="translate(-556 -38)"><use fill="#fff" xlink:href="#q10bJ"/></g><g clip-path="url(#clip-B58A885A-AED0-4D51-B2E9-14EFBED92A9F)" transform="translate(-556 -38)"><use fill="#fff" xlink:href="#q10bK"/></g><g clip-path="url(#clip-B58A885A-AED0-4D51-B2E9-14EFBED92A9F)" transform="translate(-556 -38)"><use fill="#fff" xlink:href="#q10bL"/></g><g clip-path="url(#clip-B58A885A-AED0-4D51-B2E9-14EFBED92A9F)" transform="translate(-556 -38)"><use fill="#fff" xlink:href="#q10bM"/></g><g clip-path="url(#clip-B58A885A-AED0-4D51-B2E9-14EFBED92A9F)" transform="translate(-556 -38)"><use fill="#fff" xlink:href="#q10bN"/></g><g clip-path="url(#clip-B58A885A-AED0-4D51-B2E9-14EFBED92A9F)" transform="translate(-556 -38)"><use fill="#fff" xlink:href="#q10bO"/></g><g clip-path="url(#clip-B58A885A-AED0-4D51-B2E9-14EFBED92A9F)" transform="translate(-556 -38)"><use fill="#fff" xlink:href="#q10bP"/></g><g clip-path="url(#clip-B58A885A-AED0-4D51-B2E9-14EFBED92A9F)" transform="translate(-556 -38)"><use fill="#fff" xlink:href="#q10bQ"/></g><g clip-path="url(#clip-B58A885A-AED0-4D51-B2E9-14EFBED92A9F)" transform="translate(-556 -38)"><use fill="#fff" xlink:href="#q10bR"/></g><g clip-path="url(#clip-B58A885A-AED0-4D51-B2E9-14EFBED92A9F)" transform="translate(-556 -38)"><use fill="#fff" xlink:href="#q10bS"/></g><g clip-path="url(#clip-B58A885A-AED0-4D51-B2E9-14EFBED92A9F)" transform="translate(-556 -38)"><use fill="#fff" xlink:href="#q10bT"/></g><g clip-path="url(#clip-B58A885A-AED0-4D51-B2E9-14EFBED92A9F)" transform="translate(-556 -38)"><use fill="#fff" xlink:href="#q10bU"/></g><g clip-path="url(#clip-B58A885A-AED0-4D51-B2E9-14EFBED92A9F)" transform="translate(-556 -38)"><use fill="#fff" xlink:href="#q10bV"/></g><g clip-path="url(#clip-B58A885A-AED0-4D51-B2E9-14EFBED92A9F)" transform="translate(-556 -38)"><use fill="#fff" xlink:href="#q10bW"/></g><g clip-path="url(#clip-B58A885A-AED0-4D51-B2E9-14EFBED92A9F)" transform="translate(-556 -38)"><use fill="#fff" xlink:href="#q10bX"/></g><g clip-path="url(#clip-B58A885A-AED0-4D51-B2E9-14EFBED92A9F)" transform="translate(-556 -38)"><use fill="#fff" xlink:href="#q10bY"/></g><g clip-path="url(#clip-B58A885A-AED0-4D51-B2E9-14EFBED92A9F)" transform="translate(-556 -38)"><use fill="#fff" xlink:href="#q10bZ"/></g><g clip-path="url(#clip-B58A885A-AED0-4D51-B2E9-14EFBED92A9F)" transform="translate(-556 -38)"><use fill="#fff" xlink:href="#q10baa"/></g><g clip-path="url(#clip-B58A885A-AED0-4D51-B2E9-14EFBED92A9F)" transform="translate(-556 -38)"><use fill="#fff" xlink:href="#q10bab"/></g><g clip-path="url(#clip-B58A885A-AED0-4D51-B2E9-14EFBED92A9F)" transform="translate(-556 -38)"><use fill="#fff" xlink:href="#q10bac"/></g><g clip-path="url(#clip-B58A885A-AED0-4D51-B2E9-14EFBED92A9F)" transform="translate(-556 -38)"><use fill="#fff" xlink:href="#q10bad"/></g><g clip-path="url(#clip-B58A885A-AED0-4D51-B2E9-14EFBED92A9F)" transform="translate(-556 -38)"><use fill="#fff" xlink:href="#q10bae"/></g><g clip-path="url(#clip-B58A885A-AED0-4D51-B2E9-14EFBED92A9F)" transform="translate(-556 -38)"><use fill="#fff" xlink:href="#q10baf"/></g><g clip-path="url(#clip-B58A885A-AED0-4D51-B2E9-14EFBED92A9F)" transform="translate(-556 -38)"><use fill="#fff" xlink:href="#q10bag"/></g><g clip-path="url(#clip-B58A885A-AED0-4D51-B2E9-14EFBED92A9F)" transform="translate(-556 -38)"><use fill="#fff" xlink:href="#q10bah"/></g><g clip-path="url(#clip-B58A885A-AED0-4D51-B2E9-14EFBED92A9F)" transform="translate(-556 -38)"><use fill="#fff" xlink:href="#q10bai"/></g><g clip-path="url(#clip-B58A885A-AED0-4D51-B2E9-14EFBED92A9F)" transform="translate(-556 -38)"><use fill="#fff" xlink:href="#q10baj"/></g><g clip-path="url(#clip-B58A885A-AED0-4D51-B2E9-14EFBED92A9F)" transform="translate(-556 -38)"><use fill="#fff" xlink:href="#q10bak"/></g><g clip-path="url(#clip-B58A885A-AED0-4D51-B2E9-14EFBED92A9F)" transform="translate(-556 -38)"><use fill="#fff" xlink:href="#q10bal"/></g><g clip-path="url(#clip-B58A885A-AED0-4D51-B2E9-14EFBED92A9F)" transform="translate(-556 -38)"><use fill="#fff" xlink:href="#q10bam"/></g><g clip-path="url(#clip-B58A885A-AED0-4D51-B2E9-14EFBED92A9F)" transform="translate(-556 -38)"><use fill="#fff" xlink:href="#q10ban"/></g><g clip-path="url(#clip-B58A885A-AED0-4D51-B2E9-14EFBED92A9F)" transform="translate(-556 -38)"><use fill="#fff" xlink:href="#q10bao"/></g><g clip-path="url(#clip-B58A885A-AED0-4D51-B2E9-14EFBED92A9F)" transform="translate(-556 -38)"><use fill="#fff" xlink:href="#q10bap"/></g><g clip-path="url(#clip-B58A885A-AED0-4D51-B2E9-14EFBED92A9F)" transform="translate(-556 -38)"><use fill="#fff" xlink:href="#q10baq"/></g><g clip-path="url(#clip-B58A885A-AED0-4D51-B2E9-14EFBED92A9F)" transform="translate(-556 -38)"><use fill="#fff" xlink:href="#q10bar"/></g><g clip-path="url(#clip-B58A885A-AED0-4D51-B2E9-14EFBED92A9F)" transform="translate(-556 -38)"><use fill="#fff" xlink:href="#q10bas"/></g><g clip-path="url(#clip-B58A885A-AED0-4D51-B2E9-14EFBED92A9F)" transform="translate(-556 -38)"><use fill="#fff" xlink:href="#q10bat"/></g><g clip-path="url(#clip-B58A885A-AED0-4D51-B2E9-14EFBED92A9F)" transform="translate(-556 -38)"><use fill="#fff" xlink:href="#q10bau"/></g><g clip-path="url(#clip-B58A885A-AED0-4D51-B2E9-14EFBED92A9F)" transform="translate(-556 -38)"><use fill="#fff" xlink:href="#q10bav"/></g><g clip-path="url(#clip-B58A885A-AED0-4D51-B2E9-14EFBED92A9F)" transform="translate(-556 -38)"><use fill="#fff" xlink:href="#q10baw"/></g><g clip-path="url(#clip-B58A885A-AED0-4D51-B2E9-14EFBED92A9F)" transform="translate(-556 -38)"><use fill="#fff" xlink:href="#q10bax"/></g><g clip-path="url(#clip-B58A885A-AED0-4D51-B2E9-14EFBED92A9F)" transform="translate(-556 -38)"><use fill="#fff" xlink:href="#q10bay"/></g><g clip-path="url(#clip-B58A885A-AED0-4D51-B2E9-14EFBED92A9F)" transform="translate(-556 -38)"><use fill="#fff" xlink:href="#q10baz"/></g><g clip-path="url(#clip-B58A885A-AED0-4D51-B2E9-14EFBED92A9F)" transform="translate(-556 -38)"><use fill="#fff" xlink:href="#q10baA"/></g><g clip-path="url(#clip-B58A885A-AED0-4D51-B2E9-14EFBED92A9F)" transform="translate(-556 -38)"><use fill="#fff" xlink:href="#q10baB"/></g><g clip-path="url(#clip-B58A885A-AED0-4D51-B2E9-14EFBED92A9F)" transform="translate(-556 -38)"><use fill="#fff" xlink:href="#q10baC"/></g><g clip-path="url(#clip-B58A885A-AED0-4D51-B2E9-14EFBED92A9F)" transform="translate(-556 -38)"><use fill="#fff" xlink:href="#q10baD"/></g><g clip-path="url(#clip-B58A885A-AED0-4D51-B2E9-14EFBED92A9F)" transform="translate(-556 -38)"><use fill="#fff" xlink:href="#q10baE"/></g><g clip-path="url(#clip-B58A885A-AED0-4D51-B2E9-14EFBED92A9F)" transform="translate(-556 -38)"><use fill="#fff" xlink:href="#q10baF"/></g><g clip-path="url(#clip-B58A885A-AED0-4D51-B2E9-14EFBED92A9F)" transform="translate(-556 -38)"><use fill="#fff" xlink:href="#q10baG"/></g><g clip-path="url(#clip-B58A885A-AED0-4D51-B2E9-14EFBED92A9F)" transform="translate(-556 -38)"><use fill="#fff" xlink:href="#q10baH"/></g><g clip-path="url(#clip-B58A885A-AED0-4D51-B2E9-14EFBED92A9F)" transform="translate(-556 -38)"><use fill="#fff" xlink:href="#q10baI"/></g><g clip-path="url(#clip-B58A885A-AED0-4D51-B2E9-14EFBED92A9F)" transform="translate(-556 -38)"><use fill="#fff" xlink:href="#q10baJ"/></g><g clip-path="url(#clip-B58A885A-AED0-4D51-B2E9-14EFBED92A9F)" transform="translate(-556 -38)"><use fill="#fff" xlink:href="#q10baK"/></g><g clip-path="url(#clip-B58A885A-AED0-4D51-B2E9-14EFBED92A9F)" transform="translate(-556 -38)"><use fill="#fff" xlink:href="#q10baL"/></g><g clip-path="url(#clip-B58A885A-AED0-4D51-B2E9-14EFBED92A9F)" transform="translate(-556 -38)"><use fill="#fff" xlink:href="#q10baM"/></g><g clip-path="url(#clip-B58A885A-AED0-4D51-B2E9-14EFBED92A9F)" transform="translate(-556 -38)"><use fill="#fff" xlink:href="#q10baN"/></g><g clip-path="url(#clip-B58A885A-AED0-4D51-B2E9-14EFBED92A9F)" transform="translate(-556 -38)"><use fill="#fff" xlink:href="#q10baO"/></g><g clip-path="url(#clip-B58A885A-AED0-4D51-B2E9-14EFBED92A9F)" transform="translate(-556 -38)"><use fill="#fff" xlink:href="#q10baP"/></g><g clip-path="url(#clip-B58A885A-AED0-4D51-B2E9-14EFBED92A9F)" transform="translate(-556 -38)"><use fill="#fff" xlink:href="#q10baQ"/></g><g clip-path="url(#clip-B58A885A-AED0-4D51-B2E9-14EFBED92A9F)" transform="translate(-556 -38)"><use fill="#fff" xlink:href="#q10baR"/></g><g clip-path="url(#clip-B58A885A-AED0-4D51-B2E9-14EFBED92A9F)" transform="translate(-556 -38)"><use fill="#fff" xlink:href="#q10baS"/></g><g clip-path="url(#clip-B58A885A-AED0-4D51-B2E9-14EFBED92A9F)" transform="translate(-556 -38)"><use fill="#fff" xlink:href="#q10baT"/></g><g clip-path="url(#clip-B58A885A-AED0-4D51-B2E9-14EFBED92A9F)" transform="translate(-556 -38)"><use fill="#fff" xlink:href="#q10baU"/></g><g clip-path="url(#clip-B58A885A-AED0-4D51-B2E9-14EFBED92A9F)" transform="translate(-556 -38)"><use fill="#fff" xlink:href="#q10baV"/></g><g clip-path="url(#clip-B58A885A-AED0-4D51-B2E9-14EFBED92A9F)" transform="translate(-556 -38)"><use fill="#fff" xlink:href="#q10baW"/></g><g clip-path="url(#clip-B58A885A-AED0-4D51-B2E9-14EFBED92A9F)" transform="translate(-556 -38)"><use fill="#fff" xlink:href="#q10baX"/></g><g clip-path="url(#clip-B58A885A-AED0-4D51-B2E9-14EFBED92A9F)" transform="translate(-556 -38)"><use fill="#fff" xlink:href="#q10baY"/></g><g clip-path="url(#clip-B58A885A-AED0-4D51-B2E9-14EFBED92A9F)" transform="translate(-556 -38)"><use fill="#fff" xlink:href="#q10baZ"/></g><g clip-path="url(#clip-B58A885A-AED0-4D51-B2E9-14EFBED92A9F)" transform="translate(-556 -38)"><use fill="#fff" xlink:href="#q10bba"/></g><g clip-path="url(#clip-B58A885A-AED0-4D51-B2E9-14EFBED92A9F)" transform="translate(-556 -38)"><use fill="#fff" xlink:href="#q10bbb"/></g><g clip-path="url(#clip-B58A885A-AED0-4D51-B2E9-14EFBED92A9F)" transform="translate(-556 -38)"><use fill="#fff" xlink:href="#q10bbc"/></g><g clip-path="url(#clip-B58A885A-AED0-4D51-B2E9-14EFBED92A9F)" transform="translate(-556 -38)"><use fill="#fff" xlink:href="#q10bbd"/></g><g clip-path="url(#clip-B58A885A-AED0-4D51-B2E9-14EFBED92A9F)" transform="translate(-556 -38)"><use fill="#fff" xlink:href="#q10bbe"/></g><g clip-path="url(#clip-B58A885A-AED0-4D51-B2E9-14EFBED92A9F)" transform="translate(-556 -38)"><use fill="#fff" xlink:href="#q10bbf"/></g><g clip-path="url(#clip-B58A885A-AED0-4D51-B2E9-14EFBED92A9F)" transform="translate(-556 -38)"><use fill="#fff" xlink:href="#q10bbg"/></g><g clip-path="url(#clip-B58A885A-AED0-4D51-B2E9-14EFBED92A9F)" transform="translate(-556 -38)"><use fill="#fff" xlink:href="#q10bbh"/></g><g clip-path="url(#clip-B58A885A-AED0-4D51-B2E9-14EFBED92A9F)" transform="translate(-556 -38)"><use fill="#fff" xlink:href="#q10bbi"/></g><g clip-path="url(#clip-B58A885A-AED0-4D51-B2E9-14EFBED92A9F)" transform="translate(-556 -38)"><use fill="#fff" xlink:href="#q10bbj"/></g><g clip-path="url(#clip-B58A885A-AED0-4D51-B2E9-14EFBED92A9F)" transform="translate(-556 -38)"><use fill="#fff" xlink:href="#q10bbk"/></g><g clip-path="url(#clip-B58A885A-AED0-4D51-B2E9-14EFBED92A9F)" transform="translate(-556 -38)"><use fill="#fff" xlink:href="#q10bbl"/></g><g clip-path="url(#clip-B58A885A-AED0-4D51-B2E9-14EFBED92A9F)" transform="translate(-556 -38)"><use fill="#fff" xlink:href="#q10bbm"/></g><g clip-path="url(#clip-B58A885A-AED0-4D51-B2E9-14EFBED92A9F)" transform="translate(-556 -38)"><use fill="#fff" xlink:href="#q10bbn"/></g><g clip-path="url(#clip-B58A885A-AED0-4D51-B2E9-14EFBED92A9F)" transform="translate(-556 -38)"><use fill="#fff" xlink:href="#q10bbo"/></g><g clip-path="url(#clip-B58A885A-AED0-4D51-B2E9-14EFBED92A9F)" transform="translate(-556 -38)"><use fill="#fff" xlink:href="#q10bbp"/></g></g></svg>