<svg xmlns="http://www.w3.org/2000/svg" xmlns:xlink="http://www.w3.org/1999/xlink" width="22" height="20" viewBox="0 0 22 20"><defs><path id="52e6a" d="M387 868.857c-4.783 0-7.458 2.01-7.458 2.01a.477.477 0 1 0 .568.743s2.37-1.8 6.89-1.8a.482.482 0 0 0 .42-.237.479.479 0 0 0 0-.48.482.482 0 0 0-.42-.236zm-.005-1.428c2.83 0 5.402.656 7.23 1.547.913.445 1.641.953 2.121 1.444.48.49.687.945.687 1.294 0 .35-.19.716-.657 1.116-.467.4-1.191.8-2.106 1.131-1.83.663-4.418 1.087-7.275 1.087s-5.445-.424-7.275-1.087c-.915-.33-1.64-.73-2.106-1.13-.467-.4-.657-.767-.657-1.117s.207-.803.687-1.294c.48-.491 1.208-1 2.12-1.444 1.829-.89 4.4-1.547 7.231-1.547zm-1.43-5.238c-1.242.183-2.16.57-2.765.911-.605.342-.926.672-.926.672a.477.477 0 0 0 .21.833.48.48 0 0 0 .477-.175s.204-.204.718-.493c.513-.29 1.315-.626 2.436-.792a.485.485 0 0 0-.15-.956zm1.43-.953c2.037 0 3.89.49 5.197 1.146.654.33 1.16.703 1.494 1.056.334.354.478.67.478.893 0 .224-.116.452-.433.715-.318.262-.824.513-1.479.729-1.31.433-3.185.7-5.257.7-2.072 0-3.947-.267-5.257-.7-.655-.216-1.161-.467-1.479-.73-.317-.262-.433-.49-.433-.714 0-.223.144-.54.478-.893.334-.353.84-.727 1.494-1.056 1.306-.657 3.16-1.146 5.197-1.146zm-2.327-3.81c-1.158.017-1.853.626-1.853.626a.474.474 0 0 0 .157.838.48.48 0 0 0 .486-.139s.372-.359 1.225-.372a.478.478 0 0 0 .471-.484.478.478 0 0 0-.486-.468zm.419-.476c1.098 0 2.096.314 2.795.732.698.418 1.031.942 1.031 1.179 0 .12-.052.252-.21.418-.156.166-.414.337-.761.492-.697.31-1.723.523-2.855.523s-2.158-.213-2.855-.523c-.347-.155-.605-.326-.762-.492-.157-.166-.21-.299-.21-.418 0-.237.333-.761 1.032-1.18.699-.417 1.696-.73 2.795-.73zm0-.952c-1.278 0-2.429.352-3.288.863-.86.512-1.495 1.18-1.495 1.994 0 .408.185.781.464 1.072.278.29.644.524 1.076.714.284.126.603.225.941.312-.508.17-.977.365-1.405.58-.73.367-1.34.788-1.778 1.25-.44.464-.732.983-.732 1.548 0 .566.32 1.066.777 1.444.456.377 1.065.666 1.793.908.357.117.74.22 1.151.312-1.207.285-2.31.66-3.243 1.116-.99.482-1.807 1.038-2.391 1.637-.585.599-.957 1.261-.957 1.964 0 .703.389 1.334.986 1.846.598.511 1.418.937 2.407 1.294 1.978.716 4.655 1.146 7.607 1.146s5.629-.43 7.607-1.146c.989-.357 1.809-.783 2.407-1.294.597-.512.986-1.143.986-1.846 0-.703-.372-1.365-.957-1.964-.584-.599-1.4-1.155-2.39-1.637-.935-.456-2.037-.831-3.244-1.116.411-.091.794-.195 1.15-.312.73-.242 1.338-.53 1.794-.908.456-.378.777-.878.777-1.444 0-.565-.293-1.084-.732-1.547-.439-.463-1.048-.884-1.778-1.25-1.05-.527-2.36-.94-3.827-1.131.234-.14.441-.298.613-.476.279-.29.464-.664.464-1.072 0-.815-.636-1.482-1.495-1.994-.86-.511-2.01-.863-3.288-.863z"/></defs><g><g transform="translate(-376 -856)"><use fill="#79a383" xlink:href="#52e6a"/></g></g></svg>