<svg xmlns="http://www.w3.org/2000/svg" xmlns:xlink="http://www.w3.org/1999/xlink" width="20" height="23" viewBox="0 0 20 23"><defs><path id="erd8a" d="M258.936 550.01l2.966 7.845c.008.03.018.06.03.088a.743.743 0 0 1-.682 1.057.74.74 0 0 1-.717-.55.425.425 0 0 0-.033-.083l-1.963-5.24-.006-.012zm-14.729-3.512c.184.125.438.352.672.602.23.246.441.511.574.712-.379.21-.836.22-1.16-.105-.338-.338-.326-.824-.086-1.209zm11.75-7.217l3.606 2.073v-.284c0 .194.113.371.289.453a.247.247 0 0 1 .148.227.24.24 0 0 1-.133.217.5.5 0 0 0-.265.441v-.289l-2.245 1.242a.499.499 0 0 0-.24.563l.75 2.902.006.024c.227.726.273 1.449.182 2.19l-.573 4.396-2.527 5.072-.006.015.207-.408.444.22a.5.5 0 0 0-.65.188l-.003.002-.001.004a.302.302 0 0 0-.005.008l-.017.033a.741.741 0 0 1-.674.43.743.743 0 0 1-.643-1.125.598.598 0 0 0 .043-.096l2.373-4.597a.513.513 0 0 0 .04-.354l-1.936-7.447-.07.146a.504.504 0 0 0 .02-.37 1.23 1.23 0 0 1-.077-.407c0-.549.352-1.002.838-1.172a.502.502 0 0 0 .287-.26l-.072.157 2.953-1.375a.5.5 0 1 0 .04-.887l-2.06-1.197a2.666 2.666 0 0 0-.03-.734zm-1.012 19.248zm0 0zm0 0zm-.887-13.002a.404.404 0 0 1-.003.006zM253.25 538a1.742 1.742 0 0 1 1.705 2.133 1.738 1.738 0 0 1-1.705 1.367c-.973 0-1.75-.777-1.75-1.75s.777-1.75 1.75-1.75zm-4.725-.004a.507.507 0 0 0-.314.096s-1.711 1.21-1.711 3.408a.503.503 0 0 0 .248.44c.156.09.348.09.504 0a.503.503 0 0 0 .248-.44c0-1.684 1.29-2.592 1.29-2.592a.502.502 0 0 0-.264-.912zm-3.003-.5a.5.5 0 0 0-.39.164S243 539.984 243 544a.503.503 0 0 0 .248.44c.156.09.348.09.504 0A.503.503 0 0 0 244 544c0-3.67 1.867-5.66 1.867-5.66a.501.501 0 0 0-.345-.844zm7.728-.496a2.757 2.757 0 0 0-2.75 2.75c0 .26.04.51.107.746l-6.904 4.986a.543.543 0 0 0-.084.08c-.01.01-.023.012-.033.024 0-.002 0-.002 0 0a2.006 2.006 0 0 0 0 2.828c.775.777 2.05.777 2.828 0a.606.606 0 0 0 .17-.434.808.808 0 0 0-.055-.27 1.967 1.967 0 0 0-.216-.415 6.722 6.722 0 0 0-.706-.88 5.984 5.984 0 0 0-.654-.6l6.108-4.41a2.743 2.743 0 0 0 2.189 1.095c1.063 0 1.986-.61 2.445-1.498l1.02.594-2.248 1.047a.492.492 0 0 0-.201.171c-.725.373-1.266 1.069-1.266 1.936 0 .203.05.379.1.555a.434.434 0 0 0 .015.15l1.932 7.44-2.32 4.494a.478.478 0 0 0-.057.248c-.078.195-.17.386-.17.613 0 .96.79 1.75 1.75 1.75.596 0 1.082-.338 1.396-.797a.494.494 0 0 0 .176-.193l.014-.028c.006-.007.01-.017.014-.027h.002l2.168-4.355 1.56 4.16c.033.09.092.166.168.224.285.577.818 1.016 1.502 1.016.96 0 1.75-.79 1.75-1.75 0-.182-.059-.342-.11-.502a.525.525 0 0 0-.03-.191l-3.813-10.084a.328.328 0 0 0-.03-.059 5.885 5.885 0 0 0-.189-.863l-.648-2.502 2.164-1.197a.499.499 0 0 0 .19-.188c.267-.226.466-.537.466-.914 0-.398-.22-.72-.516-.95a.494.494 0 0 0-.173-.167l-5.532-3.182a.548.548 0 0 0-.097-.043 2.72 2.72 0 0 0-1.432-.408z"/></defs><g><g transform="translate(-243 -537)"><use fill="#cfddbb" xlink:href="#erd8a"/></g></g></svg>