<svg xmlns="http://www.w3.org/2000/svg" xmlns:xlink="http://www.w3.org/1999/xlink" width="30" height="48" viewBox="0 0 30 48"><defs><path id="4l9ka" d="M206.031 696.969c-.031.008-.062.02-.094.031a.667.667 0 0 0-.125 0c-.03.008-.062.02-.093.031a.466.466 0 0 0-.063.032.995.995 0 0 0-.281.156c-.031.02-.063.039-.094.062a.473.473 0 0 0-.062.063.467.467 0 0 0-.031.062 1.304 1.304 0 0 0-.063.094c-.023.05-.047.102-.063.156-.023.051-.046.102-.062.157-.148.32-.664 1.187-1.844 1.187H200c-.527 0-.898-.094-1.125-.187-.227-.094-.25-.125-.25-.125a1 1 0 1 0-1.25 1.562s.309.227.75.406c.441.18 1.074.344 1.875.344h3.156c1.317 0 2.239-.61 2.844-1.25.605.64 1.527 1.25 2.844 1.25H212c.8 0 1.434-.164 1.875-.344.441-.18.75-.406.75-.406a1 1 0 1 0-1.25-1.562s-.023.03-.25.125c-.227.093-.598.187-1.125.187h-3.156c-1.137 0-1.672-.805-1.844-1.156a1.055 1.055 0 0 0-.063-.188c-.007-.031-.019-.062-.03-.093-.02-.032-.04-.063-.063-.094a1.012 1.012 0 0 0-.344-.344.466.466 0 0 0-.063-.031l-.03-.031a.466.466 0 0 0-.063-.032h-.031a.466.466 0 0 0-.063-.031h-.125c-.031-.012-.063-.023-.094-.031zM203.598 685h4.814l.688 1.438a1 1 0 0 0 .688.53s5.846 1.427 9.128 2.72c-.152 3.941-1.414 7.12-2.813 10.03-1.485 3.095-3.095 5.954-3.095 9.282 0 1.723.59 2.746 1.063 4.219.426 1.324.793 3.379.875 6.781h-17.882c.082-3.402.45-5.457.875-6.781.473-1.473 1.063-2.496 1.063-4.219 0-3.328-1.61-6.187-3.095-9.281-1.399-2.91-2.66-6.09-2.813-10.031 3.282-1.293 9.128-2.72 9.128-2.72a1 1 0 0 0 .688-.53zm-.848-2c-.316.063-.582.27-.719.563l-.75 1.593c-.781.184-6.398 1.508-9.687 2.938-.36.16-.59.515-.594.906 0 4.742 1.578 8.445 3.094 11.594C195.609 703.742 197 706.34 197 709c0 1.277-.41 1.988-.938 3.625-.527 1.637-1.062 4.02-1.062 8.375 0 .55.45 1 1 1h9v9h2v-9h9c.55 0 1-.45 1-1 0-4.355-.535-6.738-1.063-8.375-.527-1.637-.937-2.348-.937-3.625 0-2.66 1.39-5.258 2.906-8.406C219.422 697.445 221 693.742 221 689a1.003 1.003 0 0 0-.594-.906c-3.289-1.43-8.906-2.754-9.687-2.938l-.75-1.593a.994.994 0 0 0-.906-.563h-6.313z"/></defs><g><g transform="translate(-191 -683)"><use fill="#1a428a" xlink:href="#4l9ka"/></g></g></svg>