<svg id="Layer_1" data-name="Layer 1" xmlns="http://www.w3.org/2000/svg" viewBox="0 0 151 96"><defs><style>.cls-1{fill:#1a428a;}</style></defs><title>Untitled-4</title><path class="cls-1" d="M100.24,30.7A3,3,0,0,1,98.32,32L77.84,36.05l6.8,18.25.06.15c2.51,6.69,2.66,11.24,2.34,13.88L83,91a3.68,3.68,0,0,1-3.64,3.09,4.18,4.18,0,0,1-.61,0,3.68,3.68,0,0,1-3-4.23l3.7-20.9a6.6,6.6,0,0,0-1.6-5.6L77,62.33,57,91.48a3.69,3.69,0,0,1-3.08,1.65,3.69,3.69,0,0,1-3.07-5.73L71.93,56.48l-7-18.75c-1.1-2.95.67-6.33,4-7.55a6.66,6.66,0,0,1,5.28.22l.3.15,22.67-4.49a3,3,0,0,1,3.55,2.37,3,3,0,0,1-.45,2.27M60.42,3.48A7.42,7.42,0,0,1,55.51,6c-.48,0-.78-.12-.87-.34-.48-1.1.47-2.63,2.08-3.33A4.29,4.29,0,0,1,58.42,2a2.25,2.25,0,0,1,2.16,1.11.68.68,0,0,1-.16.42M102.6,28.05a5,5,0,0,0-4.76-4L61.39,1a4.63,4.63,0,0,0-3-1,6.22,6.22,0,0,0-2.48.53c-2.62,1.14-4,3.78-3.09,5.89a2.62,2.62,0,0,0,2.66,1.5,9.22,9.22,0,0,0,6.54-3.37,3.68,3.68,0,0,0,.32-.62L94.92,24.51l-20.18,4a8.67,8.67,0,0,0-6.53-.17c-4.28,1.6-6.57,6.11-5.09,10.06l6.64,17.8L49.24,86.31a5.65,5.65,0,0,0,1.58,7.82,5.58,5.58,0,0,0,3.11,1,5.67,5.67,0,0,0,4.7-2.51L77.07,65.63a4.66,4.66,0,0,1,.41,2.9l-3.7,20.91a5.64,5.64,0,0,0,11.13,1.85l4-22.64V68.6c.35-2.86.22-7.75-2.45-14.84L80.46,37.52,98.7,33.9a5,5,0,0,0,3.9-5.85"/><path class="cls-1" d="M100.24,30.7A3,3,0,0,1,98.32,32L77.84,36.05l6.8,18.25.06.15c2.51,6.69,2.66,11.24,2.34,13.88L83,91a3.68,3.68,0,0,1-3.64,3.09,4.18,4.18,0,0,1-.61,0,3.68,3.68,0,0,1-3-4.23l3.7-20.9a6.6,6.6,0,0,0-1.6-5.6L77,62.33,57,91.48a3.69,3.69,0,0,1-3.08,1.65,3.69,3.69,0,0,1-3.07-5.73L71.93,56.48l-7-18.75c-1.1-2.95.67-6.33,4-7.55a6.66,6.66,0,0,1,5.28.22l.3.15,22.67-4.49a3,3,0,0,1,3.55,2.37A3,3,0,0,1,100.24,30.7ZM60.42,3.48A7.42,7.42,0,0,1,55.51,6c-.48,0-.78-.12-.87-.34-.48-1.1.47-2.63,2.08-3.33A4.29,4.29,0,0,1,58.42,2a2.25,2.25,0,0,1,2.16,1.11A.68.68,0,0,1,60.42,3.48ZM102.6,28.05a5,5,0,0,0-4.76-4L61.39,1a4.63,4.63,0,0,0-3-1,6.22,6.22,0,0,0-2.48.53c-2.62,1.14-4,3.78-3.09,5.89a2.62,2.62,0,0,0,2.66,1.5,9.22,9.22,0,0,0,6.54-3.37,3.68,3.68,0,0,0,.32-.62L94.92,24.51l-20.18,4a8.67,8.67,0,0,0-6.53-.17c-4.28,1.6-6.57,6.11-5.09,10.06l6.64,17.8L49.24,86.31a5.65,5.65,0,0,0,1.58,7.82,5.58,5.58,0,0,0,3.11,1,5.67,5.67,0,0,0,4.7-2.51L77.07,65.63a4.66,4.66,0,0,1,.41,2.9l-3.7,20.91a5.64,5.64,0,0,0,11.13,1.85l4-22.64V68.6c.35-2.86.22-7.75-2.45-14.84L80.46,37.52,98.7,33.9a5,5,0,0,0,3.9-5.85Z"/><path class="cls-1" d="M59.46,20.45a5.6,5.6,0,1,1,5.6,5.6,5.62,5.62,0,0,1-5.6-5.6m13.15,0A7.55,7.55,0,1,0,65.06,28a7.55,7.55,0,0,0,7.55-7.55"/><path class="cls-1" d="M59.46,20.45a5.6,5.6,0,1,1,5.6,5.6A5.62,5.62,0,0,1,59.46,20.45Zm13.15,0A7.55,7.55,0,1,0,65.06,28,7.55,7.55,0,0,0,72.61,20.45Z"/></svg>